<svg width="787" height="296" xmlns="http://www.w3.org/2000/svg" xmlns:xlink="http://www.w3.org/1999/xlink" overflow="hidden"><defs><clipPath id="clip0"><rect x="96" y="169" width="787" height="296"/></clipPath></defs><g clip-path="url(#clip0)" transform="translate(-96 -169)"><path d="M103.5 190.5C103.5 180.007 112.007 171.5 122.5 171.5 132.993 171.5 141.5 180.007 141.5 190.5 141.5 200.993 132.993 209.5 122.5 209.5 112.007 209.5 103.5 200.993 103.5 190.5Z" stroke="#000000" stroke-width="2.66667" stroke-linejoin="round" stroke-miterlimit="10" fill="#FFFFFF" fill-rule="evenodd"/><path d="M115.5 190C115.5 185.858 118.858 182.5 123 182.5 127.142 182.5 130.5 185.858 130.5 190 130.5 194.142 127.142 197.5 123 197.5 118.858 197.5 115.5 194.142 115.5 190Z" stroke="#000000" stroke-width="2.66667" stroke-linejoin="round" stroke-miterlimit="10" fill-rule="evenodd"/><path d="M687.5 190.5C687.5 180.007 696.007 171.5 706.5 171.5 716.993 171.5 725.5 180.007 725.5 190.5 725.5 200.993 716.993 209.5 706.5 209.5 696.007 209.5 687.5 200.993 687.5 190.5Z" stroke="#000000" stroke-width="2.66667" stroke-linejoin="round" stroke-miterlimit="10" fill="#FFFFFF" fill-rule="evenodd"/><path d="M693 177 719.725 203.725" stroke="#000000" stroke-width="2" stroke-linejoin="round" stroke-miterlimit="10" fill="none" fill-rule="evenodd"/><path d="M0 0 26.7253 26.7253" stroke="#000000" stroke-width="2" stroke-linejoin="round" stroke-miterlimit="10" fill="none" fill-rule="evenodd" transform="matrix(-1 -8.74228e-08 -8.74228e-08 1 719.725 177)"/><path d="M495.503 194.627C532.241 214.955 561.164 246.937 577.708 285.526" stroke="#000000" stroke-width="4" stroke-linejoin="round" stroke-miterlimit="10" fill="none" fill-rule="evenodd"/><path d="M280.724 23.7494C317.359 44.084 346.198 76.0159 362.708 114.526" stroke="#000000" stroke-width="4" stroke-linejoin="round" stroke-miterlimit="10" fill="none" fill-rule="evenodd" transform="matrix(1 0 0 -1 215 398)"/><path d="M280.503 23.6275C317.241 43.955 346.164 75.9368 362.708 114.526" stroke="#000000" stroke-width="4" stroke-linejoin="round" stroke-miterlimit="10" fill="none" fill-rule="evenodd" transform="matrix(-1 -8.74228e-08 -8.74228e-08 1 745 171)"/><path d="M464.276 374.251C427.641 353.916 398.802 321.984 382.292 283.474" stroke="#000000" stroke-width="4" stroke-linejoin="round" stroke-miterlimit="10" fill="none" fill-rule="evenodd"/><path d="M428.414 229.586 455.901 257.072 453.072 259.901 425.586 232.414ZM457.315 252.829 461.557 265.557 448.829 261.315Z" fill="#FF0000"/><path d="M532.143 338.972 504.657 311.485 507.485 308.657 534.972 336.143ZM503.243 315.728 499 303 511.728 307.243Z" fill="#FF0000"/><path d="M404.5 285C404.5 243.303 438.526 209.5 480.5 209.5 522.474 209.5 556.5 243.303 556.5 285 556.5 326.698 522.474 360.5 480.5 360.5 438.526 360.5 404.5 326.698 404.5 285Z" stroke="#7F7F7F" stroke-width="2.66667" stroke-linejoin="round" stroke-miterlimit="10" fill="none" fill-rule="evenodd"/><path d="M518 395 545.8 395 545.8 399 518 399ZM543.8 391 555.8 397 543.8 403Z" fill="#FF0000"/><text font-family="Times New Roman,Times New Roman_MSFontService,sans-serif" font-style="italic" font-weight="400" font-size="24" transform="translate(565.2 406)">Hertzian</text><path d="M518 433 545.8 433 545.8 437 518 437ZM543.8 429 555.8 435 543.8 441Z" fill="#0000FF"/><text font-family="Times New Roman,Times New Roman_MSFontService,sans-serif" font-style="italic" font-weight="400" font-size="24" transform="translate(565.2 444)">Coulomb</text><path d="M707.5 285C707.5 243.303 741.303 209.5 783 209.5 824.698 209.5 858.5 243.303 858.5 285 858.5 326.698 824.698 360.5 783 360.5 741.303 360.5 707.5 326.698 707.5 285Z" stroke="#7F7F7F" stroke-width="2.66667" stroke-linejoin="round" stroke-miterlimit="10" fill="none" fill-rule="evenodd"/><path d="M798.503 194.627C835.241 214.955 864.164 246.937 880.708 285.526" stroke="#000000" stroke-width="4" stroke-linejoin="round" stroke-miterlimit="10" fill="none" fill-rule="evenodd"/><path d="M280.724 23.7494C317.359 44.084 346.198 76.0159 362.708 114.526" stroke="#000000" stroke-width="4" stroke-linejoin="round" stroke-miterlimit="10" fill="none" fill-rule="evenodd" transform="matrix(1 0 0 -1 518 398)"/><path d="M280.503 23.6275C317.241 43.955 346.164 75.9368 362.708 114.526" stroke="#000000" stroke-width="4" stroke-linejoin="round" stroke-miterlimit="10" fill="none" fill-rule="evenodd" transform="matrix(-1 -8.74228e-08 -8.74228e-08 1 1047 171)"/><path d="M766.276 374.251C729.641 353.916 700.802 321.984 684.292 283.474" stroke="#000000" stroke-width="4" stroke-linejoin="round" stroke-miterlimit="10" fill="none" fill-rule="evenodd"/><path d="M730.414 229.586 757.901 257.072 755.072 259.901 727.586 232.414ZM759.315 252.829 763.557 265.557 750.829 261.315Z" fill="#FF0000"/><path d="M1.41421-1.41421 17.0203 14.1919 14.1919 17.0203-1.41421 1.41421ZM18.4345 9.94924 22.6772 22.6772 9.94924 18.4345Z" fill="#0000FF" transform="matrix(1 0 0 -1 729 231.677)"/><path d="M834.143 338.972 806.657 311.485 809.485 308.657 836.972 336.143ZM805.243 315.728 801 303 813.728 307.243Z" fill="#FF0000"/><path d="M1.41421-1.41421 17.0203 14.1919 14.1919 17.0203-1.41421 1.41421ZM18.4345 9.94924 22.6772 22.6772 9.94924 18.4345Z" fill="#0000FF" transform="matrix(1 0 0 -1 836 337.677)"/><path d="M1.41421-1.41421 28.9005 26.0721 26.0721 28.9005-1.41421 1.41421ZM30.3147 21.8295 34.5574 34.5574 21.8295 30.3147Z" fill="#FF0000" transform="matrix(-1 -8.74228e-08 -8.74228e-08 1 835.557 231)"/><path d="M121.5 285C121.5 243.303 155.303 209.5 197 209.5 238.698 209.5 272.5 243.303 272.5 285 272.5 326.698 238.698 360.5 197 360.5 155.303 360.5 121.5 326.698 121.5 285Z" stroke="#7F7F7F" stroke-width="2.66667" stroke-linejoin="round" stroke-miterlimit="10" fill="none" fill-rule="evenodd"/><path d="M212.503 194.627C249.241 214.955 278.164 246.937 294.708 285.526" stroke="#000000" stroke-width="4" stroke-linejoin="round" stroke-miterlimit="10" fill="none" fill-rule="evenodd"/><path d="M280.724 23.7494C317.359 44.084 346.198 76.0159 362.708 114.526" stroke="#000000" stroke-width="4" stroke-linejoin="round" stroke-miterlimit="10" fill="none" fill-rule="evenodd" transform="matrix(1 0 0 -1 -68 398)"/><path d="M280.503 23.6275C317.241 43.955 346.164 75.9368 362.708 114.526" stroke="#000000" stroke-width="4" stroke-linejoin="round" stroke-miterlimit="10" fill="none" fill-rule="evenodd" transform="matrix(-1 -8.74228e-08 -8.74228e-08 1 461 171)"/><path d="M180.276 374.251C143.641 353.916 114.802 321.984 98.2916 283.474" stroke="#000000" stroke-width="4" stroke-linejoin="round" stroke-miterlimit="10" fill="none" fill-rule="evenodd"/><path d="M144.414 229.586 171.901 257.072 169.072 259.901 141.586 232.414ZM173.315 252.829 177.557 265.557 164.829 261.315Z" fill="#FF0000"/><path d="M1.41421-1.41421 17.0203 14.1919 14.1919 17.0203-1.41421 1.41421ZM18.4345 9.94924 22.6772 22.6772 9.94924 18.4345Z" fill="#0000FF" transform="matrix(-1 -8.74228e-08 -8.74228e-08 1 142.677 231)"/><path d="M248.143 338.972 220.657 311.485 223.485 308.657 250.972 336.143ZM219.243 315.728 215 303 227.728 307.243Z" fill="#FF0000"/><path d="M1.41421-1.41421 30.5219 27.6935 27.6935 30.5219-1.41421 1.41421ZM31.9362 23.4509 36.1788 36.1788 23.4509 31.9362Z" fill="#FF0000" transform="matrix(1 0 0 -1 143 338.179)"/><path d="M1.41421-1.41421 17.0203 14.1919 14.1919 17.0203-1.41421 1.41421ZM18.4345 9.94924 22.6772 22.6772 9.94924 18.4345Z" fill="#0000FF" transform="matrix(-1 -8.74228e-08 -8.74228e-08 1 249.677 338)"/></g></svg>