<svg xmlns="http://www.w3.org/2000/svg" xmlns:xlink="http://www.w3.org/1999/xlink" viewBox="0 0 390.91 181.51"><defs><style>.cls-1,.cls-10,.cls-12,.cls-13,.cls-15,.cls-16,.cls-2,.cls-25,.cls-3,.cls-5,.cls-7,.cls-8,.cls-9{fill:none;}.cls-1{clip-rule:evenodd;}.cls-11,.cls-14,.cls-17,.cls-2,.cls-24,.cls-4{fill-rule:evenodd;}.cls-4{fill:#fff;}.cls-25,.cls-5,.cls-7,.cls-9{stroke:#000;}.cls-10,.cls-12,.cls-13,.cls-15,.cls-16,.cls-5,.cls-7,.cls-8,.cls-9{stroke-linejoin:round;}.cls-25,.cls-5,.cls-8{stroke-width:1.88px;}.cls-6{clip-path:url(#clip-path);}.cls-7{stroke-width:1.41px;}.cls-8{stroke:#7f7f7f;}.cls-10,.cls-12,.cls-15,.cls-9{stroke-width:2.81px;}.cls-10{stroke:#ed2024;}.cls-11{fill:#ed2024;}.cls-12,.cls-13{stroke:#00b04f;}.cls-12,.cls-15{stroke-dasharray:152400 114300;}.cls-13,.cls-16{stroke-width:1.41px;}.cls-14{fill:#00b04f;}.cls-15,.cls-16{stroke:#f79647;}.cls-17{fill:#f79647;}.cls-18{clip-path:url(#clip-path-19);}.cls-19{font-size:16.88px;font-family:ArialMT, Arial;}.cls-20{letter-spacing:0.01em;}.cls-21{letter-spacing:-0.01em;}.cls-22{letter-spacing:0.03em;}.cls-23{letter-spacing:0.01em;}.cls-25{stroke-miterlimit:8;}</style><clipPath id="clip-path" transform="translate(-0.32 -0.12)"><polygon class="cls-1" points="0 189.92 391.55 189.92 391.55 0 0 0 0 189.92 0 189.92"/></clipPath><clipPath id="clip-path-19" transform="translate(-0.32 -0.12)"><rect class="cls-3" width="391.55" height="189.92"/></clipPath></defs><g id="Layer_2" data-name="Layer 2"><g id="Layer_1-2" data-name="Layer 1"><path class="cls-4" d="M4.58,14.42a13.19,13.19,0,0,1,13-13.36,13.19,13.19,0,0,1,13,13.36,13.19,13.19,0,0,1-13,13.36,13.19,13.19,0,0,1-13-13.36Z" transform="translate(-0.32 -0.12)"/><path class="cls-5" d="M4.58,14.42a13.19,13.19,0,0,1,13-13.36,13.19,13.19,0,0,1,13,13.36,13.19,13.19,0,0,1-13,13.36,13.19,13.19,0,0,1-13-13.36Z" transform="translate(-0.32 -0.12)"/><g class="cls-6"><line class="cls-7" x1="7.43" y1="4.81" x2="26.25" y2="23.61"/><g class="cls-6"><line class="cls-7" x1="26.25" y1="4.81" x2="7.43" y2="23.61"/><g class="cls-6"><path class="cls-8" d="M17.25,80.89c0-29.33,24-53.11,53.53-53.11a53.11,53.11,0,1,1,0,106.22c-29.56,0-53.53-23.78-53.53-53.11Z" transform="translate(-0.32 -0.12)"/><g class="cls-6"><path class="cls-9" d="M81.5,143.67a132.92,132.92,0,0,0,57.73-63.85" transform="translate(-0.32 -0.12)"/><g class="cls-6"><path class="cls-9" d="M59.51,17.32A133,133,0,0,0,1.61,81.26" transform="translate(-0.32 -0.12)"/><g class="cls-6"><line class="cls-10" x1="32.78" y1="42.79" x2="52.13" y2="62.13"/><polygon class="cls-11" points="54.13 58.15 57.11 67.1 48.15 64.11 54.13 58.15 54.13 58.15"/><g class="cls-6"><line class="cls-10" x1="107.82" y1="117.74" x2="88.46" y2="98.41"/><polygon class="cls-11" points="86.47 102.39 83.48 93.44 92.45 96.42 86.47 102.39 86.47 102.39"/><g class="cls-6"><line class="cls-12" x1="134.19" y1="16.06" x2="1.09" y2="149.01"/><g class="cls-6"><path class="cls-13" d="M103.39,29.84C98,18.39,102,10.63,112.33,12.52s23,12.71,28.39,24.16,1.36,19.21-8.95,17.32a23.27,23.27,0,0,1-3.88-1.09" transform="translate(-0.32 -0.12)"/><polygon class="cls-14" points="127.25 55.74 123.3 50.85 129.59 50.62 127.25 55.74 127.25 55.74"/><g class="cls-6"><path class="cls-8" d="M268,83.35a53.17,53.17,0,1,1,53.17,53.46A53.31,53.31,0,0,1,268,83.35Z" transform="translate(-0.32 -0.12)"/><g class="cls-6"><path class="cls-9" d="M332.05,20.14a133,133,0,0,1,57.89,63.94" transform="translate(-0.32 -0.12)"/><g class="cls-6"><path class="cls-9" d="M332.2,145.78a133,133,0,0,0,57.74-63.85" transform="translate(-0.32 -0.12)"/><g class="cls-6"><path class="cls-9" d="M309.51,20.14a133,133,0,0,0-57.89,63.94" transform="translate(-0.32 -0.12)"/><g class="cls-6"><path class="cls-9" d="M309.35,145.78a132.92,132.92,0,0,1-57.73-63.85" transform="translate(-0.32 -0.12)"/><g class="cls-6"><line class="cls-10" x1="358.53" y1="45.6" x2="339.17" y2="64.94"/><polygon class="cls-11" points="337.18 60.96 334.19 69.91 343.15 66.93 337.18 60.96 337.18 60.96"/><g class="cls-6"><line class="cls-15" x1="253.91" y1="16.06" x2="387.01" y2="148.99"/><g class="cls-6"><path class="cls-16" d="M264.37,50.08c-11.47,5.36-19.23,1.36-17.34-8.94s12.72-23,24.18-28.35,19.23-1.36,17.34,8.94a24.09,24.09,0,0,1-1.08,3.87" transform="translate(-0.32 -0.12)"/><polygon class="cls-17" points="290.1 25.8 285.19 29.75 284.97 23.47 290.1 25.8 290.1 25.8"/><g class="cls-6"><g class="cls-18"><text class="cls-19" transform="translate(44.91 176.03)">S<tspan class="cls-20" x="11.26" y="0">t</tspan><tspan x="16.17" y="0">r</tspan><tspan class="cls-21" x="21.79" y="0">o</tspan><tspan class="cls-22" x="30.94" y="0">n</tspan><tspan x="40.79" y="0">g</tspan></text></g><g class="cls-6"><g class="cls-18"><text class="cls-19" transform="translate(295.51 176.03)"><tspan class="cls-23">W</tspan><tspan class="cls-21" x="16.17" y="0">ea</tspan><tspan x="34.48" y="0">k</tspan></text></g><g class="cls-6"><polygon class="cls-24" points="190.17 90.97 203.55 90.97 203.55 77.61 203.55 77.61 203.55 90.97 216.94 90.97 216.94 90.97 203.55 90.97 203.55 104.34 203.55 104.34 203.55 90.97 190.17 90.97 190.17 90.97 190.17 90.97"/><polygon class="cls-25" points="190.17 90.97 203.55 90.97 203.55 77.61 203.55 77.61 203.55 90.97 216.94 90.97 216.94 90.97 203.55 90.97 203.55 104.34 203.55 104.34 203.55 90.97 190.17 90.97 190.17 90.97 190.17 90.97"/></g></g></g></g></g></g></g></g></g></g></g></g></g></g></g></g></g></g></g></g></g></g></svg>