<svg xmlns="http://www.w3.org/2000/svg" xmlns:xlink="http://www.w3.org/1999/xlink" viewBox="0 0 554.23 207.51"><defs><style>.cls-1,.cls-10,.cls-12,.cls-2,.cls-21,.cls-3,.cls-5,.cls-8,.cls-9{fill:none;}.cls-1{clip-rule:evenodd;}.cls-11,.cls-2,.cls-22,.cls-4,.cls-7{fill-rule:evenodd;}.cls-4{fill:#fff;}.cls-5,.cls-8,.cls-9{stroke:#000;}.cls-10,.cls-12,.cls-21,.cls-5,.cls-8,.cls-9{stroke-linejoin:round;}.cls-12,.cls-5{stroke-width:1.88px;}.cls-6{clip-path:url(#clip-path);}.cls-8{stroke-width:1.41px;}.cls-10,.cls-21,.cls-9{stroke-width:2.81px;}.cls-10{stroke:#ed2024;}.cls-11{fill:#ed2024;}.cls-12{stroke:#7f7f7f;}.cls-13{clip-path:url(#clip-path-14);}.cls-14{font-size:16.88px;font-family:TimesNewRomanPS-ItalicMT, Times New Roman;font-style:italic;}.cls-15{letter-spacing:-0.01em;}.cls-16{letter-spacing:0.01em;}.cls-17{letter-spacing:0.03em;}.cls-18{letter-spacing:0.01em;}.cls-19{letter-spacing:-0.01em;}.cls-20{letter-spacing:0.01em;}.cls-21{stroke:#3953a4;}.cls-22{fill:#3953a4;}.cls-23{letter-spacing:0em;}.cls-24{clip-path:url(#clip-path-31);}</style><clipPath id="clip-path"><polygon class="cls-1" points="0 207.51 554.23 207.51 554.23 0 0 0 0 207.51 0 207.51"/></clipPath><clipPath id="clip-path-14"><rect class="cls-3" width="554.23" height="207.51"/></clipPath><clipPath id="clip-path-31"><polygon class="cls-1" points="0 143.85 141.55 143.85 141.55 14.42 0 14.42 0 143.85 0 143.85"/></clipPath></defs><g id="Layer_2" data-name="Layer 2"><g id="Layer_1-2" data-name="Layer 1"><path class="cls-4" d="M5.28,14.42A13.38,13.38,0,1,1,18.66,27.78,13.37,13.37,0,0,1,5.28,14.42Z"/><path class="cls-5" d="M5.28,14.42A13.38,13.38,0,1,1,18.66,27.78,13.37,13.37,0,0,1,5.28,14.42Z"/><g class="cls-6"><path class="cls-7" d="M13.73,14.07A5.29,5.29,0,1,1,19,19.34a5.28,5.28,0,0,1-5.28-5.27Z"/><path class="cls-5" d="M13.73,14.07A5.29,5.29,0,1,1,19,19.34a5.28,5.28,0,0,1-5.28-5.27Z"/><g class="cls-6"><path class="cls-4" d="M416.55,14.42a13.38,13.38,0,1,1,13.38,13.36,13.37,13.37,0,0,1-13.38-13.36Z"/><path class="cls-5" d="M416.55,14.42a13.38,13.38,0,1,1,13.38,13.36,13.37,13.37,0,0,1-13.38-13.36Z"/><g class="cls-6"><line class="cls-8" x1="420.43" y1="4.92" x2="439.25" y2="23.72"/><g class="cls-6"><line class="cls-8" x1="439.25" y1="4.92" x2="420.43" y2="23.72"/><g class="cls-6"><path class="cls-9" d="M281.34,17.32a133,133,0,0,1,57.89,63.94"/><g class="cls-6"><path class="cls-9" d="M281.5,143.67a132.92,132.92,0,0,0,57.73-63.85"/><g class="cls-6"><path class="cls-9" d="M259.51,17.32a133,133,0,0,0-57.89,63.94"/><g class="cls-6"><path class="cls-9" d="M259.35,143.67a132.92,132.92,0,0,1-57.73-63.85"/><g class="cls-6"><line class="cls-10" x1="233.1" y1="42.91" x2="252.46" y2="62.24"/><polygon class="cls-11" points="254.45 58.26 257.44 67.22 248.47 64.23 254.45 58.26 254.45 58.26"/><g class="cls-6"><line class="cls-10" x1="308.14" y1="117.86" x2="288.79" y2="98.53"/><polygon class="cls-11" points="286.79 102.51 283.81 93.55 292.77 96.54 286.79 102.51 286.79 102.51"/><g class="cls-6"><path class="cls-12" d="M217.26,80.89A53.52,53.52,0,1,1,270.78,134a53.32,53.32,0,0,1-53.52-53.11Z"/><g class="cls-6"><line class="cls-10" x1="297.19" y1="159.67" x2="316.76" y2="159.67"/><polygon class="cls-11" points="315.36 155.45 323.81 159.68 315.36 163.9 315.36 155.45 315.36 155.45"/><g class="cls-6"><g class="cls-13"><text class="cls-14" transform="translate(330.43 165.8)"><tspan class="cls-15">H</tspan><tspan class="cls-16" x="11.97" y="0">e</tspan><tspan class="cls-17" x="19.7" y="0">r</tspan><tspan class="cls-18" x="26.73" y="0">t</tspan><tspan class="cls-19" x="31.64" y="0">z</tspan><tspan class="cls-20" x="37.97" y="0">i</tspan><tspan x="42.88" y="0">an</tspan></text></g><g class="cls-6"><line class="cls-21" x1="297.19" y1="186.4" x2="316.76" y2="186.4"/><polygon class="cls-22" points="315.36 182.18 323.81 186.4 315.36 190.62 315.36 182.18 315.36 182.18"/><g class="cls-6"><g class="cls-13"><text class="cls-14" transform="translate(330.43 192.4)">Cou<tspan class="cls-20" x="28.14" y="0">l</tspan><tspan x="33.05" y="0">o</tspan><tspan class="cls-15" x="41.49" y="0">m</tspan><tspan class="cls-23" x="53.46" y="0">b</tspan></text></g><g class="cls-6"><path class="cls-12" d="M430.64,80.89A53.17,53.17,0,1,1,483.81,134a53.14,53.14,0,0,1-53.17-53.11Z"/><g class="cls-6"><path class="cls-9" d="M494.73,17.32a133,133,0,0,1,57.89,63.94"/><g class="cls-6"><path class="cls-9" d="M494.88,143.67a133,133,0,0,0,57.74-63.85"/><g class="cls-6"><path class="cls-9" d="M472.19,17.32a133,133,0,0,0-57.9,63.94"/><g class="cls-6"><path class="cls-9" d="M472,143.67a133,133,0,0,1-57.74-63.85"/><g class="cls-6"><line class="cls-10" x1="445.78" y1="42.91" x2="465.14" y2="62.24"/><polygon class="cls-11" points="467.13 58.26 470.12 67.22 461.15 64.23 467.13 58.26 467.13 58.26"/><g class="cls-6"><line class="cls-21" x1="445.78" y1="43.38" x2="456.77" y2="32.41"/><polygon class="cls-22" points="458.76 36.39 461.75 27.43 452.79 30.42 458.76 36.39 458.76 36.39"/><g class="cls-6"><line class="cls-10" x1="520.82" y1="117.86" x2="501.46" y2="98.53"/><polygon class="cls-11" points="499.47 102.51 496.48 93.55 505.45 96.54 499.47 102.51 499.47 102.51"/><g class="cls-6"><line class="cls-21" x1="521.13" y1="117.95" x2="532.12" y2="106.97"/><polygon class="cls-22" points="534.11 110.95 537.1 102 528.14 104.98 534.11 110.95 534.11 110.95"/><g class="cls-6"><line class="cls-10" x1="520.82" y1="42.91" x2="501.46" y2="62.24"/><polygon class="cls-11" points="499.47 58.26 496.48 67.22 505.45 64.23 499.47 58.26 499.47 58.26"/><g class="cls-6"><g class="cls-6"><g class="cls-6"><polygon class="cls-3" points="0 207.51 554.23 207.51 554.23 0 0 0 0 207.51 0 207.51"/></g></g></g></g></g></g></g></g></g></g></g></g></g></g></g></g></g></g></g></g></g></g></g></g></g></g></g></g><path class="cls-12" d="M18,79.84a53.17,53.17,0,1,1,53.17,53.1A53.14,53.14,0,0,1,18,79.84Z"/><g class="cls-24"><path class="cls-9" d="M82.05,16.27a133,133,0,0,1,57.89,63.94"/><g class="cls-24"><path class="cls-9" d="M82.2,142.62a133.06,133.06,0,0,0,57.74-63.86"/><g class="cls-24"><path class="cls-9" d="M59.51,16.27A133,133,0,0,0,1.61,80.21"/><g class="cls-24"><path class="cls-9" d="M59.35,142.62A133.06,133.06,0,0,1,1.61,78.76"/><g class="cls-24"><line class="cls-10" x1="33.1" y1="41.85" x2="52.46" y2="61.19"/><polygon class="cls-11" points="54.45 57.21 57.44 66.16 48.47 63.18 54.45 57.21 54.45 57.21"/><g class="cls-24"><line class="cls-21" x1="32.87" y1="41.85" x2="21.88" y2="52.83"/><polygon class="cls-22" points="19.89 48.85 16.9 57.8 25.86 54.82 19.89 48.85 19.89 48.85"/><g class="cls-24"><line class="cls-10" x1="108.14" y1="116.81" x2="88.78" y2="97.47"/><polygon class="cls-11" points="86.79 101.45 83.8 92.5 92.77 95.48 86.79 101.45 86.79 101.45"/><g class="cls-24"><line class="cls-10" x1="33.1" y1="117.24" x2="53.6" y2="96.77"/><polygon class="cls-11" points="55.59 100.75 58.58 91.8 49.61 94.78 55.59 100.75 55.59 100.75"/></g></g></g></g></g></g></g></g></g></g></svg>