<svg xmlns="http://www.w3.org/2000/svg" xmlns:xlink="http://www.w3.org/1999/xlink" viewBox="0 0 75.47 38.16"><defs><style>.cls-1,.cls-2,.cls-3{fill:none;}.cls-1{clip-rule:evenodd;}.cls-2,.cls-5{fill-rule:evenodd;}.cls-3{stroke:#497ebc;stroke-linejoin:round;stroke-width:0.7px;}.cls-4{clip-path:url(#clip-path);}</style><clipPath id="clip-path" transform="translate(-0.11 -0.4)"><polygon class="cls-1" points="0 38.69 76.06 38.69 76.06 0 0 0 0 38.69 0 38.69"/></clipPath></defs><g id="Layer_2" data-name="Layer 2"><g id="Layer_1-2" data-name="Layer 1"><path class="cls-3" d="M.57,24.43c11.37,2.93,20.22,7.79,24.93,13.7" transform="translate(-0.11 -0.4)"/><g class="cls-4"><path class="cls-3" d="M13,12.58C30.05,17,43.34,24.34,50.4,33.24" transform="translate(-0.11 -0.4)"/><g class="cls-4"><line class="cls-3" x1="0.24" y1="24.22" x2="24.92" y2="0.65"/><g class="cls-4"><line class="cls-3" x1="25.6" y1="37.82" x2="75.14" y2="28.09"/><g class="cls-4"><path class="cls-3" d="M25.38.74C48.16,6.65,65.89,16.46,75.31,28.35" transform="translate(-0.11 -0.4)"/><g class="cls-4"><line class="cls-3" x1="13.62" y1="28.44" x2="50.95" y2="9.8"/><g class="cls-4"><path class="cls-5" d="M28.87,10.55A1.41,1.41,0,1,1,30.28,12a1.41,1.41,0,0,1-1.41-1.41Z" transform="translate(-0.11 -0.4)"/><g class="cls-4"><path class="cls-5" d="M50,21.81a1.41,1.41,0,1,1,1.41,1.4A1.41,1.41,0,0,1,50,21.81Z" transform="translate(-0.11 -0.4)"/><g class="cls-4"><path class="cls-5" d="M28.87,29.54A1.41,1.41,0,1,1,30.28,31a1.41,1.41,0,0,1-1.41-1.41Z" transform="translate(-0.11 -0.4)"/><g class="cls-4"><path class="cls-5" d="M12.68,20.4a1.41,1.41,0,1,1,1.4,1.41,1.41,1.41,0,0,1-1.4-1.41Z" transform="translate(-0.11 -0.4)"/></g></g></g></g></g></g></g></g></g></g></g></svg>