<svg xmlns="http://www.w3.org/2000/svg" xmlns:xlink="http://www.w3.org/1999/xlink" viewBox="0 0 102.08 53.66"><defs><style>.cls-1,.cls-2,.cls-3{stroke:#231f20;stroke-miterlimit:10;}.cls-1{fill:url(#linear-gradient);}.cls-2,.cls-3{fill:none;}.cls-3{stroke-width:0.5px;}.cls-4{fill:#231f20;}</style><linearGradient id="linear-gradient" x1="1.67" y1="28.16" x2="99.38" y2="28.16" gradientUnits="userSpaceOnUse"><stop offset="0" stop-color="#445eaa"/><stop offset="0.13" stop-color="#00c0e7"/><stop offset="0.25" stop-color="#25b24b"/><stop offset="0.38" stop-color="#dcd925"/><stop offset="0.5" stop-color="#ed1c24"/><stop offset="0.63" stop-color="#dade25"/><stop offset="0.75" stop-color="#00b14c"/><stop offset="0.88" stop-color="#00c1e9"/><stop offset="1" stop-color="#4657a7"/></linearGradient></defs><g id="Layer_2" data-name="Layer 2"><g id="Layer_3" data-name="Layer 3"><ellipse class="cls-1" cx="50.5" cy="28.16" rx="50" ry="25"/><line class="cls-2" x1="6.75" y1="15.66" x2="6.75" y2="40.66"/><line class="cls-2" x1="19.25" y1="8.16" x2="19.25" y2="48.16"/><line class="cls-2" x1="31.75" y1="5.16" x2="31.75" y2="51.16"/><line class="cls-2" x1="44.25" y1="3.16" x2="44.25" y2="53.16"/><line class="cls-2" x1="56.75" y1="3.16" x2="56.75" y2="53.16"/><line class="cls-2" x1="69.25" y1="5.16" x2="69.25" y2="51.16"/><line class="cls-2" x1="81.75" y1="8.16" x2="81.75" y2="48.16"/><line class="cls-2" x1="94.25" y1="15.66" x2="94.25" y2="40.66"/><line class="cls-3" x1="13" y1="28.16" x2="25.5" y2="21.91"/><path class="cls-4" d="M13.84,29.84a1.88,1.88,0,1,1,.84-2.52A1.88,1.88,0,0,1,13.84,29.84Z"/><polygon class="cls-4" points="28.66 20.33 25.12 24.37 25.26 22.03 23.3 20.74 28.66 20.33"/><line class="cls-3" x1="38" y1="28.16" x2="50.5" y2="15.66"/><path class="cls-4" d="M39.33,29.49a1.88,1.88,0,1,1,0-2.66A1.89,1.89,0,0,1,39.33,29.49Z"/><polygon class="cls-4" points="53 13.16 50.92 18.12 50.31 15.84 48.04 15.24 53 13.16"/><line class="cls-3" x1="63" y1="28.16" x2="75.5" y2="9.41"/><path class="cls-4" d="M64.56,29.2A1.88,1.88,0,1,1,64,26.59,1.87,1.87,0,0,1,64.56,29.2Z"/><polygon class="cls-4" points="77.46 6.47 76.39 11.74 75.35 9.63 73.01 9.48 77.46 6.47"/><line class="cls-3" x1="88" y1="28.16" x2="100.5" y2="3.16"/><path class="cls-4" d="M89.68,29a1.88,1.88,0,1,1-.84-2.52A1.88,1.88,0,0,1,89.68,29Z"/><polygon class="cls-4" points="102.08 0 101.67 5.36 100.38 3.39 98.04 3.54 102.08 0"/></g></g></svg>