<svg xmlns="http://www.w3.org/2000/svg" xmlns:xlink="http://www.w3.org/1999/xlink" viewBox="0 0 101 60.1"><defs><style>.cls-1,.cls-2{stroke:#231f20;stroke-miterlimit:10;}.cls-1{fill:url(#radial-gradient);}.cls-2{fill:none;stroke-width:0.5px;}.cls-3{fill:#231f20;}</style><radialGradient id="radial-gradient" cx="50.5" cy="-15.4" r="50.14" gradientTransform="translate(0 42.35) scale(1 0.5)" gradientUnits="userSpaceOnUse"><stop offset="0" stop-color="#ed1c24"/><stop offset="0.25" stop-color="#d9e021"/><stop offset="0.5" stop-color="#00b14c"/><stop offset="0.75" stop-color="#00c1e9"/><stop offset="1" stop-color="#4657a7"/></radialGradient></defs><g id="Layer_2" data-name="Layer 2"><g id="Layer_3" data-name="Layer 3"><ellipse class="cls-1" cx="50.5" cy="34.6" rx="50" ry="25"/><line class="cls-2" x1="25.5" y1="22.1" x2="31.75" y2="15.85"/><path class="cls-3" d="M26.83,23.43a1.88,1.88,0,1,1,0-2.66A1.89,1.89,0,0,1,26.83,23.43Z"/><polygon class="cls-3" points="34.25 13.35 32.17 18.31 31.56 16.04 29.29 15.43 34.25 13.35"/><line class="cls-2" x1="50.5" y1="22.1" x2="56.75" y2="9.6"/><path class="cls-3" d="M52.18,22.94a1.88,1.88,0,1,1-.84-2.52A1.88,1.88,0,0,1,52.18,22.94Z"/><polygon class="cls-3" points="58.33 6.44 57.92 11.8 56.63 9.84 54.29 9.98 58.33 6.44"/><line class="cls-2" x1="75.5" y1="22.1" x2="81.75" y2="3.35"/><path class="cls-3" d="M77.28,22.69a1.88,1.88,0,1,1-1.19-2.37A1.87,1.87,0,0,1,77.28,22.69Z"/><polygon class="cls-3" points="82.87 0 83.22 5.36 81.67 3.6 79.36 4.08 82.87 0"/><line class="cls-2" x1="25.5" y1="34.6" x2="38" y2="28.35"/><path class="cls-3" d="M26.34,36.28a1.88,1.88,0,1,1,.84-2.52A1.88,1.88,0,0,1,26.34,36.28Z"/><polygon class="cls-3" points="41.16 26.77 37.62 30.81 37.76 28.47 35.8 27.18 41.16 26.77"/><line class="cls-2" x1="50.5" y1="34.6" x2="63" y2="22.1"/><path class="cls-3" d="M51.83,35.93a1.88,1.88,0,1,1,0-2.66A1.89,1.89,0,0,1,51.83,35.93Z"/><polygon class="cls-3" points="65.5 19.6 63.42 24.56 62.81 22.29 60.54 21.68 65.5 19.6"/><line class="cls-2" x1="75.5" y1="34.6" x2="88" y2="15.85"/><path class="cls-3" d="M77.06,35.64A1.87,1.87,0,1,1,76.54,33,1.86,1.86,0,0,1,77.06,35.64Z"/><polygon class="cls-3" points="89.96 12.91 88.89 18.18 87.85 16.07 85.51 15.92 89.96 12.91"/><line class="cls-2" x1="25.5" y1="47.1" x2="44.25" y2="40.85"/><path class="cls-3" d="M26.09,48.88a1.88,1.88,0,1,1,1.19-2.38A1.87,1.87,0,0,1,26.09,48.88Z"/><polygon class="cls-3" points="47.6 39.73 43.52 43.23 44 40.93 42.24 39.38 47.6 39.73"/><line class="cls-2" x1="50.5" y1="47.1" x2="69.25" y2="34.6"/><path class="cls-3" d="M51.54,48.66a1.88,1.88,0,1,1,.52-2.6A1.86,1.86,0,0,1,51.54,48.66Z"/><polygon class="cls-3" points="72.19 32.64 69.18 37.09 69.03 34.74 66.92 33.71 72.19 32.64"/><line class="cls-2" x1="75.5" y1="47.1" x2="94.25" y2="28.35"/><path class="cls-3" d="M76.83,48.43a1.88,1.88,0,1,1,0-2.66A1.89,1.89,0,0,1,76.83,48.43Z"/><polygon class="cls-3" points="96.75 25.85 94.67 30.81 94.06 28.54 91.79 27.93 96.75 25.85"/></g></g></svg>