<svg xmlns="http://www.w3.org/2000/svg" xmlns:xlink="http://www.w3.org/1999/xlink" viewBox="0 0 553.59 197.45"><defs><style>.cls-1,.cls-17,.cls-2,.cls-21,.cls-23,.cls-3,.cls-4,.cls-6,.cls-8{fill:none;}.cls-1{clip-rule:evenodd;}.cls-18,.cls-2,.cls-20,.cls-22,.cls-7{fill-rule:evenodd;}.cls-21,.cls-23,.cls-4{stroke:#000;}.cls-17,.cls-21,.cls-23,.cls-4,.cls-6,.cls-8{stroke-linejoin:round;}.cls-17,.cls-4,.cls-6{stroke-width:2.81px;}.cls-5{clip-path:url(#clip-path);}.cls-6{stroke:#ed2024;}.cls-7{fill:#ed2024;}.cls-8{stroke:#7f7f7f;}.cls-21,.cls-8{stroke-width:1.88px;}.cls-9{clip-path:url(#clip-path-7);}.cls-10{font-size:16.88px;font-family:TimesNewRomanPS-ItalicMT, Times New Roman;font-style:italic;}.cls-11{letter-spacing:-0.01em;}.cls-12{letter-spacing:0.01em;}.cls-13{letter-spacing:0.03em;}.cls-14{letter-spacing:0.01em;}.cls-15{letter-spacing:-0.01em;}.cls-16{letter-spacing:0.01em;}.cls-17{stroke:#3953a4;}.cls-18{fill:#3953a4;}.cls-19{letter-spacing:0em;}.cls-20{fill:#fff;}.cls-23{stroke-width:1.41px;}</style><clipPath id="clip-path" transform="translate(-0.32 -0.12)"><polygon class="cls-1" points="0 207.51 554.23 207.51 554.23 0 0 0 0 207.51 0 207.51"/></clipPath><clipPath id="clip-path-7" transform="translate(-0.32 -0.12)"><rect class="cls-3" width="554.23" height="207.51"/></clipPath></defs><g id="Layer_2" data-name="Layer 2"><g id="Layer_1-2" data-name="Layer 1"><path class="cls-4" d="M281.5,143.67a132.92,132.92,0,0,0,57.73-63.85" transform="translate(-0.32 -0.12)"/><g class="cls-5"><path class="cls-4" d="M259.51,17.32a133,133,0,0,0-57.89,63.94" transform="translate(-0.32 -0.12)"/><g class="cls-5"><line class="cls-6" x1="232.78" y1="42.79" x2="252.14" y2="62.13"/><polygon class="cls-7" points="254.13 58.15 257.12 67.1 248.15 64.11 254.13 58.15 254.13 58.15"/><g class="cls-5"><line class="cls-6" x1="307.82" y1="117.74" x2="288.46" y2="98.41"/><polygon class="cls-7" points="286.47 102.39 283.49 93.44 292.45 96.42 286.47 102.39 286.47 102.39"/><g class="cls-5"><path class="cls-8" d="M217.26,80.89A53.52,53.52,0,1,1,270.78,134a53.32,53.32,0,0,1-53.52-53.11Z" transform="translate(-0.32 -0.12)"/><g class="cls-5"><line class="cls-6" x1="296.87" y1="159.56" x2="316.44" y2="159.56"/><polygon class="cls-7" points="315.03 155.34 323.49 159.56 315.03 163.78 315.03 155.34 315.03 155.34"/><g class="cls-5"><g class="cls-9"><text class="cls-10" transform="translate(330.11 165.68)"><tspan class="cls-11">H</tspan><tspan class="cls-12" x="11.97" y="0">e</tspan><tspan class="cls-13" x="19.7" y="0">r</tspan><tspan class="cls-14" x="26.73" y="0">t</tspan><tspan class="cls-15" x="31.64" y="0">z</tspan><tspan class="cls-16" x="37.97" y="0">i</tspan><tspan x="42.88" y="0">an</tspan></text></g><g class="cls-5"><line class="cls-17" x1="296.87" y1="186.29" x2="316.44" y2="186.29"/><polygon class="cls-18" points="315.03 182.07 323.49 186.29 315.03 190.51 315.03 182.07 315.03 182.07"/><g class="cls-5"><g class="cls-9"><text class="cls-10" transform="translate(330.11 192.28)">Cou<tspan class="cls-16" x="28.14" y="0">l</tspan><tspan x="33.05" y="0">o</tspan><tspan class="cls-11" x="41.49" y="0">m</tspan><tspan class="cls-19" x="53.46" y="0">b</tspan></text></g><g class="cls-5"><path class="cls-8" d="M430.64,80.89A53.17,53.17,0,1,1,483.81,134a53.14,53.14,0,0,1-53.17-53.11Z" transform="translate(-0.32 -0.12)"/><g class="cls-5"><path class="cls-4" d="M494.88,143.67a133,133,0,0,0,57.74-63.85" transform="translate(-0.32 -0.12)"/><g class="cls-5"><path class="cls-4" d="M472.19,17.32a133,133,0,0,0-57.9,63.94" transform="translate(-0.32 -0.12)"/><g class="cls-5"><line class="cls-6" x1="457.43" y1="35.05" x2="467.09" y2="60.39"/><polygon class="cls-7" points="470.54 57.57 469.6 66.96 462.64 60.58 470.54 57.57 470.54 57.57"/><g class="cls-5"><line class="cls-17" x1="456.73" y1="35.29" x2="471.06" y2="29.82"/><polygon class="cls-18" points="471.25 34.27 477.64 27.32 468.24 26.38 471.25 34.27 471.25 34.27"/><g class="cls-5"><line class="cls-6" x1="528.48" y1="106.73" x2="502.67" y2="96.11"/><polygon class="cls-7" points="502.37 100.55 496.16 93.44 505.59 92.75 502.37 100.55 502.37 100.55"/><g class="cls-5"><line class="cls-17" x1="528.56" y1="106.81" x2="533.63" y2="93.67"/><polygon class="cls-18" points="537.07 96.5 536.17 87.11 529.18 93.46 537.07 96.5 537.07 96.5"/><g class="cls-5"><path class="cls-8" d="M124.3,80.89A53.17,53.17,0,1,1,71.13,27.78,53.14,53.14,0,0,1,124.3,80.89Z" transform="translate(-0.32 -0.12)"/><g class="cls-5"><path class="cls-4" d="M59.35,17.41A133,133,0,0,0,1.61,81.26" transform="translate(-0.32 -0.12)"/><g class="cls-5"><path class="cls-4" d="M82.05,143.76a133,133,0,0,0,57.89-63.94" transform="translate(-0.32 -0.12)"/><g class="cls-5"><line class="cls-6" x1="95.65" y1="125.34" x2="85.99" y2="100.01"/><polygon class="cls-7" points="82.54 102.83 83.48 93.44 90.44 99.82 82.54 102.83 82.54 102.83"/><g class="cls-5"><line class="cls-17" x1="97.35" y1="125.79" x2="83.02" y2="131.26"/><polygon class="cls-18" points="82.83 126.81 76.44 133.77 85.84 134.7 82.83 126.81 82.83 126.81"/><g class="cls-5"><line class="cls-6" x1="25.03" y1="54.05" x2="50.84" y2="64.66"/><polygon class="cls-7" points="51.15 60.22 57.35 67.34 47.93 68.03 51.15 60.22 51.15 60.22"/><g class="cls-5"><line class="cls-17" x1="24.89" y1="54.05" x2="19.82" y2="67.18"/><polygon class="cls-18" points="16.38 64.35 17.29 73.75 24.27 67.39 16.38 64.35 16.38 64.35"/><g class="cls-5"><path class="cls-20" d="M5.28,14.42A13.38,13.38,0,1,1,18.66,27.78,13.37,13.37,0,0,1,5.28,14.42Z" transform="translate(-0.32 -0.12)"/><path class="cls-21" d="M5.28,14.42A13.38,13.38,0,1,1,18.66,27.78,13.37,13.37,0,0,1,5.28,14.42Z" transform="translate(-0.32 -0.12)"/><g class="cls-5"><path class="cls-22" d="M13.73,14.07A5.29,5.29,0,1,1,19,19.34a5.28,5.28,0,0,1-5.28-5.27Z" transform="translate(-0.32 -0.12)"/><path class="cls-21" d="M13.73,14.07A5.29,5.29,0,1,1,19,19.34a5.28,5.28,0,0,1-5.28-5.27Z" transform="translate(-0.32 -0.12)"/><g class="cls-5"><path class="cls-20" d="M416.55,14.42a13.38,13.38,0,1,1,13.38,13.36,13.37,13.37,0,0,1-13.38-13.36Z" transform="translate(-0.32 -0.12)"/><path class="cls-21" d="M416.55,14.42a13.38,13.38,0,1,1,13.38,13.36,13.37,13.37,0,0,1-13.38-13.36Z" transform="translate(-0.32 -0.12)"/><g class="cls-5"><line class="cls-23" x1="420.11" y1="4.81" x2="438.93" y2="23.61"/><g class="cls-5"><line class="cls-23" x1="438.93" y1="4.81" x2="420.11" y2="23.61"/></g></g></g></g></g></g></g></g></g></g></g></g></g></g></g></g></g></g></g></g></g></g></g></g></g></g></g></g></g></svg>