<svg xmlns="http://www.w3.org/2000/svg" xmlns:xlink="http://www.w3.org/1999/xlink" viewBox="0 0 138.35 193.05"><defs><style>.cls-1,.cls-11,.cls-12,.cls-2,.cls-3,.cls-5,.cls-7,.cls-8,.cls-9{fill:none;}.cls-1{clip-rule:evenodd;}.cls-10,.cls-13,.cls-2,.cls-6{fill-rule:evenodd;}.cls-11,.cls-3,.cls-9{stroke:#000;}.cls-12,.cls-3,.cls-5,.cls-7,.cls-8,.cls-9{stroke-linejoin:round;}.cls-3,.cls-5,.cls-8{stroke-width:2.81px;}.cls-4{clip-path:url(#clip-path);}.cls-5{stroke:#ed2024;}.cls-6{fill:#ed2024;}.cls-7{stroke:#7f7f7f;stroke-width:1.88px;}.cls-12,.cls-8{stroke:#00b04f;}.cls-8{stroke-dasharray:152400 114300;}.cls-9{stroke-width:0.7px;}.cls-11{stroke-miterlimit:8;stroke-width:1.88px;}.cls-12{stroke-width:1.41px;}.cls-13{fill:#00b04f;}</style><clipPath id="clip-path" transform="translate(-0.06 -0.7)"><polygon class="cls-1" points="0 194.14 138.73 194.14 138.73 0 0 0 0 194.14 0 194.14"/></clipPath></defs><g id="Layer_2" data-name="Layer 2"><g id="Layer_1-2" data-name="Layer 1"><path class="cls-3" d="M79.23,31.39a133,133,0,0,1,57.89,63.94" transform="translate(-0.06 -0.7)"/><g class="cls-4"><path class="cls-3" d="M79.38,157.74a133,133,0,0,0,57.74-63.85" transform="translate(-0.06 -0.7)"/><g class="cls-4"><path class="cls-3" d="M28.28,40.88A132.83,132.83,0,0,0,1.47,117" transform="translate(-0.06 -0.7)"/><g class="cls-4"><line class="cls-5" x1="14.73" y1="80.19" x2="47.97" y2="91.26"/><polygon class="cls-6" points="47.98 86.81 54.66 93.48 45.3 94.82 47.98 86.81 47.98 86.81"/><g class="cls-4"><line class="cls-5" x1="105.96" y1="131.23" x2="86.61" y2="111.89"/><polygon class="cls-6" points="84.61 115.87 81.63 106.92 90.59 109.91 84.61 115.87 84.61 115.87"/><g class="cls-4"><path class="cls-7" d="M15.14,95a53.17,53.17,0,1,1,53.17,53.11A53.14,53.14,0,0,1,15.14,95Z" transform="translate(-0.06 -0.7)"/><g class="cls-4"><line class="cls-5" x1="105.77" y1="56.27" x2="98.58" y2="63.45"/><polygon class="cls-6" points="96.59 59.48 93.6 68.43 102.56 65.44 96.59 59.48 96.59 59.48"/><g class="cls-4"><line class="cls-8" x1="14.73" y1="0.71" x2="14.73" y2="186.8"/><g class="cls-4"><line class="cls-8" x1="105.57" y1="2.82" x2="105.57" y2="188.91"/><g class="cls-4"><line class="cls-8" x1="60.5" y1="2.82" x2="60.5" y2="188.91"/><g class="cls-4"><line class="cls-9" x1="1.7" y1="174.1" x2="121.49" y2="174.1"/><g class="cls-4"><path class="cls-9" d="M60.91,175.11c-.29,7.38-10.77,13.22-23.41,13s-22.65-6.29-22.35-13.67a1.09,1.09,0,0,1,0-.18" transform="translate(-0.06 -0.7)"/><g class="cls-4"><path class="cls-9" d="M107.39,175.11c-.3,7.38-11,13.22-23.78,13s-23-6.3-22.69-13.68a1.09,1.09,0,0,0,0-.18" transform="translate(-0.06 -0.7)"/><g class="cls-4"><path class="cls-10" d="M44.72,183.51v9.31H41.57v-9.31Zm-10.23,0v9.31H31.34v-9.31Z" transform="translate(-0.06 -0.7)"/><path class="cls-11" d="M44.72,183.51v9.31H41.57v-9.31Zm-10.23,0v9.31H31.34v-9.31Z" transform="translate(-0.06 -0.7)"/><g class="cls-4"><path class="cls-10" d="M90.49,183.51v9.31h-3v-9.31Zm-9.69,0v9.31h-3v-9.31Z" transform="translate(-0.06 -0.7)"/><path class="cls-11" d="M90.49,183.51v9.31h-3v-9.31Zm-9.69,0v9.31h-3v-9.31Z" transform="translate(-0.06 -0.7)"/><g class="cls-4"><path class="cls-12" d="M45.29,25.54C33.53,21.18,31,12.81,39.63,6.86S64.79-.37,76.55,4,90.83,16.73,82.2,22.68A22,22,0,0,1,79,24.52" transform="translate(-0.06 -0.7)"/><polygon class="cls-13" points="80.79 26.12 74.52 25.51 78.77 20.86 80.79 26.12 80.79 26.12"/></g></g></g></g></g></g></g></g></g></g></g></g></g></g></g></g></g></svg>