<svg xmlns="http://www.w3.org/2000/svg" xmlns:xlink="http://www.w3.org/1999/xlink" viewBox="0 0 564.65 207.51"><defs><style>.cls-1,.cls-17,.cls-2,.cls-21,.cls-24,.cls-3,.cls-4,.cls-6,.cls-8{fill:none;}.cls-1{clip-rule:evenodd;}.cls-18,.cls-2,.cls-20,.cls-23,.cls-7{fill-rule:evenodd;}.cls-21,.cls-24,.cls-4{stroke:#000;}.cls-17,.cls-21,.cls-24,.cls-4,.cls-6,.cls-8{stroke-linejoin:round;}.cls-17,.cls-4,.cls-6{stroke-width:2.81px;}.cls-5{clip-path:url(#clip-path);}.cls-6{stroke:#ed2024;}.cls-7{fill:#ed2024;}.cls-8{stroke:#7f7f7f;}.cls-21,.cls-8{stroke-width:1.88px;}.cls-9{clip-path:url(#clip-path-8);}.cls-10{font-size:16.88px;font-family:TimesNewRomanPS-ItalicMT, Times New Roman;font-style:italic;}.cls-11{letter-spacing:-0.01em;}.cls-12{letter-spacing:0.01em;}.cls-13{letter-spacing:0.03em;}.cls-14{letter-spacing:0.01em;}.cls-15{letter-spacing:-0.01em;}.cls-16{letter-spacing:0.01em;}.cls-17{stroke:#3953a4;}.cls-18{fill:#3953a4;}.cls-19{letter-spacing:0em;}.cls-20{fill:#fff;}.cls-22{clip-path:url(#clip-path-31);}.cls-24{stroke-width:1.41px;}</style><clipPath id="clip-path" transform="translate(-0.12)"><polygon class="cls-1" points="1.38 207.51 564.76 207.51 564.76 0 1.38 0 1.38 207.51 1.38 207.51"/></clipPath><clipPath id="clip-path-8" transform="translate(-0.12)"><rect class="cls-3" x="1.38" width="563.39" height="207.51"/></clipPath><clipPath id="clip-path-31" transform="translate(-0.12)"><polygon class="cls-1" points="0 29.17 440.14 29.17 440.14 0.33 0 0.33 0 29.17 0 29.17"/></clipPath></defs><g id="Layer_2" data-name="Layer 2"><g id="Layer_1-2" data-name="Layer 1"><path class="cls-4" d="M291.88,17.32a133,133,0,0,1,57.89,63.94" transform="translate(-0.12)"/><g class="cls-5"><path class="cls-4" d="M292,143.67a133,133,0,0,0,57.74-63.85" transform="translate(-0.12)"/><g class="cls-5"><path class="cls-4" d="M240.93,26.81a132.83,132.83,0,0,0-26.81,76.09" transform="translate(-0.12)"/><g class="cls-5"><line class="cls-6" x1="227.32" y1="66.82" x2="260.57" y2="77.89"/><polygon class="cls-7" points="260.57 73.44 267.25 80.12 257.9 81.45 260.57 73.44 260.57 73.44"/><g class="cls-5"><line class="cls-6" x1="318.56" y1="117.86" x2="299.2" y2="98.53"/><polygon class="cls-7" points="297.21 102.51 294.22 93.55 303.19 96.54 297.21 102.51 297.21 102.51"/><g class="cls-5"><path class="cls-8" d="M227.79,80.89A53.17,53.17,0,1,1,281,134a53.14,53.14,0,0,1-53.17-53.11Z" transform="translate(-0.12)"/><g class="cls-5"><line class="cls-6" x1="307.6" y1="159.67" x2="327.18" y2="159.67"/><polygon class="cls-7" points="325.77 155.45 334.22 159.68 325.77 163.9 325.77 155.45 325.77 155.45"/><g class="cls-5"><g class="cls-9"><text class="cls-10" transform="translate(340.77 165.8)"><tspan class="cls-11">H</tspan><tspan class="cls-12" x="11.97" y="0">e</tspan><tspan class="cls-13" x="19.7" y="0">r</tspan><tspan class="cls-14" x="26.73" y="0">t</tspan><tspan class="cls-15" x="31.64" y="0">z</tspan><tspan class="cls-16" x="37.97" y="0">i</tspan><tspan x="42.88" y="0">an</tspan></text></g><g class="cls-5"><line class="cls-17" x1="307.6" y1="186.4" x2="327.18" y2="186.4"/><polygon class="cls-18" points="325.77 182.18 334.22 186.4 325.77 190.62 325.77 182.18 325.77 182.18"/><g class="cls-5"><g class="cls-9"><text class="cls-10" transform="translate(340.77 192.4)">Cou<tspan class="cls-16" x="28.14" y="0">l</tspan><tspan x="33.05" y="0">o</tspan><tspan class="cls-11" x="41.49" y="0">m</tspan><tspan class="cls-19" x="53.46" y="0">b</tspan></text></g><g class="cls-5"><line class="cls-6" x1="318.36" y1="42.91" x2="311.17" y2="50.09"/><polygon class="cls-7" points="309.18 46.11 306.19 55.06 315.16 52.08 309.18 46.11 309.18 46.11"/><g class="cls-5"><path class="cls-4" d="M505.26,17.32a133,133,0,0,1,57.89,63.94" transform="translate(-0.12)"/><g class="cls-5"><path class="cls-4" d="M505.42,143.67a133,133,0,0,0,57.73-63.85" transform="translate(-0.12)"/><g class="cls-5"><path class="cls-4" d="M454.31,26.81A132.9,132.9,0,0,0,427.5,102.9" transform="translate(-0.12)"/><g class="cls-5"><line class="cls-6" x1="440.7" y1="66.82" x2="473.95" y2="77.89"/><polygon class="cls-7" points="473.95 73.44 480.63 80.12 471.28 81.45 473.95 73.44 473.95 73.44"/><g class="cls-5"><line class="cls-6" x1="531.24" y1="117.86" x2="511.88" y2="98.53"/><polygon class="cls-7" points="509.89 102.51 506.9 93.55 515.86 96.54 509.89 102.51 509.89 102.51"/><g class="cls-5"><path class="cls-8" d="M441.17,80.89A53.17,53.17,0,1,1,494.34,134a53.14,53.14,0,0,1-53.17-53.11Z" transform="translate(-0.12)"/><g class="cls-5"><line class="cls-17" x1="530.84" y1="117.95" x2="541.83" y2="106.97"/><polygon class="cls-18" points="543.83 110.95 546.81 102 537.85 104.98 543.83 110.95 543.83 110.95"/><g class="cls-5"><line class="cls-17" x1="440.7" y1="67.47" x2="444.94" y2="55.85"/><polygon class="cls-18" points="448.43 58.62 447.36 49.24 440.49 55.72 448.43 58.62 448.43 58.62"/><g class="cls-5"><line class="cls-6" x1="531.04" y1="42.91" x2="523.85" y2="50.09"/><polygon class="cls-7" points="521.86 46.11 518.87 55.06 527.84 52.08 521.86 46.11 521.86 46.11"/><g class="cls-5"><path class="cls-4" d="M92.58,17.32a133,133,0,0,1,57.89,63.94" transform="translate(-0.12)"/><g class="cls-5"><path class="cls-4" d="M92.74,143.67a133,133,0,0,0,57.73-63.85" transform="translate(-0.12)"/><g class="cls-5"><path class="cls-4" d="M41.63,26.81A132.9,132.9,0,0,0,14.82,102.9" transform="translate(-0.12)"/><g class="cls-5"><line class="cls-6" x1="28.02" y1="66.82" x2="61.27" y2="77.89"/><polygon class="cls-7" points="61.27 73.44 67.95 80.12 58.6 81.45 61.27 73.44 61.27 73.44"/><g class="cls-5"><line class="cls-6" x1="118.56" y1="117.86" x2="99.2" y2="98.53"/><polygon class="cls-7" points="97.21 102.51 94.22 93.55 103.18 96.54 97.21 102.51 97.21 102.51"/><g class="cls-5"><path class="cls-8" d="M28.49,80.89A53.17,53.17,0,1,1,81.66,134,53.14,53.14,0,0,1,28.49,80.89Z" transform="translate(-0.12)"/><g class="cls-5"><line class="cls-17" x1="118.64" y1="117.47" x2="107.65" y2="128.45"/><polygon class="cls-18" points="105.66 124.47 102.67 133.42 111.63 130.44 105.66 124.47 105.66 124.47"/><g class="cls-5"><line class="cls-17" x1="27.6" y1="66.82" x2="23.39" y2="78.35"/><polygon class="cls-18" points="19.9 75.58 20.98 84.96 27.84 78.47 19.9 75.58 19.9 75.58"/><g class="cls-5"><line class="cls-6" x1="119.06" y1="42.91" x2="111.88" y2="50.09"/><polygon class="cls-7" points="109.88 46.11 106.9 55.06 115.86 52.08 109.88 46.11 109.88 46.11"/><polygon class="cls-3" points="1.26 207.51 564.65 207.51 564.65 0 1.26 0 1.26 207.51 1.26 207.51"/></g></g></g></g></g></g></g></g></g></g></g></g></g></g></g></g></g></g></g></g></g></g></g></g></g></g></g></g><path class="cls-20" d="M1.06,14.75A13.38,13.38,0,1,1,14.44,28.12,13.37,13.37,0,0,1,1.06,14.75Z" transform="translate(-0.12)"/><path class="cls-21" d="M1.06,14.75A13.38,13.38,0,1,1,14.44,28.12,13.37,13.37,0,0,1,1.06,14.75Z" transform="translate(-0.12)"/><g class="cls-22"><path class="cls-23" d="M9.51,14.4a5.28,5.28,0,1,1,5.28,5.28A5.27,5.27,0,0,1,9.51,14.4Z" transform="translate(-0.12)"/><path class="cls-21" d="M9.51,14.4a5.28,5.28,0,1,1,5.28,5.28A5.27,5.27,0,0,1,9.51,14.4Z" transform="translate(-0.12)"/><g class="cls-22"><path class="cls-20" d="M412.33,14.75a13.38,13.38,0,1,1,13.38,13.37,13.37,13.37,0,0,1-13.38-13.37Z" transform="translate(-0.12)"/><path class="cls-21" d="M412.33,14.75a13.38,13.38,0,1,1,13.38,13.37,13.37,13.37,0,0,1-13.38-13.37Z" transform="translate(-0.12)"/><g class="cls-22"><line class="cls-24" x1="416.08" y1="5.26" x2="434.9" y2="24.06"/><g class="cls-22"><line class="cls-24" x1="434.9" y1="5.26" x2="416.08" y2="24.06"/></g></g></g></g></g></g></svg>