<svg xmlns="http://www.w3.org/2000/svg" xmlns:xlink="http://www.w3.org/1999/xlink" viewBox="0 0 115.96 53.66"><defs><style>.cls-1,.cls-2,.cls-3{stroke-miterlimit:10;}.cls-1{fill:url(#linear-gradient);stroke:url(#New_Gradient_Swatch_2);}.cls-2,.cls-3{fill:none;stroke:#231f20;}.cls-3{stroke-width:0.5px;}.cls-4{fill:#231f20;}</style><linearGradient id="linear-gradient" x1="3.05" y1="28.16" x2="100.76" y2="28.16" gradientUnits="userSpaceOnUse"><stop offset="0" stop-color="#445eaa"/><stop offset="0.13" stop-color="#00c0e7"/><stop offset="0.25" stop-color="#25b24b"/><stop offset="0.38" stop-color="#dcd925"/><stop offset="0.5" stop-color="#ed1c24"/><stop offset="0.63" stop-color="#dade25"/><stop offset="0.75" stop-color="#00b14c"/><stop offset="0.88" stop-color="#00c1e9"/><stop offset="1" stop-color="#4657a7"/></linearGradient><radialGradient id="New_Gradient_Swatch_2" cx="51.88" cy="28.16" r="40" gradientUnits="userSpaceOnUse"><stop offset="0" stop-color="#fff"/><stop offset="1"/></radialGradient></defs><g id="Layer_2" data-name="Layer 2"><g id="Layer_3" data-name="Layer 3"><ellipse class="cls-1" cx="51.88" cy="28.16" rx="50" ry="25"/><line class="cls-2" x1="8.13" y1="15.66" x2="8.13" y2="40.66"/><line class="cls-2" x1="20.63" y1="8.16" x2="20.63" y2="48.16"/><line class="cls-2" x1="33.13" y1="5.16" x2="33.13" y2="51.16"/><line class="cls-2" x1="45.63" y1="3.16" x2="45.63" y2="53.16"/><line class="cls-2" x1="58.13" y1="3.16" x2="58.13" y2="53.16"/><line class="cls-2" x1="70.63" y1="5.16" x2="70.63" y2="51.16"/><line class="cls-2" x1="83.13" y1="8.16" x2="83.13" y2="48.16"/><line class="cls-2" x1="95.63" y1="15.66" x2="95.63" y2="40.66"/><line class="cls-3" x1="26.88" y1="28.16" x2="39.38" y2="21.91"/><path class="cls-4" d="M27.72,29.84a1.88,1.88,0,1,1,.84-2.52A1.88,1.88,0,0,1,27.72,29.84Z"/><polygon class="cls-4" points="42.54 20.33 39 24.37 39.14 22.03 37.18 20.74 42.54 20.33"/><line class="cls-3" x1="51.88" y1="28.16" x2="64.38" y2="15.66"/><path class="cls-4" d="M53.21,29.49a1.88,1.88,0,1,1,0-2.66A1.89,1.89,0,0,1,53.21,29.49Z"/><polygon class="cls-4" points="66.88 13.16 64.8 18.12 64.19 15.84 61.92 15.24 66.88 13.16"/><line class="cls-3" x1="76.88" y1="28.16" x2="89.38" y2="9.41"/><path class="cls-4" d="M78.44,29.2a1.88,1.88,0,1,1-.52-2.61A1.87,1.87,0,0,1,78.44,29.2Z"/><polygon class="cls-4" points="91.34 6.47 90.27 11.74 89.23 9.63 86.89 9.48 91.34 6.47"/><line class="cls-3" x1="1.88" y1="28.16" x2="14.38" y2="28.16"/><path class="cls-4" d="M1.88,30a1.88,1.88,0,1,1,1.88-1.88A1.88,1.88,0,0,1,1.88,30Z"/><polygon class="cls-4" points="17.91 28.16 12.94 30.19 14.12 28.16 12.94 26.13 17.91 28.16"/><line class="cls-3" x1="101.88" y1="28.16" x2="114.38" y2="3.16"/><path class="cls-4" d="M103.56,29a1.88,1.88,0,1,1-.84-2.52A1.88,1.88,0,0,1,103.56,29Z"/><polygon class="cls-4" points="115.96 0 115.55 5.36 114.26 3.39 111.92 3.54 115.96 0"/></g></g></svg>