<svg xmlns="http://www.w3.org/2000/svg" xmlns:xlink="http://www.w3.org/1999/xlink" viewBox="0 0 626.06 203.29"><defs><style>.cls-1,.cls-10,.cls-11,.cls-12,.cls-14,.cls-15,.cls-17,.cls-19,.cls-2,.cls-21,.cls-22,.cls-23,.cls-3,.cls-5,.cls-6,.cls-9{fill:none;}.cls-1{clip-rule:evenodd;}.cls-13,.cls-16,.cls-2,.cls-20,.cls-7,.cls-8{fill-rule:evenodd;}.cls-3{stroke:#7f7f7f;}.cls-10,.cls-11,.cls-12,.cls-14,.cls-15,.cls-19,.cls-22,.cls-3,.cls-5,.cls-6,.cls-9{stroke-linejoin:round;}.cls-23,.cls-3,.cls-9{stroke-width:1.88px;}.cls-4{clip-path:url(#clip-path);}.cls-10,.cls-19,.cls-21,.cls-23,.cls-5,.cls-9{stroke:#000;}.cls-11,.cls-14,.cls-5,.cls-6{stroke-width:2.81px;}.cls-6{stroke:#ed2024;}.cls-7{fill:#ed2024;}.cls-8{fill:#fff;}.cls-10{stroke-width:1.41px;}.cls-11,.cls-12,.cls-22{stroke:#00b04f;}.cls-11,.cls-14{stroke-dasharray:152400 114300;}.cls-12,.cls-15{stroke-width:1.41px;}.cls-13{fill:#00b04f;}.cls-14,.cls-15{stroke:#f79647;}.cls-16{fill:#f79647;}.cls-18{clip-path:url(#clip-path-29);}.cls-19{stroke-width:0.7px;}.cls-21,.cls-23{stroke-miterlimit:8;}.cls-21{stroke-width:1.88px;}.cls-22{stroke-width:1.41px;}</style><clipPath id="clip-path"><polygon class="cls-1" points="0 203.29 626.06 203.29 626.06 4.22 0 4.22 0 203.29 0 203.29"/></clipPath><clipPath id="clip-path-29"><polygon class="cls-1" points="23.94 192.74 118.31 192.74 118.31 0 23.94 0 23.94 192.74 23.94 192.74"/></clipPath></defs><g id="Layer_2" data-name="Layer 2"><g id="Layer_1-2" data-name="Layer 1"><path class="cls-3" d="M18,96.37a53.17,53.17,0,1,1,53.17,53.11A53.14,53.14,0,0,1,18,96.37Z"/><g class="cls-4"><path class="cls-5" d="M82.05,32.8a133,133,0,0,1,57.89,63.94"/><g class="cls-4"><path class="cls-5" d="M82.2,159.15a133.06,133.06,0,0,0,57.74-63.86"/><g class="cls-4"><path class="cls-5" d="M59.51,32.8A133,133,0,0,0,1.61,96.74"/><g class="cls-4"><path class="cls-5" d="M59.35,159.15A133.06,133.06,0,0,1,1.61,95.29"/><g class="cls-4"><line class="cls-6" x1="33.1" y1="58.38" x2="52.46" y2="77.72"/><polygon class="cls-7" points="54.45 73.74 57.44 82.69 48.47 79.71 54.45 73.74 54.45 73.74"/><g class="cls-4"><g class="cls-4"><line class="cls-6" x1="108.14" y1="133.34" x2="88.78" y2="114"/><polygon class="cls-7" points="86.79 117.98 83.8 109.03 92.77 112.01 86.79 117.98 86.79 117.98"/><g class="cls-4"><g class="cls-4"><line class="cls-6" x1="108.14" y1="58.38" x2="88.78" y2="77.72"/><polygon class="cls-7" points="86.79 73.74 83.8 82.69 92.77 79.71 86.79 73.74 86.79 73.74"/><g class="cls-4"><path class="cls-8" d="M238.38,27.43a13.39,13.39,0,0,1,26.76,0,13.38,13.38,0,0,1-26.76,0Z"/><path class="cls-9" d="M238.38,27.43a13.39,13.39,0,0,1,26.76,0,13.38,13.38,0,0,1-26.76,0Z"/><g class="cls-4"><line class="cls-10" x1="242.26" y1="17.59" x2="261.08" y2="36.38"/><g class="cls-4"><line class="cls-10" x1="261.08" y1="17.59" x2="242.26" y2="36.38"/><g class="cls-4"><path class="cls-3" d="M251.76,93.91a53.17,53.17,0,1,1,53.17,53.45,53.32,53.32,0,0,1-53.17-53.45Z"/><g class="cls-4"><path class="cls-5" d="M316,156.33a133,133,0,0,0,57.73-63.85"/><g class="cls-4"><path class="cls-5" d="M293.31,30.69a133,133,0,0,0-57.89,63.94"/><g class="cls-4"><line class="cls-6" x1="266.9" y1="55.57" x2="286.26" y2="74.9"/><polygon class="cls-7" points="288.25 70.92 291.24 79.88 282.28 76.89 288.25 70.92 288.25 70.92"/><g class="cls-4"><line class="cls-6" x1="342.65" y1="131.23" x2="323.29" y2="111.89"/><polygon class="cls-7" points="321.3 115.87 318.31 106.92 327.28 109.9 321.3 115.87 321.3 115.87"/><g class="cls-4"><line class="cls-11" x1="369.02" y1="29.54" x2="235.92" y2="162.49"/><g class="cls-4"><path class="cls-12" d="M337.74,42.78c-5.37-11.45-1.36-19.2,8.94-17.31s23,12.7,28.39,24.15,1.36,19.21-8.95,17.32a24.19,24.19,0,0,1-3.88-1.08"/><polygon class="cls-13" points="361.92 68.8 357.97 63.91 364.26 63.68 361.92 68.8 361.92 68.8"/><g class="cls-4"><path class="cls-3" d="M502.47,96.37a53.17,53.17,0,1,1,53.17,53.11,53.14,53.14,0,0,1-53.17-53.11Z"/><g class="cls-4"><path class="cls-5" d="M566.56,32.8a133,133,0,0,1,57.89,63.94"/><g class="cls-4"><path class="cls-5" d="M566.71,159.15a133.06,133.06,0,0,0,57.74-63.86"/><g class="cls-4"><path class="cls-5" d="M544,32.8a133,133,0,0,0-57.89,63.94"/><g class="cls-4"><path class="cls-5" d="M543.86,159.15a133,133,0,0,1-57.73-63.86"/><g class="cls-4"><line class="cls-6" x1="593.36" y1="58.38" x2="574" y2="77.72"/><polygon class="cls-7" points="572.01 73.74 569.02 82.69 577.98 79.71 572.01 73.74 572.01 73.74"/><g class="cls-4"><line class="cls-14" x1="488.74" y1="29.54" x2="621.84" y2="162.47"/><g class="cls-4"><path class="cls-15" d="M498.72,63c-11.47,5.36-19.23,1.36-17.34-8.94s12.72-23,24.18-28.35,19.23-1.36,17.34,8.94a23.81,23.81,0,0,1-1.08,3.87"/><polygon class="cls-16" points="524.77 38.86 519.87 42.81 519.64 36.53 524.77 38.86 524.77 38.86"/><g class="cls-4"><rect class="cls-17" y="4.22" width="626.06" height="199.07"/></g></g></g></g></g></g></g></g></g></g></g></g></g></g></g></g></g></g></g></g></g></g></g></g></g></g></g></g><line class="cls-11" x1="34.51" x2="34.51" y2="186.1"/><g class="cls-18"><line class="cls-11" x1="104.93" y1="2.11" x2="104.93" y2="188.21"/><g class="cls-18"><line class="cls-11" x1="69.72" y1="2.11" x2="69.72" y2="188.21"/><g class="cls-18"><line class="cls-19" x1="24.3" y1="173.39" x2="117.47" y2="173.39"/><g class="cls-18"><path class="cls-19" d="M70.07,173.63c-.17,7.38-8.2,13.26-17.92,13.12s-17.46-6.22-17.29-13.6a.71.71,0,0,1,0-.14"/><g class="cls-18"><path class="cls-19" d="M106,173.63c-.18,7.38-8.36,13.26-18.28,13.12s-17.81-6.22-17.63-13.6a.71.71,0,0,0,0-.14"/><g class="cls-18"><path class="cls-20" d="M57.4,182.1v9.31H55.08V182.1Zm-7.55,0v9.31H47.54V182.1Z"/><path class="cls-21" d="M57.4,182.1v9.31H55.08V182.1Zm-7.55,0v9.31H47.54V182.1Z"/><g class="cls-18"><path class="cls-20" d="M93.31,182.1v9.31H90.83V182.1Zm-8.08,0v9.31H82.75V182.1Z"/><path class="cls-21" d="M93.31,182.1v9.31H90.83V182.1Zm-8.08,0v9.31H82.75V182.1Z"/><g class="cls-18"><path class="cls-22" d="M55.9,26.65c-8.39-5-8.84-13.49-1-18.89s21-5.68,29.37-.65c7.84,4.71,8.74,12.41,2.43,17.8"/><polygon class="cls-13" points="88.99 26.77 82.73 27.48 85.92 22.05 88.99 26.77 88.99 26.77"/></g></g></g></g></g></g></g></g><polygon class="cls-20" points="415.06 98.13 428.09 98.13 428.09 85.11 428.8 85.11 428.8 98.13 441.82 98.13 441.82 98.13 428.8 98.13 428.8 111.14 428.09 111.14 428.09 98.13 415.06 98.13 415.06 98.13 415.06 98.13"/><polygon class="cls-23" points="415.06 98.13 428.09 98.13 428.09 85.11 428.8 85.11 428.8 98.13 441.82 98.13 441.82 98.13 428.8 98.13 428.8 111.14 428.09 111.14 428.09 98.13 415.06 98.13 415.06 98.13 415.06 98.13"/><polygon class="cls-20" points="157.96 86.54 198.45 86.54 198.45 80.04 211.48 93.05 198.45 106.06 198.45 99.56 157.96 99.56 157.96 86.54 157.96 86.54"/><polygon class="cls-23" points="157.96 86.54 198.45 86.54 198.45 80.04 211.48 93.05 198.45 106.06 198.45 99.56 157.96 99.56 157.96 86.54 157.96 86.54"/></g></g></svg>