<svg width="166" height="261" xmlns="http://www.w3.org/2000/svg" xmlns:xlink="http://www.w3.org/1999/xlink" overflow="hidden"><defs><clipPath id="clip0"><rect x="314" y="233" width="166" height="261"/></clipPath></defs><g clip-path="url(#clip0)" transform="translate(-314 -233)"><path d="M378.805 261.33C353.57 269.411 332.396 271.676 331.513 266.389 330.63 261.102 350.372 250.265 375.608 242.184 400.844 234.103 422.017 231.838 422.9 237.125 423.779 242.391 404.19 253.17 379.059 261.248" stroke="#000000" stroke-width="2" stroke-linejoin="round" stroke-miterlimit="10" fill="none" fill-rule="evenodd"/><path d="M331.5 266.5C340.983 298 350.467 329.5 350.5 361.5 350.533 393.5 341.117 426 331.7 458.5" stroke="#000000" stroke-width="2.66667" stroke-linejoin="round" stroke-miterlimit="10" fill="none" fill-rule="evenodd"/><path d="M371.474 484.145C346.419 475.533 328.435 464.006 331.306 458.398 334.177 452.79 356.815 455.225 381.871 463.836 406.926 472.447 424.91 483.975 422.039 489.583 419.181 495.165 396.728 492.781 371.77 484.246" stroke="#000000" stroke-width="2" stroke-linejoin="round" stroke-miterlimit="10" fill="none" fill-rule="evenodd"/><path d="M422.5 236.5C433.481 277.516 444.461 318.531 444.5 360.198 444.539 401.865 433.635 444.182 422.732 486.5" stroke="#000000" stroke-width="2.66667" stroke-linejoin="round" stroke-miterlimit="10" fill="none" fill-rule="evenodd"/><path d="M378.132 255.287 379.832 260.342 378.569 260.768 376.868 255.713ZM381.108 264.134 382.808 269.189 381.544 269.614 379.844 264.559ZM384.083 272.98 385.784 278.035 384.52 278.46 382.82 273.405ZM387.059 281.826 387.319 282.6 388.647 286.937 387.372 287.327 386.056 283.025 385.795 282.251ZM389.817 290.762 391.377 295.862 390.102 296.252 388.542 291.152ZM392.462 299.73 393.887 304.869 392.603 305.226 391.178 300.086ZM394.956 308.724 395.33 310.072 396.229 313.931 394.931 314.233 394.045 310.428 393.671 309.08ZM397.136 317.827 398.346 323.021 397.048 323.323 395.838 318.129ZM399.103 326.981 400.053 332.23 398.741 332.467 397.791 327.219ZM400.766 336.166 401.031 337.631 401.471 341.494 400.147 341.645 399.719 337.869 399.454 336.403ZM401.923 345.468 402.525 350.768 401.2 350.918 400.598 345.619ZM402.739 354.809 402.955 360.138 401.623 360.192 401.407 354.863ZM403.117 364.135 403.166 365.348 402.999 369.518 401.667 369.464 401.834 365.402 401.785 364.189ZM402.837 373.514 402.621 378.843 401.289 378.789 401.505 373.46ZM402.221 382.867 401.652 388.17 400.327 388.028 400.895 382.725ZM401.226 392.147 401.1 393.321 400.379 397.455 399.066 397.226 399.775 393.179 399.901 392.005ZM399.69 401.395 398.771 406.649 397.458 406.419 398.376 401.166ZM397.913 410.589 396.734 415.79 395.433 415.496 396.612 410.294ZM395.849 419.691 395.463 421.397 394.529 424.885 393.241 424.54 394.162 421.103 394.549 419.397ZM393.494 428.748 392.114 433.9 390.826 433.555 392.206 428.403ZM391.01 437.763 389.488 442.875 388.21 442.494 389.732 437.383ZM388.346 446.709 387.514 449.503 386.77 451.818 385.5 451.41 386.236 449.122 387.068 446.328ZM385.545 455.626 383.913 460.704 382.644 460.296 384.276 455.218ZM382.689 464.512 381.056 469.589 379.787 469.181 381.419 464.104ZM379.832 473.397 378.447 477.704 377.178 477.296 378.563 472.989ZM373.709 256.775C373.004 254.682 374.131 252.413 376.225 251.709 378.319 251.004 380.587 252.131 381.291 254.225 381.996 256.319 380.869 258.587 378.775 259.291 376.682 259.996 374.413 258.869 373.709 256.775ZM381.621 478.724C380.944 480.827 378.691 481.984 376.588 481.308 374.485 480.632 373.328 478.379 374.005 476.276 374.681 474.173 376.934 473.016 379.037 473.692 381.14 474.368 382.297 476.621 381.621 478.724Z"/><path d="M333.5 448.5C390.426 445.417 447.351 442.333 465.714 435.5 484.077 428.667 443.678 407.5 443.678 407.5L443.678 407.5" stroke="#F44336" stroke-width="2.66667" stroke-linejoin="round" stroke-miterlimit="10" fill="none" fill-rule="evenodd"/><path d="M349.108 372.5C331.023 368.833 312.938 365.167 317.105 359.5 321.272 353.833 347.608 347.5 374.111 338.5 400.613 329.5 465.786 314.167 476.12 305.5 486.455 296.833 461.286 291.667 436.117 286.5" stroke="#F44336" stroke-width="2.66667" stroke-linejoin="round" stroke-miterlimit="10" fill="none" fill-rule="evenodd"/></g></svg>