<svg width="472" height="299" xmlns="http://www.w3.org/2000/svg" xmlns:xlink="http://www.w3.org/1999/xlink" overflow="hidden"><defs><clipPath id="clip0"><rect x="172" y="244" width="472" height="299"/></clipPath></defs><g clip-path="url(#clip0)" transform="translate(-172 -244)"><path d="M233.294 322.614C247.667 374.723 246.844 429.855 230.921 481.511L181.603 466.31C194.627 424.057 195.3 378.961 183.543 336.338Z" stroke="#000000" stroke-width="1.33333" stroke-linejoin="round" stroke-miterlimit="10" fill="none" fill-rule="evenodd"/><path d="M179 381C179 352.281 202.505 329 231.5 329 260.495 329 284 352.281 284 381 284 409.719 260.495 433 231.5 433 202.505 433 179 409.719 179 381Z" stroke="#000000" stroke-width="2" stroke-linejoin="round" stroke-miterlimit="10" fill="#FFFFFF" fill-rule="evenodd"/><path d="M199 381C199 377.686 206.611 375 216 375 225.389 375 233 377.686 233 381 233 384.314 225.389 387 216 387 206.611 387 199 384.314 199 381Z" fill="#FFC000" fill-rule="evenodd"/><path d="M205.481 300.487C251.187 334.886 285.417 382.308 303.674 436.521L253.98 453.256C239.1 409.07 211.201 370.419 173.949 342.382Z" stroke="#000000" stroke-width="1.33333" stroke-linejoin="round" stroke-miterlimit="10" fill="none" fill-rule="evenodd"/><path d="M232.057 395.256C229.871 392.096 235.105 384.688 243.746 378.71 252.388 372.732 261.165 370.447 263.351 373.607 265.537 376.767 260.304 384.175 251.663 390.153 243.021 396.131 234.244 398.416 232.057 395.256Z" fill="#FF0000" fill-rule="evenodd"/><path d="M235.821 374.145 203.027 335.316 206.083 332.735 238.877 371.564ZM204.98 348.055 201.994 330.993 218.315 336.792C219.356 337.162 219.9 338.305 219.53 339.346 219.161 340.387 218.017 340.931 216.976 340.561L203.886 335.91 206.525 333.681 208.92 347.365C209.111 348.453 208.383 349.489 207.295 349.68 206.207 349.87 205.17 349.143 204.98 348.055Z"/><path d="M1.99842-0.0794705 3.80139 45.2591-0.195455 45.4181-1.99842 0.0794705ZM10.0868 34.0082 1.96068 49.3047-7.35448 34.7018C-7.94851 33.7705-7.67516 32.5341-6.74392 31.94-5.81269 31.346-4.57621 31.6194-3.98218 32.5506L3.48911 44.263 0.036727 44.4003 6.55438 32.1316C7.07259 31.1561 8.28345 30.7854 9.25891 31.3037 10.2344 31.8219 10.6051 33.0327 10.0868 34.0082Z" transform="matrix(-1 -8.74228e-08 -8.74228e-08 1 215.96 398)"/><rect x="350" y="303" width="5" height="36" fill="#FFFFFF"/><rect x="216" y="247" width="288" height="35" fill="#FFFFFF"/><text font-family="Times New Roman,Times New Roman_MSFontService,sans-serif" font-weight="400" font-size="21" transform="translate(226.793 272)">Direction of the ball's rotation?</text><rect x="496" y="321" width="144" height="36" fill="#FFFFFF"/><text font-family="Times New Roman,Times New Roman_MSFontService,sans-serif" font-weight="400" font-size="21" transform="translate(505.917 347)">Orbital <tspan x="66" y="0">speed</tspan><tspan x="114.667" y="0">?</tspan></text><rect x="354" y="387" width="276" height="35" fill="#FFFFFF"/><text font-family="Times New Roman,Times New Roman_MSFontService,sans-serif" font-weight="400" font-size="21" transform="translate(365.409 413)">Distribution of friction <tspan x="200.5" y="0">force</tspan>?</text><rect x="311" y="473" width="250" height="62" fill="#FFFFFF"/><text font-family="Times New Roman,Times New Roman_MSFontService,sans-serif" font-weight="400" font-size="21" transform="translate(350.05 499)">Angle between two <tspan x="-28.6667" y="25">elliptical </tspan><tspan x="51.8333" y="25">major </tspan><tspan x="107.167" y="25">diameters?</tspan></text></g></svg>