<svg xmlns="http://www.w3.org/2000/svg" viewBox="0 0 341.5 114.5"><defs><style>.cls-1,.cls-3{fill:none;stroke:#000001;stroke-width:1.5px;}.cls-1{stroke-linejoin:round;}.cls-2{fill:#fff;}.cls-3{stroke-miterlimit:8;}.cls-4{fill:#3e7ab9;}</style></defs><g id="Layer_2" data-name="Layer 2"><g id="Layer_1-2" data-name="Layer 1"><rect class="cls-1" x="0.75" y="28.75" width="340" height="57"/><rect class="cls-2" x="85.75" y="0.75" width="170" height="113"/><rect class="cls-1" x="85.75" y="0.75" width="170" height="113"/><polygon class="cls-3" points="269.75 50 312.25 50 312.25 42.75 326.75 57.25 312.25 71.75 312.25 64.5 269.75 64.5 269.75 50"/><circle class="cls-1" cx="170.75" cy="85.75" r="14"/><path class="cls-1" d="M142.75,99.75c7.54-10.92,15.08-21.83,19.74-31.33s8.26-25.67,8.26-25.67"/><path class="cls-1" d="M170.75,113.75c7.54-10.92,15.08-21.83,19.74-31.33s8.26-25.67,8.26-25.67"/><path class="cls-4" d="M166.1,80.05l3.21,5.89-6.64-1Zm-7.64-2.11,7,4.84-.43.61-7-4.83Z"/><path class="cls-4" d="M176.9,93.88l-3.65-5.63,6.69.46Zm6.47.77-6-3.54.38-.65,6,3.54Z"/></g></g></svg>