<?xml version="1.0" encoding="utf-8"?>
<!-- Generator: Adobe Illustrator 25.2.3, SVG Export Plug-In . SVG Version: 6.00 Build 0)  -->
<svg version="1.1" id="Layer_1" xmlns="http://www.w3.org/2000/svg" xmlns:xlink="http://www.w3.org/1999/xlink" x="0px" y="0px"
	 viewBox="0 0 602.7 202.8" style="enable-background:new 0 0 602.7 202.8;" xml:space="preserve">
<style type="text/css">
	.st0{fill:none;stroke:#437DBB;stroke-width:1.5;stroke-linejoin:round;}
	.st1{fill:#000001;}
	.st2{fill:none;stroke:#ED1C24;stroke-width:1.5;stroke-linejoin:round;}
	.st3{fill:#ED1C24;}
	.st4{fill:none;stroke:#000001;stroke-width:1.5;stroke-linejoin:round;}
	.st5{fill:none;stroke:#98B94E;stroke-width:0.75;stroke-linejoin:round;}
	.st6{fill:#231F20;}
	.st7{font-family:'HiraMinPro-W3-83pv-RKSJ-H';}
	.st8{font-size:16px;}
	.st9{font-size:14px;}
	.st10{letter-spacing:-1;}
	.st11{font-size:11px;}
</style>
<g id="Layer_2_1_">
	<g id="Layer_1-2">
		<rect x="553.2" y="88.7" class="st0" width="7" height="15"/>
		<rect x="553.2" y="103.7" class="st0" width="7" height="14"/>
		<rect x="553.2" y="117.7" class="st0" width="7" height="14"/>
		<rect x="553.2" y="131.7" class="st0" width="7" height="14"/>
		<rect x="546.2" y="88.7" class="st0" width="7" height="15"/>
		<rect x="546.2" y="103.7" class="st0" width="7" height="14"/>
		<rect x="546.2" y="117.7" class="st0" width="7" height="14"/>
		<rect x="546.2" y="131.7" class="st0" width="7" height="14"/>
		<rect x="539.2" y="88.7" class="st0" width="7" height="15"/>
		<rect x="539.2" y="103.7" class="st0" width="7" height="14"/>
		<rect x="539.2" y="117.7" class="st0" width="7" height="14"/>
		<rect x="539.2" y="131.7" class="st0" width="7" height="14"/>
		<rect x="560.2" y="88.7" class="st0" width="7" height="15"/>
		<rect x="560.2" y="103.7" class="st0" width="7" height="14"/>
		<rect x="560.2" y="117.7" class="st0" width="7" height="14"/>
		<rect x="560.2" y="131.7" class="st0" width="7" height="14"/>
		<path class="st1" d="M164.9,154.2l5.4,6.2l-8.1,1.7c-0.4,0.1-0.8-0.2-0.9-0.6s0.2-0.8,0.6-0.9l6.8-1.4l-0.4,1.2l-4.6-5.2
			c-0.3-0.3-0.2-0.8,0.1-1.1c0,0,0,0,0,0C164.1,153.9,164.6,153.9,164.9,154.2z M0.5,103l168.7,56.2l-0.5,1.4L0,104.4L0.5,103z"/>
		<path class="st1" d="M165.9,109.9l5.4-6.2l-8.1-1.7c-0.4-0.1-0.8,0.2-0.9,0.6c-0.1,0.4,0.2,0.8,0.6,0.9l6.8,1.4l-0.4-1.2l-4.6,5.2
			c-0.3,0.3-0.2,0.8,0.1,1.1c0,0,0,0,0,0C165.1,110.2,165.6,110.2,165.9,109.9z M1.5,161.1l168.7-56.2l-0.5-1.4L1,159.7L1.5,161.1z"
			/>
		<path class="st1" d="M90.4,25.8l-4.2-7.1l-4.2,7.1c-0.2,0.4-0.1,0.8,0.3,1c0.4,0.2,0.8,0.1,1-0.3l3.5-6h-1.3l3.5,6
			c0.2,0.3,0.6,0.5,1,0.3C90.4,26.6,90.6,26.2,90.4,25.8z M87,188.8V20.2h-1.5v168.6L87,188.8z"/>
		<path class="st2" d="M108.7,157.7c26.5-9.3,53.1-18.6,49.2-29.8s-52.3-26.2-72.4-37.5S51.3,70,37.2,60.7"/>
		<circle class="st3" cx="135.2" cy="148.7" r="3"/>
		<ellipse class="st4" cx="284.2" cy="103.2" rx="57" ry="56.5"/>
		<circle class="st4" cx="295.7" cy="95.2" r="42.5"/>
		<ellipse class="st3" cx="284.2" cy="103.2" rx="3" ry="2.5"/>
		<line class="st5" x1="286.7" y1="102.3" x2="324.8" y2="64.2"/>
		<line class="st5" x1="287.7" y1="104.2" x2="370" y2="104.6"/>
		
			<rect x="320.4" y="27.3" transform="matrix(0.7071 -0.7071 0.7071 0.7071 70.5645 239.0947)" class="st0" width="7.1" height="14.2"/>
		
			<rect x="330.4" y="37.3" transform="matrix(0.7071 -0.7071 0.7071 0.7071 66.4142 249.115)" class="st0" width="7.1" height="14.2"/>
		
			<rect x="340.4" y="47.3" transform="matrix(0.7071 -0.7071 0.7071 0.7071 62.2569 259.1383)" class="st0" width="7.1" height="14.2"/>
		
			<rect x="350.4" y="57.4" transform="matrix(0.7071 -0.7071 0.7071 0.7071 58.1066 269.1586)" class="st0" width="7.1" height="14.2"/>
		
			<rect x="315.3" y="32.3" transform="matrix(0.7071 -0.7071 0.7071 0.7071 65.5438 237.0181)" class="st0" width="7.1" height="14.2"/>
		
			<rect x="325.4" y="42.3" transform="matrix(0.7071 -0.7071 0.7071 0.7071 61.4005 247.0413)" class="st0" width="7.1" height="14.2"/>
		
			<rect x="335.4" y="52.3" transform="matrix(0.7071 -0.7071 0.7071 0.7071 57.2503 257.0616)" class="st0" width="7.1" height="14.2"/>
		
			<rect x="345.4" y="62.4" transform="matrix(0.7071 -0.7071 0.7071 0.7071 53.097 267.0749)" class="st0" width="7.1" height="14.2"/>
		
			<rect x="310.3" y="37.3" transform="matrix(0.7071 -0.7071 0.7071 0.7071 60.5372 234.9415)" class="st0" width="7.1" height="14.2"/>
		
			<rect x="320.3" y="47.3" transform="matrix(0.7071 -0.7071 0.7071 0.7071 56.3839 244.9547)" class="st0" width="7.1" height="14.2"/>
		
			<rect x="330.4" y="57.3" transform="matrix(0.7071 -0.7071 0.7071 0.7071 52.2407 254.978)" class="st0" width="7.1" height="14.2"/>
		
			<rect x="340.4" y="67.4" transform="matrix(0.7071 -0.7071 0.7071 0.7071 48.0804 265.0083)" class="st0" width="7.1" height="14.2"/>
		
			<rect x="325.4" y="22.3" transform="matrix(0.7071 -0.7071 0.7071 0.7071 75.5711 241.1713)" class="st0" width="7.1" height="14.2"/>
		
			<rect x="335.4" y="32.3" transform="matrix(0.7071 -0.7071 0.7071 0.7071 71.4208 251.1917)" class="st0" width="7.1" height="14.2"/>
		
			<rect x="345.4" y="42.3" transform="matrix(0.7071 -0.7071 0.7071 0.7071 67.2705 261.2119)" class="st0" width="7.1" height="14.2"/>
		
			<rect x="355.4" y="52.3" transform="matrix(0.7071 -0.7071 0.7071 0.7071 63.1203 271.2322)" class="st0" width="7.1" height="14.2"/>
		
			<ellipse transform="matrix(0.9642 -0.2651 0.2651 0.9642 -34.5502 41.2256)" class="st4" cx="135.5" cy="148.6" rx="14.2" ry="28.4"/>
		<path class="st1" d="M472.4,39.8l-4.1-7.1l-4.1,7.1c-0.2,0.4-0.1,0.8,0.3,1c0.4,0.2,0.8,0.1,1-0.3l3.5-6h-1.3l3.5,6
			c0.2,0.3,0.6,0.5,1,0.3C472.4,40.6,472.6,40.2,472.4,39.8z M469,202.8V34.2h-1.5v168.6L469,202.8z"/>
		<path class="st1" d="M589.2,113.6l7.1,4.2l-7.1,4.2c-0.4,0.2-0.8,0.1-1-0.3c-0.2-0.4-0.1-0.8,0.3-1l6-3.5v1.3l-6-3.5
			c-0.3-0.2-0.5-0.6-0.3-1C588.4,113.5,588.8,113.4,589.2,113.6z M426.2,117h168.6v1.5H426.2L426.2,117z"/>
		<path class="st3" d="M522.5,143.3l-5.4,4l0.1-6.7L522.5,143.3z M517.7,96.1l0.1-6.7l5.3,4.1L517.7,96.1z M520.7,93.6l1.1,2.4
			l2.4,7.3l1.4,7.5l0.4,7.6l-0.6,7.6l-1.6,7.5l-2.6,7.2l-1.3,2.5l-1.3-0.7l1.2-2.3l2.5-7.1l1.5-7.3l0.6-7.4l-0.4-7.4l-1.3-7.3
			l-2.3-7.1l-1.2-2.4L520.7,93.6z"/>
		<circle class="st3" cx="525.2" cy="116.7" r="3"/>
		
			<ellipse transform="matrix(0.9642 -0.2651 0.2651 0.9642 -33.6809 41.8532)" class="st4" cx="138.2" cy="145.7" rx="10.6" ry="21.2"/>
		<text transform="matrix(1 0 0 1 99.45 14.08)" class="st6 st7 st8">x</text>
		<text transform="matrix(1 0 0 1 167.8 101.92)" class="st6 st7 st8">z</text>
		<text transform="matrix(1 0 0 1 169.67 155.36)" class="st6 st7 st8">y</text>
		<text transform="matrix(1 0 0 1 292.07 110.49)" class="st6 st7 st9">45</text>
		<text transform="matrix(1 0 0 1 308.53 110.49)" class="st6 st7 st9 st10">±</text>
		<text transform="matrix(1 0 0 1 316.54 110.49)" class="st6 st7 st9 st10">5</text>
		<text transform="matrix(1 0 0 1 328.99 101.49)" class="st6 st7 st11">o</text>
		<text transform="matrix(1 0 0 1 476.63 29.03)" class="st6 st7 st8">z</text>
		<text transform="matrix(1 0 0 1 593.58 134.07)" class="st6 st7 st8">y</text>
		<text transform="matrix(1 0 0 1 469.3 115.16)" class="st6 st7 st9">0±1.0 </text>
		<text transform="matrix(1 0 0 1 509.12 106.16)" class="st6 st7 st11">o</text>
	</g>
</g>
</svg>
