<svg xmlns="http://www.w3.org/2000/svg" viewBox="0 0 602.7 202.81"><defs><style>.cls-1,.cls-3,.cls-5,.cls-6{fill:none;stroke-linejoin:round;}.cls-1{stroke:#437dbb;}.cls-1,.cls-3,.cls-5{stroke-width:1.5px;}.cls-2{fill:#000001;}.cls-3{stroke:#ed1c24;}.cls-4{fill:#ed1c24;}.cls-5{stroke:#000001;}.cls-6{stroke:#98b94e;stroke-width:0.75px;}.cls-7{font-size:16px;}.cls-7,.cls-8{fill:#231f20;font-family:HiraMinPro-W3-83pv-RKSJ-H, Hiragino Mincho Pro;}.cls-8{font-size:14px;}.cls-9{letter-spacing:-0.11em;}.cls-10{letter-spacing:-0.11em;}.cls-11{font-size:11px;}</style></defs><g id="Layer_2" data-name="Layer 2"><g id="Layer_1-2" data-name="Layer 1"><rect class="cls-1" x="553.24" y="88.73" width="7" height="15"/><rect class="cls-1" x="553.24" y="103.73" width="7" height="14"/><rect class="cls-1" x="553.24" y="117.73" width="7" height="14"/><rect class="cls-1" x="553.24" y="131.73" width="7" height="14"/><rect class="cls-1" x="546.24" y="88.73" width="7" height="15"/><rect class="cls-1" x="546.24" y="103.73" width="7" height="14"/><rect class="cls-1" x="546.24" y="117.73" width="7" height="14"/><rect class="cls-1" x="546.24" y="131.73" width="7" height="14"/><rect class="cls-1" x="539.24" y="88.73" width="7" height="15"/><rect class="cls-1" x="539.24" y="103.73" width="7" height="14"/><rect class="cls-1" x="539.24" y="117.73" width="7" height="14"/><rect class="cls-1" x="539.24" y="131.73" width="7" height="14"/><rect class="cls-1" x="560.24" y="88.73" width="7" height="15"/><rect class="cls-1" x="560.24" y="103.73" width="7" height="14"/><rect class="cls-1" x="560.24" y="117.73" width="7" height="14"/><rect class="cls-1" x="560.24" y="131.73" width="7" height="14"/><path class="cls-2" d="M164.89,154.24l5.43,6.18-8.06,1.69a.75.75,0,1,1-.31-1.47l6.8-1.42-.41,1.23-4.58-5.22a.75.75,0,0,1,.07-1.06A.76.76,0,0,1,164.89,154.24ZM.47,103l168.68,56.22-.48,1.43L0,104.44Z"/><path class="cls-2" d="M165.89,109.91l5.43-6.18L163.26,102a.77.77,0,0,0-.89.58.76.76,0,0,0,.58.89l6.8,1.42-.41-1.23-4.58,5.22a.75.75,0,0,0,.07,1.06A.76.76,0,0,0,165.89,109.91ZM1.47,161.13l168.68-56.22-.48-1.42L1,159.71Z"/><path class="cls-2" d="M90.39,25.84l-4.15-7.11-4.15,7.11a.74.74,0,0,0,.27,1,.75.75,0,0,0,1-.27l3.5-6h-1.3l3.5,6a.75.75,0,0,0,1,.27A.76.76,0,0,0,90.39,25.84Zm-3.4,163V20.21h-1.5v168.6Z"/><path class="cls-3" d="M108.65,157.73c26.53-9.28,53.07-18.57,49.21-29.77S105.59,101.71,85.49,90.5,51.31,70,37.24,60.73"/><circle class="cls-4" cx="135.24" cy="148.73" r="3"/><ellipse class="cls-5" cx="284.24" cy="103.23" rx="57" ry="56.5"/><circle class="cls-5" cx="295.74" cy="95.23" r="42.5"/><ellipse class="cls-4" cx="284.24" cy="103.23" rx="3" ry="2.5"/><line class="cls-6" x1="286.74" y1="102.31" x2="324.83" y2="64.23"/><line class="cls-6" x1="287.74" y1="104.23" x2="369.95" y2="104.6"/><rect class="cls-1" x="320.35" y="27.29" width="7.09" height="14.17" transform="translate(70.56 239.09) rotate(-45)"/><rect class="cls-1" x="330.37" y="37.31" width="7.09" height="14.17" transform="translate(66.41 249.11) rotate(-45)"/><rect class="cls-1" x="340.39" y="47.33" width="7.09" height="14.17" transform="translate(62.26 259.14) rotate(-45)"/><rect class="cls-1" x="350.41" y="57.35" width="7.09" height="14.17" transform="translate(58.11 269.16) rotate(-45)"/><rect class="cls-1" x="315.33" y="32.3" width="7.09" height="14.17" transform="translate(65.55 237.02) rotate(-45)"/><rect class="cls-1" x="325.36" y="42.32" width="7.09" height="14.17" transform="translate(61.4 247.04) rotate(-45)"/><rect class="cls-1" x="335.38" y="52.34" width="7.09" height="14.17" transform="translate(57.25 257.06) rotate(-45)"/><rect class="cls-1" x="345.4" y="62.36" width="7.09" height="14.17" transform="translate(53.09 267.08) rotate(-45)"/><rect class="cls-1" x="310.32" y="37.31" width="7.09" height="14.17" transform="translate(60.54 234.94) rotate(-45)"/><rect class="cls-1" x="320.34" y="47.33" width="7.09" height="14.17" transform="translate(56.38 244.96) rotate(-45)"/><rect class="cls-1" x="330.37" y="57.35" width="7.09" height="14.17" transform="translate(52.23 254.98) rotate(-45)"/><rect class="cls-1" x="340.39" y="67.38" width="7.09" height="14.17" transform="translate(48.08 265.01) rotate(-45)"/><rect class="cls-1" x="325.36" y="22.28" width="7.09" height="14.17" transform="translate(75.57 241.17) rotate(-45)"/><rect class="cls-1" x="335.38" y="32.3" width="7.09" height="14.17" transform="translate(71.42 251.19) rotate(-45)"/><rect class="cls-1" x="345.4" y="42.32" width="7.09" height="14.17" transform="translate(67.27 261.21) rotate(-45)"/><rect class="cls-1" x="355.42" y="52.34" width="7.09" height="14.17" transform="translate(63.12 271.23) rotate(-45)"/><ellipse class="cls-5" cx="135.48" cy="148.64" rx="14.17" ry="28.35" transform="translate(-34.55 41.22) rotate(-15.37)"/><text/><text/><text/><text/><path class="cls-2" d="M472.39,39.84l-4.15-7.11-4.15,7.11a.74.74,0,0,0,.27,1,.75.75,0,0,0,1-.27l3.5-6h-1.3l3.5,6a.75.75,0,0,0,1,.27A.76.76,0,0,0,472.39,39.84Zm-3.4,163V34.21h-1.5v168.6Z"/><path class="cls-2" d="M589.21,113.58l7.11,4.15-7.11,4.15a.75.75,0,0,1-1-.27.76.76,0,0,1,.27-1l6-3.5v1.3l-6-3.5a.76.76,0,0,1-.27-1A.75.75,0,0,1,589.21,113.58Zm-163,3.4H594.83v1.5H426.24Z"/><path class="cls-4" d="M522.46,143.31l-5.41,4,.07-6.71Zm-4.78-47.17.1-6.71,5.31,4.11Zm3-2.53L521.79,96l2.39,7.3,1.4,7.5.4,7.59L525.4,126l-1.57,7.46-2.56,7.24L520,143.17l-1.33-.68,1.18-2.3,2.51-7.05,1.54-7.27.58-7.38-.38-7.39-1.35-7.3-2.31-7.12-1.16-2.42Z"/><text/><text/><circle class="cls-4" cx="525.24" cy="116.73" r="3"/><ellipse class="cls-5" cx="138.24" cy="145.73" rx="10.59" ry="21.18" transform="translate(-33.68 41.85) rotate(-15.37)"/><text class="cls-7" transform="translate(99.45 14.08)">x</text><text class="cls-7" transform="translate(167.8 101.92)">z</text><text class="cls-7" transform="translate(169.67 155.36)">y</text><text class="cls-8" transform="translate(292.07 110.49)">45<tspan class="cls-9" x="16.46" y="0">±</tspan><tspan class="cls-10" x="24.47" y="0">１</tspan><tspan class="cls-11" x="36.92" y="-9">o</tspan></text><text class="cls-7" transform="translate(476.63 29.03)">z</text><text class="cls-7" transform="translate(593.58 134.07)">y</text><text class="cls-8" transform="translate(469.3 115.16)">0±0.02<tspan class="cls-11" x="46.82" y="-9">o</tspan></text></g></g></svg>