<svg xmlns="http://www.w3.org/2000/svg" viewBox="0 0 295.21 182.36"><defs><style>.cls-1,.cls-9{fill:none;}.cls-1,.cls-2{stroke:#010101;stroke-linejoin:round;}.cls-1{stroke-width:1.33px;}.cls-2{fill:#fff;}.cls-2,.cls-7,.cls-8{stroke-width:2px;}.cls-2,.cls-3,.cls-4,.cls-7,.cls-8{fill-rule:evenodd;}.cls-3,.cls-7{fill:#fdc010;}.cls-4{fill:#ed2224;}.cls-5{fill:#010101;}.cls-6{fill:#231f20;}.cls-7,.cls-8,.cls-9{stroke:#231f20;stroke-miterlimit:10;}.cls-7{stroke-dasharray:3;}.cls-8{fill:#ed2024;}</style></defs><g id="Layer_2" data-name="Layer 2"><g id="Layer_1-2" data-name="Layer 1"><path class="cls-1" d="M60,22.79a283.57,283.57,0,0,1-2.37,158.9L8.32,166.49a231.9,231.9,0,0,0,1.94-130Z"/><path class="cls-2" d="M5.72,81.18c0-28.72,23.5-52,52.5-52s52.5,23.28,52.5,52-23.51,52-52.5,52S5.72,109.9,5.72,81.18Z"/><path class="cls-3" d="M25.72,81.18c0-3.31,7.61-6,17-6s17,2.69,17,6-7.61,6-17,6S25.72,84.49,25.72,81.18Z"/><path class="cls-1" d="M32.2.67a283.56,283.56,0,0,1,98.19,136L80.7,153.44A231.09,231.09,0,0,0,.67,42.56Z"/><path class="cls-4" d="M58.77,95.44c-2.18-3.16,3-10.57,11.69-16.55s17.42-8.26,19.61-5.1S87,84.35,78.38,90.33,61,98.6,58.77,95.44Z"/><path class="cls-5" d="M62.54,74.32,29.74,35.5l3.06-2.59L65.59,71.74ZM31.7,48.23l-3-17.06L45,37a2,2,0,1,1-1.34,3.77L30.6,36.09l2.64-2.23,2.4,13.68a2,2,0,1,1-3.94.69Z"/><path class="cls-5" d="M40.68,98.1l-1.8,45.34,4,.16,1.81-45.34Zm-8.09,34.09,8.13,15.29L50,132.88a2,2,0,1,0-3.37-2.15l-7.47,11.71,3.45.14-6.52-12.27a2,2,0,1,0-3.53,1.88Z"/><path class="cls-6" d="M54.7,41.17c.69-1.08,1.4-1.67,1.91-1.67s.75.51,1.12,1.75l.24.84c1.39-1.92,2.08-2.59,2.8-2.59a.63.63,0,0,1,.67.69,1.16,1.16,0,0,1-.38.77.46.46,0,0,1-.34.13c-.17,0-.35-.44-.59-.44s-1,.64-2,2.05l.52,1.63c.31,1,.55,1.45.82,1.45s.54-.2,1.17-1l.29.37c-.69,1.09-1.47,1.71-2.05,1.71s-.79-.53-1.17-1.73l-.43-1.39c-1.57,2.26-2.26,3.12-3,3.12a.69.69,0,0,1-.7-.75c0-.47.4-1,.7-1s.37.43.59.43.8-.5,2.21-2.45l-.43-1.41c-.27-.86-.42-1.16-.64-1.16s-.48.15-1,.91Z"/><path class="cls-6" d="M61.82,46.86v-.4c.88-.08.9-.16.9-.94V42.67c0-.59-.13-.62-.57-.7l-.34,0v-.37a9.27,9.27,0,0,0,2-.48v4.45c0,.78,0,.85.9.94v.4Z"/><path class="cls-6" d="M65.74,46.86v-.4c.88-.08.9-.16.9-.94V42.67c0-.59-.13-.62-.57-.7l-.34,0v-.37a9.27,9.27,0,0,0,2-.48v4.45c0,.78,0,.85.9.94v.4Z"/><path class="cls-6" d="M20.79,105.08c.68-1.08,1.39-1.67,1.9-1.67s.75.51,1.12,1.75l.24.85c1.39-1.93,2.08-2.6,2.8-2.6a.63.63,0,0,1,.67.69,1.14,1.14,0,0,1-.38.77.46.46,0,0,1-.34.13c-.17,0-.35-.43-.59-.43s-1,.63-2,2l.53,1.64c.3,1,.54,1.44.81,1.44s.55-.2,1.17-1l.29.37c-.69,1.09-1.47,1.71-2.05,1.71s-.79-.52-1.17-1.73l-.43-1.39c-1.57,2.26-2.26,3.12-3,3.12a.69.69,0,0,1-.7-.75c0-.46.4-1,.7-1s.37.43.59.43.8-.49,2.21-2.45l-.43-1.4c-.27-.87-.42-1.17-.64-1.17s-.48.16-1,.91Z"/><path class="cls-6" d="M32.24,109.3a14.71,14.71,0,0,0-.38,1.48H27.92v-.39c1.27-1.09,2.69-2.14,2.69-3.39a1,1,0,0,0-1.07-1.17,1.74,1.74,0,0,0-1.38.88l-.3-.3.53-.72A2,2,0,0,1,30,105a1.72,1.72,0,0,1,1.78,1.75c0,.76-.39,1.39-1.62,2.43l-.91.77h1.53c.6,0,.8-.1,1.11-.76Z"/><path class="cls-6" d="M33.38,110.78v-.4c.88-.08.89-.16.89-.95v-2.85c0-.59-.12-.62-.57-.7l-.34,0v-.37a9.52,9.52,0,0,0,2-.48v4.45c0,.79,0,.85.89.95v.4Z"/><path class="cls-2" d="M189.21,88.75c0-28.72,23.51-52,52.5-52s52.5,23.28,52.5,52-23.5,52-52.5,52S189.21,117.46,189.21,88.75Z"/><path class="cls-7" d="M224.71,126.88c0-3.31,7.62-6,17-6s17,2.69,17,6-7.61,6-17,6S224.71,130.19,224.71,126.88Z"/><path class="cls-8" d="M224.71,48.05c0-3.31,7.62-6,17-6s17,2.69,17,6-7.61,6-17,6S224.71,51.36,224.71,48.05Z"/><line class="cls-9" x1="241.71" y1="47.65" x2="216.08" y2="25.29"/><polygon class="cls-6" points="220.46 22.49 210.68 20.57 213.9 30 220.46 22.49"/><path class="cls-6" d="M249.68,76.21c.52-.8,1-1.25,1.43-1.25s.56.39.84,1.31l.18.63c1-1.43,1.56-1.94,2.1-1.94a.48.48,0,0,1,.5.52.83.83,0,0,1-.29.57.31.31,0,0,1-.25.1c-.13,0-.26-.32-.44-.32s-.72.47-1.49,1.53l.39,1.22c.23.72.41,1.08.62,1.08s.4-.14.87-.7l.22.27c-.52.82-1.11,1.28-1.54,1.28s-.59-.39-.87-1.29l-.33-1c-1.17,1.69-1.69,2.33-2.23,2.33a.52.52,0,0,1-.53-.56c0-.35.3-.72.53-.72s.28.33.45.33.6-.38,1.65-1.84l-.32-1.06c-.21-.64-.31-.87-.48-.87s-.36.12-.77.68Z"/><path class="cls-6" d="M255,80.48v-.3c.66-.06.67-.12.67-.71V77.34c0-.45-.1-.47-.43-.53l-.25,0V76.5a7.64,7.64,0,0,0,1.48-.36v3.33c0,.59,0,.64.68.71v.3Z"/><path class="cls-6" d="M261.21,79.38a9,9,0,0,0-.29,1.1H258v-.29c.95-.81,2-1.61,2-2.54a.78.78,0,0,0-.81-.88,1.33,1.33,0,0,0-1,.66l-.23-.23.4-.54a1.56,1.56,0,0,1,1.19-.52,1.28,1.28,0,0,1,1.33,1.3c0,.58-.29,1-1.21,1.83l-.69.57h1.15c.45,0,.6-.07.83-.56Z"/><line class="cls-9" x1="241.71" y1="47.65" x2="241.71" y2="77.21"/><polygon class="cls-6" points="236.73 75.75 241.72 84.38 246.7 75.75 236.73 75.75"/><path class="cls-6" d="M218.66,15.62c.52-.8,1.05-1.25,1.43-1.25s.56.39.84,1.31l.18.64c1-1.44,1.56-2,2.1-2a.48.48,0,0,1,.5.52.84.84,0,0,1-.28.57.33.33,0,0,1-.26.1c-.13,0-.26-.32-.44-.32s-.72.48-1.49,1.53l.4,1.23c.23.71.41,1.07.61,1.07s.41-.14.88-.7l.21.27c-.51.82-1.1,1.29-1.53,1.29s-.59-.4-.88-1.3l-.32-1c-1.18,1.69-1.69,2.34-2.23,2.34a.52.52,0,0,1-.53-.57c0-.35.3-.72.53-.72s.27.33.44.33.6-.38,1.65-1.84l-.32-1.05c-.2-.65-.31-.88-.48-.88s-.36.12-.77.68Z"/><path class="cls-6" d="M224,19.89v-.3c.66-.06.67-.12.67-.71V16.75c0-.45-.09-.47-.43-.53l-.25,0v-.27a7.23,7.23,0,0,0,1.49-.36v3.33c0,.59,0,.64.67.71v.3Z"/><path class="cls-6" d="M226.94,19.89v-.3c.66-.06.67-.12.67-.71V16.75c0-.45-.09-.47-.43-.53l-.25,0v-.27a7.23,7.23,0,0,0,1.49-.36v3.33c0,.59,0,.64.67.71v.3Z"/><line class="cls-9" x1="241.97" y1="47.65" x2="275.99" y2="47.65"/><polygon class="cls-6" points="274.53 52.63 283.16 47.65 274.53 42.66 274.53 52.63"/><path class="cls-6" d="M271.86,35.07c.51-.8,1-1.24,1.42-1.24s.57.38.84,1.3l.18.64c1.05-1.44,1.56-1.94,2.1-1.94a.48.48,0,0,1,.51.51.9.9,0,0,1-.29.58c-.11.08-.18.11-.25.09s-.27-.32-.45-.32-.72.48-1.48,1.54l.39,1.22c.23.72.41,1.08.61,1.08s.41-.15.88-.71l.21.28c-.51.81-1.1,1.28-1.53,1.28s-.59-.4-.88-1.3l-.32-1c-1.18,1.69-1.69,2.34-2.23,2.34a.52.52,0,0,1-.53-.56c0-.35.3-.72.53-.72s.27.32.44.32.6-.37,1.66-1.83l-.33-1.06c-.2-.65-.31-.88-.48-.88s-.36.12-.76.69Z"/><path class="cls-6" d="M277.2,39.34V39c.66-.06.67-.12.67-.7V36.2c0-.44-.1-.47-.43-.53l-.26,0v-.28a6.64,6.64,0,0,0,1.49-.36v3.34c0,.58,0,.63.67.7v.3Z"/><path class="cls-6" d="M280.12,35.94l.4-.52a1.46,1.46,0,0,1,1-.42,1.07,1.07,0,0,1,1.2,1c0,.42-.33.67-.77.88.65.12,1.07.45,1.07,1,0,1.07-1.51,1.58-2,1.58a1.31,1.31,0,0,1-.85-.3.31.31,0,0,1-.11-.34.52.52,0,0,1,.2-.28.19.19,0,0,1,.26,0,1.4,1.4,0,0,0,.92.45.77.77,0,0,0,.78-.87.78.78,0,0,0-.81-.82,1.89,1.89,0,0,0-.6.08l-.09-.3c.82-.23,1.2-.47,1.2-.9a.57.57,0,0,0-.64-.58,1.23,1.23,0,0,0-.95.59Z"/><line class="cls-9" x1="241.59" y1="126.88" x2="215.96" y2="104.52"/><polygon class="cls-6" points="220.34 101.72 210.55 99.8 213.78 109.23 220.34 101.72"/><path class="cls-6" d="M249.56,155.44c.51-.8,1-1.25,1.42-1.25s.57.39.84,1.31l.18.64c1.05-1.44,1.56-1.95,2.1-1.95a.48.48,0,0,1,.51.52.86.86,0,0,1-.29.57.31.31,0,0,1-.25.1c-.14,0-.27-.32-.45-.32s-.72.48-1.48,1.53l.39,1.23c.23.71.41,1.08.61,1.08s.41-.15.88-.71l.21.27c-.51.82-1.1,1.29-1.53,1.29s-.59-.4-.88-1.3l-.32-1c-1.18,1.69-1.69,2.34-2.23,2.34a.53.53,0,0,1-.53-.57c0-.35.3-.72.53-.72s.28.33.44.33.6-.38,1.66-1.84l-.33-1c-.2-.65-.31-.88-.48-.88s-.36.12-.76.68Z"/><path class="cls-6" d="M258.15,158.61a7.5,7.5,0,0,0-.29,1.1h-3v-.29c1-.81,2-1.6,2-2.54a.77.77,0,0,0-.8-.88,1.32,1.32,0,0,0-1,.66l-.23-.22.4-.54a1.5,1.5,0,0,1,1.18-.53,1.28,1.28,0,0,1,1.33,1.31c0,.57-.28,1-1.21,1.82l-.68.57H257c.44,0,.6-.07.83-.56Z"/><path class="cls-6" d="M262.25,158.61a11.3,11.3,0,0,0-.29,1.1H259v-.29c.95-.81,2-1.6,2-2.54a.78.78,0,0,0-.81-.88,1.33,1.33,0,0,0-1,.66l-.22-.22.39-.54a1.53,1.53,0,0,1,1.19-.53,1.29,1.29,0,0,1,1.33,1.31c0,.57-.29,1-1.21,1.82l-.69.57h1.16c.44,0,.6-.07.82-.56Z"/><line class="cls-9" x1="241.59" y1="126.88" x2="241.59" y2="156.44"/><polygon class="cls-6" points="236.61 154.98 241.59 163.62 246.58 154.98 236.61 154.98"/><path class="cls-6" d="M218.54,94.85c.52-.8,1-1.24,1.43-1.24s.56.38.84,1.3l.18.64c1-1.44,1.56-1.94,2.1-1.94a.47.47,0,0,1,.5.51.86.86,0,0,1-.29.58.33.33,0,0,1-.25.09c-.13,0-.26-.32-.44-.32s-.72.48-1.49,1.53l.4,1.23c.22.72.4,1.08.61,1.08s.4-.15.87-.71l.22.27c-.52.82-1.11,1.29-1.54,1.29s-.58-.4-.87-1.3l-.33-1c-1.17,1.69-1.69,2.34-2.23,2.34a.52.52,0,0,1-.52-.57c0-.34.3-.72.52-.72s.28.33.45.33.6-.37,1.65-1.84l-.32-1c-.21-.65-.31-.88-.48-.88s-.36.12-.77.69Z"/><path class="cls-6" d="M227.13,98a9,9,0,0,0-.29,1.1h-3v-.29c1-.81,2-1.6,2-2.54a.77.77,0,0,0-.81-.87,1.31,1.31,0,0,0-1,.66l-.23-.23.4-.54a1.53,1.53,0,0,1,1.19-.53,1.29,1.29,0,0,1,1.33,1.31c0,.57-.29,1-1.21,1.82l-.69.58H226c.44,0,.59-.08.82-.57Z"/><path class="cls-6" d="M228,99.12v-.3c.65-.06.67-.12.67-.71V96c0-.44-.1-.47-.44-.53l-.25,0v-.28a6.64,6.64,0,0,0,1.49-.36v3.33c0,.59,0,.64.67.71v.3Z"/><line class="cls-9" x1="241.85" y1="126.88" x2="275.86" y2="126.88"/><polygon class="cls-6" points="274.4 131.87 283.04 126.88 274.4 121.89 274.4 131.87"/><path class="cls-6" d="M271.73,114.31c.52-.81,1-1.25,1.43-1.25s.57.38.84,1.31l.18.63c1-1.44,1.56-1.94,2.1-1.94a.46.46,0,0,1,.5.51.89.89,0,0,1-.28.58.36.36,0,0,1-.26.1c-.13,0-.26-.33-.44-.33s-.72.48-1.49,1.54l.4,1.22c.23.72.41,1.08.61,1.08s.41-.14.88-.71l.21.28c-.51.81-1.1,1.28-1.53,1.28s-.59-.39-.88-1.29l-.32-1c-1.18,1.69-1.69,2.34-2.23,2.34a.52.52,0,0,1-.53-.56c0-.35.3-.72.53-.72s.27.32.44.32.6-.37,1.66-1.83l-.33-1.06c-.2-.65-.31-.87-.48-.87s-.36.12-.77.68Z"/><path class="cls-6" d="M280.32,117.47a9.5,9.5,0,0,0-.28,1.11h-3v-.29c.94-.82,2-1.61,2-2.54a.77.77,0,0,0-.8-.88,1.29,1.29,0,0,0-1,.66l-.23-.23.39-.54a1.56,1.56,0,0,1,1.19-.53,1.29,1.29,0,0,1,1.33,1.31c0,.58-.29,1-1.21,1.82l-.68.58h1.15c.44,0,.6-.07.83-.56Z"/><path class="cls-6" d="M281.17,115.17l.39-.52a1.5,1.5,0,0,1,1-.42c.74,0,1.2.45,1.2,1s-.33.67-.76.88c.64.12,1.06.45,1.06,1,0,1.07-1.51,1.59-2,1.59a1.32,1.32,0,0,1-.85-.3.29.29,0,0,1-.11-.35.51.51,0,0,1,.19-.28.19.19,0,0,1,.26,0,1.44,1.44,0,0,0,.93.45.77.77,0,0,0,.78-.87.79.79,0,0,0-.82-.82,1.89,1.89,0,0,0-.6.08l-.08-.3c.81-.23,1.2-.47,1.2-.9a.58.58,0,0,0-.65-.57,1.27,1.27,0,0,0-.95.58Z"/></g></g></svg>