<svg xmlns="http://www.w3.org/2000/svg" viewBox="0 0 624.1 229.52"><defs><style>.cls-1{fill:#437dbb;}.cls-2,.cls-3,.cls-4{fill:none;stroke-linejoin:round;}.cls-2,.cls-4{stroke:#000001;}.cls-2{stroke-width:1.5px;}.cls-3{stroke:#ed1c24;}.cls-4{stroke-width:0.75px;stroke-dasharray:3 2.25;}.cls-5{font-size:26.84px;fill:#231f20;font-family:MyriadPro-Regular, Myriad Pro;}</style></defs><g id="Layer_2" data-name="Layer 2"><g id="Layer_1-2" data-name="Layer 1"><ellipse class="cls-1" cx="84.5" cy="114.27" rx="14" ry="7"/><path class="cls-2" d="M13.5,2.27c14,36.73,28,73.47,28,111.3s-28,115.7-28,115.7"/><path class="cls-2" d="M84.5,1.27c14.5,36.73,29,73.47,29,111.3s-29,115.7-29,115.7"/><circle class="cls-2" cx="85" cy="114.77" r="28.5"/><path class="cls-3" d="M57,1.77C71,38.5,85,75.24,85,113.07s-28,115.7-28,115.7"/><line class="cls-4" x1="170.1" y1="114.77" y2="114.77"/><polygon class="cls-2" points="90.5 109.27 90.5 114.27 90.5 109.27 84.5 109.27 90.5 109.27"/><ellipse class="cls-1" cx="311.5" cy="107.27" rx="14" ry="7"/><path class="cls-2" d="M239.5,1.27c14.5,36.73,29,73.47,29,111.3s-29,115.7-29,115.7"/><path class="cls-2" d="M311.5.27c14,36.73,28,73.47,28,111.3s-28,115.7-28,115.7"/><ellipse class="cls-2" cx="311.5" cy="113.77" rx="28" ry="28.5"/><path class="cls-3" d="M284,.77c14,36.73,28,73.47,28,111.3s-28,115.7-28,115.7"/><line class="cls-4" x1="397.1" y1="113.77" x2="227" y2="113.77"/><ellipse class="cls-1" cx="538.3" cy="113.57" rx="14.17" ry="7.09" transform="translate(-10.35 154.11) rotate(-16.14)"/><path class="cls-2" d="M466.5,1.27c14.5,36.73,29,73.47,29,111.3s-29,115.7-29,115.7"/><path class="cls-2" d="M538.5.27c14,36.73,28,73.47,28,111.3s-28,115.7-28,115.7"/><circle class="cls-2" cx="538" cy="113.77" r="28.5"/><path class="cls-3" d="M510,.77c14.5,36.73,29,73.47,29,111.3s-29,115.7-29,115.7"/><line class="cls-4" x1="624.1" y1="113.77" x2="454" y2="113.77"/><text class="cls-5" transform="translate(577.73 94.79) scale(1.5 1)">?</text><text class="cls-5" transform="translate(351.61 95.09) scale(1.5 1)">?</text><text class="cls-5" transform="translate(122.73 100.27) scale(1.5 1)">?</text></g></g></svg>