<?xml version="1.0" encoding="utf-8" standalone="no"?>
<!DOCTYPE svg PUBLIC "-//W3C//DTD SVG 1.1//EN"
  "http://www.w3.org/Graphics/SVG/1.1/DTD/svg11.dtd">
<!-- Created with matplotlib (https://matplotlib.org/) -->
<svg height="288pt" version="1.1" viewBox="0 0 432 288" width="432pt" xmlns="http://www.w3.org/2000/svg" xmlns:xlink="http://www.w3.org/1999/xlink">
 <metadata>
  <rdf:RDF xmlns:cc="http://creativecommons.org/ns#" xmlns:dc="http://purl.org/dc/elements/1.1/" xmlns:rdf="http://www.w3.org/1999/02/22-rdf-syntax-ns#">
   <cc:Work>
    <dc:type rdf:resource="http://purl.org/dc/dcmitype/StillImage"/>
    <dc:date>2021-09-02T16:14:31.258099</dc:date>
    <dc:format>image/svg+xml</dc:format>
    <dc:creator>
     <cc:Agent>
      <dc:title>Matplotlib v3.3.4, https://matplotlib.org/</dc:title>
     </cc:Agent>
    </dc:creator>
   </cc:Work>
  </rdf:RDF>
 </metadata>
 <defs>
  <style type="text/css">*{stroke-linecap:butt;stroke-linejoin:round;}</style>
 </defs>
 <g id="figure_1">
  <g id="patch_1">
   <path d="M 0 288 
L 432 288 
L 432 0 
L 0 0 
z
" style="fill:none;"/>
  </g>
  <g id="axes_1">
   <g id="patch_2">
    <path d="M 54 215.129951 
L 206.181818 215.129951 
L 206.181818 71.430049 
L 54 71.430049 
z
" style="fill:#ffffff;"/>
   </g>
   <g id="matplotlib.axis_1">
    <g id="xtick_1">
     <g id="line2d_1">
      <defs>
       <path d="M 0 0 
L 0 3.5 
" id="m7138a83f50" style="stroke:#000000;stroke-width:0.8;"/>
      </defs>
      <g>
       <use style="stroke:#000000;stroke-width:0.8;" x="84.976745" xlink:href="#m7138a83f50" y="215.129951"/>
      </g>
     </g>
     <g id="text_1">
      <!-- −0.5 -->
      <g transform="translate(72.835339 229.728389)scale(0.1 -0.1)">
       <defs>
        <path d="M 10.59375 35.5 
L 73.1875 35.5 
L 73.1875 27.203125 
L 10.59375 27.203125 
z
" id="DejaVuSans-8722"/>
        <path d="M 31.78125 66.40625 
Q 24.171875 66.40625 20.328125 58.90625 
Q 16.5 51.421875 16.5 36.375 
Q 16.5 21.390625 20.328125 13.890625 
Q 24.171875 6.390625 31.78125 6.390625 
Q 39.453125 6.390625 43.28125 13.890625 
Q 47.125 21.390625 47.125 36.375 
Q 47.125 51.421875 43.28125 58.90625 
Q 39.453125 66.40625 31.78125 66.40625 
z
M 31.78125 74.21875 
Q 44.046875 74.21875 50.515625 64.515625 
Q 56.984375 54.828125 56.984375 36.375 
Q 56.984375 17.96875 50.515625 8.265625 
Q 44.046875 -1.421875 31.78125 -1.421875 
Q 19.53125 -1.421875 13.0625 8.265625 
Q 6.59375 17.96875 6.59375 36.375 
Q 6.59375 54.828125 13.0625 64.515625 
Q 19.53125 74.21875 31.78125 74.21875 
z
" id="DejaVuSans-48"/>
        <path d="M 10.6875 12.40625 
L 21 12.40625 
L 21 0 
L 10.6875 0 
z
" id="DejaVuSans-46"/>
        <path d="M 10.796875 72.90625 
L 49.515625 72.90625 
L 49.515625 64.59375 
L 19.828125 64.59375 
L 19.828125 46.734375 
Q 21.96875 47.46875 24.109375 47.828125 
Q 26.265625 48.1875 28.421875 48.1875 
Q 40.625 48.1875 47.75 41.5 
Q 54.890625 34.8125 54.890625 23.390625 
Q 54.890625 11.625 47.5625 5.09375 
Q 40.234375 -1.421875 26.90625 -1.421875 
Q 22.3125 -1.421875 17.546875 -0.640625 
Q 12.796875 0.140625 7.71875 1.703125 
L 7.71875 11.625 
Q 12.109375 9.234375 16.796875 8.0625 
Q 21.484375 6.890625 26.703125 6.890625 
Q 35.15625 6.890625 40.078125 11.328125 
Q 45.015625 15.765625 45.015625 23.390625 
Q 45.015625 31 40.078125 35.4375 
Q 35.15625 39.890625 26.703125 39.890625 
Q 22.75 39.890625 18.8125 39.015625 
Q 14.890625 38.140625 10.796875 36.28125 
z
" id="DejaVuSans-53"/>
       </defs>
       <use xlink:href="#DejaVuSans-8722"/>
       <use x="83.789062" xlink:href="#DejaVuSans-48"/>
       <use x="147.412109" xlink:href="#DejaVuSans-46"/>
       <use x="179.199219" xlink:href="#DejaVuSans-53"/>
      </g>
     </g>
    </g>
    <g id="xtick_2">
     <g id="line2d_2">
      <g>
       <use style="stroke:#000000;stroke-width:0.8;" x="127.73637" xlink:href="#m7138a83f50" y="215.129951"/>
      </g>
     </g>
     <g id="text_2">
      <!-- 0.0 -->
      <g transform="translate(119.784807 229.728389)scale(0.1 -0.1)">
       <use xlink:href="#DejaVuSans-48"/>
       <use x="63.623047" xlink:href="#DejaVuSans-46"/>
       <use x="95.410156" xlink:href="#DejaVuSans-48"/>
      </g>
     </g>
    </g>
    <g id="xtick_3">
     <g id="line2d_3">
      <g>
       <use style="stroke:#000000;stroke-width:0.8;" x="170.495995" xlink:href="#m7138a83f50" y="215.129951"/>
      </g>
     </g>
     <g id="text_3">
      <!-- 0.5 -->
      <g transform="translate(162.544432 229.728389)scale(0.1 -0.1)">
       <use xlink:href="#DejaVuSans-48"/>
       <use x="63.623047" xlink:href="#DejaVuSans-46"/>
       <use x="95.410156" xlink:href="#DejaVuSans-53"/>
      </g>
     </g>
    </g>
   </g>
   <g id="matplotlib.axis_2">
    <g id="ytick_1">
     <g id="line2d_4">
      <defs>
       <path d="M 0 0 
L -3.5 0 
" id="m71f7607648" style="stroke:#000000;stroke-width:0.8;"/>
      </defs>
      <g>
       <use style="stroke:#000000;stroke-width:0.8;" x="54" xlink:href="#m71f7607648" y="197.981351"/>
      </g>
     </g>
     <g id="text_4">
      <!-- 0.00 -->
      <g transform="translate(24.734375 201.78057)scale(0.1 -0.1)">
       <use xlink:href="#DejaVuSans-48"/>
       <use x="63.623047" xlink:href="#DejaVuSans-46"/>
       <use x="95.410156" xlink:href="#DejaVuSans-48"/>
       <use x="159.033203" xlink:href="#DejaVuSans-48"/>
      </g>
     </g>
    </g>
    <g id="ytick_2">
     <g id="line2d_5">
      <g>
       <use style="stroke:#000000;stroke-width:0.8;" x="54" xlink:href="#m71f7607648" y="176.601539"/>
      </g>
     </g>
     <g id="text_5">
      <!-- 0.25 -->
      <g transform="translate(24.734375 180.400757)scale(0.1 -0.1)">
       <defs>
        <path d="M 19.1875 8.296875 
L 53.609375 8.296875 
L 53.609375 0 
L 7.328125 0 
L 7.328125 8.296875 
Q 12.9375 14.109375 22.625 23.890625 
Q 32.328125 33.6875 34.8125 36.53125 
Q 39.546875 41.84375 41.421875 45.53125 
Q 43.3125 49.21875 43.3125 52.78125 
Q 43.3125 58.59375 39.234375 62.25 
Q 35.15625 65.921875 28.609375 65.921875 
Q 23.96875 65.921875 18.8125 64.3125 
Q 13.671875 62.703125 7.8125 59.421875 
L 7.8125 69.390625 
Q 13.765625 71.78125 18.9375 73 
Q 24.125 74.21875 28.421875 74.21875 
Q 39.75 74.21875 46.484375 68.546875 
Q 53.21875 62.890625 53.21875 53.421875 
Q 53.21875 48.921875 51.53125 44.890625 
Q 49.859375 40.875 45.40625 35.40625 
Q 44.1875 33.984375 37.640625 27.21875 
Q 31.109375 20.453125 19.1875 8.296875 
z
" id="DejaVuSans-50"/>
       </defs>
       <use xlink:href="#DejaVuSans-48"/>
       <use x="63.623047" xlink:href="#DejaVuSans-46"/>
       <use x="95.410156" xlink:href="#DejaVuSans-50"/>
       <use x="159.033203" xlink:href="#DejaVuSans-53"/>
      </g>
     </g>
    </g>
    <g id="ytick_3">
     <g id="line2d_6">
      <g>
       <use style="stroke:#000000;stroke-width:0.8;" x="54" xlink:href="#m71f7607648" y="155.221726"/>
      </g>
     </g>
     <g id="text_6">
      <!-- 0.50 -->
      <g transform="translate(24.734375 159.020945)scale(0.1 -0.1)">
       <use xlink:href="#DejaVuSans-48"/>
       <use x="63.623047" xlink:href="#DejaVuSans-46"/>
       <use x="95.410156" xlink:href="#DejaVuSans-53"/>
       <use x="159.033203" xlink:href="#DejaVuSans-48"/>
      </g>
     </g>
    </g>
    <g id="ytick_4">
     <g id="line2d_7">
      <g>
       <use style="stroke:#000000;stroke-width:0.8;" x="54" xlink:href="#m71f7607648" y="133.841914"/>
      </g>
     </g>
     <g id="text_7">
      <!-- 0.75 -->
      <g transform="translate(24.734375 137.641132)scale(0.1 -0.1)">
       <defs>
        <path d="M 8.203125 72.90625 
L 55.078125 72.90625 
L 55.078125 68.703125 
L 28.609375 0 
L 18.3125 0 
L 43.21875 64.59375 
L 8.203125 64.59375 
z
" id="DejaVuSans-55"/>
       </defs>
       <use xlink:href="#DejaVuSans-48"/>
       <use x="63.623047" xlink:href="#DejaVuSans-46"/>
       <use x="95.410156" xlink:href="#DejaVuSans-55"/>
       <use x="159.033203" xlink:href="#DejaVuSans-53"/>
      </g>
     </g>
    </g>
    <g id="ytick_5">
     <g id="line2d_8">
      <g>
       <use style="stroke:#000000;stroke-width:0.8;" x="54" xlink:href="#m71f7607648" y="112.462101"/>
      </g>
     </g>
     <g id="text_8">
      <!-- 1.00 -->
      <g transform="translate(24.734375 116.26132)scale(0.1 -0.1)">
       <defs>
        <path d="M 12.40625 8.296875 
L 28.515625 8.296875 
L 28.515625 63.921875 
L 10.984375 60.40625 
L 10.984375 69.390625 
L 28.421875 72.90625 
L 38.28125 72.90625 
L 38.28125 8.296875 
L 54.390625 8.296875 
L 54.390625 0 
L 12.40625 0 
z
" id="DejaVuSans-49"/>
       </defs>
       <use xlink:href="#DejaVuSans-49"/>
       <use x="63.623047" xlink:href="#DejaVuSans-46"/>
       <use x="95.410156" xlink:href="#DejaVuSans-48"/>
       <use x="159.033203" xlink:href="#DejaVuSans-48"/>
      </g>
     </g>
    </g>
    <g id="ytick_6">
     <g id="line2d_9">
      <g>
       <use style="stroke:#000000;stroke-width:0.8;" x="54" xlink:href="#m71f7607648" y="91.082289"/>
      </g>
     </g>
     <g id="text_9">
      <!-- 1.25 -->
      <g transform="translate(24.734375 94.881507)scale(0.1 -0.1)">
       <use xlink:href="#DejaVuSans-49"/>
       <use x="63.623047" xlink:href="#DejaVuSans-46"/>
       <use x="95.410156" xlink:href="#DejaVuSans-50"/>
       <use x="159.033203" xlink:href="#DejaVuSans-53"/>
      </g>
     </g>
    </g>
   </g>
   <g id="line2d_10">
    <path clip-path="url(#p595f763f1b)" d="M 82.219773 181.133207 
L 85.246962 178.277558 
L 88.550029 175.472324 
L 92.620797 172.324826 
L 97.519215 168.853937 
L 103.276236 165.078067 
L 109.880935 161.014163 
L 119.123289 155.606393 
L 140.050195 143.457796 
L 145.951811 139.737444 
L 150.382732 136.716119 
L 153.960316 134.042885 
L 157.147245 131.377373 
L 159.576949 129.048413 
L 161.366927 127.052643 
L 162.86504 125.055635 
L 163.875647 123.389365 
L 164.657335 121.720204 
L 165.198178 120.047229 
L 165.486251 118.369518 
L 165.509629 116.686147 
L 165.329738 115.334756 
L 164.966705 113.978678 
L 164.414424 112.617443 
L 163.448642 110.907926 
L 163.448642 110.907926 
" style="fill:none;stroke:#1f77b4;stroke-linecap:square;stroke-width:1.5;"/>
   </g>
   <g id="line2d_11">
    <path clip-path="url(#p595f763f1b)" d="M 101.225962 156.952883 
L 106.207223 161.07422 
L 110.345847 165.905714 
L 113.513008 171.258795 
L 115.614899 176.926205 
L 116.59592 182.689462 
L 116.440507 188.326719 
L 115.173535 193.620742 
L 112.859297 198.366714 
L 109.599087 202.379587 
L 105.527488 205.500718 
L 100.807503 207.603549 
L 95.624687 208.598138 
L 90.180526 208.434364 
L 84.685253 207.103708 
L 79.350404 204.639534 
L 74.381339 201.115876 
L 69.970015 196.644758 
L 66.288253 191.372165 
L 63.481744 185.472794 
L 61.664988 179.143783 
L 60.917355 172.597642 
L 61.280397 166.054636 
L 62.756495 159.7349 
L 65.308894 153.850565 
L 68.863117 148.598172 
L 73.309697 144.151654 
L 78.508134 140.656131 
L 84.291933 138.222735 
L 90.474538 136.924659 
L 96.855957 136.794562 
L 103.229838 137.823425 
L 109.390746 139.960888 
L 115.141396 143.117077 
L 120.299567 147.165824 
L 124.70448 151.949189 
L 128.222398 157.28311 
L 130.751264 162.963975 
L 132.224218 168.775891 
L 132.611863 174.498386 
L 131.923215 179.914261 
L 130.205298 184.817325 
L 127.54141 189.019733 
L 124.048117 192.358658 
L 119.871081 194.702076 
L 115.179884 195.953445 
L 110.162011 196.055119 
L 105.016229 194.990375 
L 99.945569 192.783989 
L 95.150177 189.501328 
L 90.820277 185.246006 
L 87.129492 180.156181 
L 84.228757 174.39963 
L 82.241034 168.167772 
L 81.257022 161.66886 
L 81.331996 155.12058 
L 82.483899 148.742322 
L 84.692739 142.747397 
L 87.901322 137.335472 
L 92.017293 132.685501 
L 96.916398 128.949393 
L 102.446875 126.246642 
L 108.434798 124.660116 
L 114.690206 124.233141 
L 121.013779 124.967989 
L 127.203854 126.825825 
L 133.063511 129.728102 
L 138.407498 133.559369 
L 143.068743 138.171375 
L 146.90423 143.388335 
L 149.800027 149.013157 
L 151.675302 154.834431 
L 152.485173 160.633905 
L 152.222295 166.1942 
L 150.917135 171.306494 
L 148.636919 175.777884 
L 145.483284 179.438196 
L 141.588721 182.145971 
L 137.111937 183.793442 
L 132.232283 184.310312 
L 127.143456 183.666214 
L 122.046693 181.87175 
L 117.143688 178.978094 
L 112.629484 175.075161 
L 108.685595 170.28841 
L 105.473585 164.774402 
L 103.129347 158.715264 
L 101.758272 152.312258 
L 101.431483 145.778679 
L 102.183267 139.332343 
L 104.009804 133.187917 
L 106.869221 127.549367 
L 110.683003 122.602793 
L 115.33868 118.509894 
L 120.693727 115.402302 
L 126.580523 113.376974 
L 132.812208 112.492809 
L 139.18923 112.768606 
L 145.506355 114.182425 
L 151.559894 116.672395 
L 157.154897 120.138901 
L 162.112049 124.448118 
L 166.27404 129.436719 
L 169.511178 134.917631 
L 171.726033 140.68661 
L 172.856969 146.529411 
L 172.880409 152.229308 
L 171.81178 157.574691 
L 169.705069 162.36647 
L 166.651022 166.425047 
L 162.774044 169.596588 
L 158.227891 171.758391 
L 153.190319 172.823163 
L 147.856865 172.742044 
L 142.433979 171.506299 
L 137.131748 169.147587 
L 132.156466 165.736837 
L 127.703318 161.381734 
L 123.949424 156.222938 
L 121.047508 150.429143 
L 119.120399 144.191167 
L 118.256584 137.715276 
L 118.506944 131.215969 
L 119.882829 124.908488 
L 122.355516 119.001303 
L 125.857088 113.688843 
L 130.282706 109.144726 
L 135.494199 105.515709 
L 141.324845 102.916595 
L 147.585192 101.426244 
L 154.069696 101.084847 
L 160.563961 101.892548 
L 166.852316 103.80946 
L 172.725467 106.757072 
L 177.987951 110.621008 
L 182.465122 115.255025 
L 186.009426 120.486115 
L 188.505734 126.120538 
L 189.875539 131.950576 
L 190.079872 137.761754 
L 189.120811 143.34031 
L 187.041547 148.480614 
L 183.924975 152.992322 
L 179.890873 156.706974 
L 175.09176 159.483844 
L 169.707563 161.214813 
L 163.9393 161.828114 
L 158.001985 161.29081 
L 152.117011 159.609925 
L 146.504278 156.832189 
L 141.374357 153.042404 
L 136.920951 148.360492 
L 133.31394 142.937327 
L 130.693259 136.949498 
L 129.163819 130.593176 
L 128.791666 124.077315 
L 129.601521 117.616404 
L 131.575786 111.423033 
L 134.655061 105.700527 
L 138.740157 100.635903 
L 143.695535 96.39339 
L 149.354057 93.108744 
L 155.522878 90.884541 
L 161.990272 89.786633 
L 168.533145 89.841855 
L 174.92498 91.037101 
L 180.943917 93.31977 
L 186.380678 96.599576 
L 191.046064 100.751677 
L 194.777742 105.620975 
L 197.446084 111.027485 
L 198.958836 116.772552 
L 199.264463 122.645717 
L 198.354032 128.431996 
L 196.261573 133.919315 
L 193.062896 138.905843 
L 188.872911 143.206984 
L 183.841542 146.661761 
L 178.148376 149.138404 
L 171.996252 150.538916 
L 165.604007 150.802484 
L 159.198644 149.907604 
L 153.007211 147.872846 
L 147.248669 144.756242 
L 142.126063 140.653301 
L 137.819254 135.693738 
L 134.478498 130.037007 
L 132.219087 123.866811 
L 131.117252 117.384764 
L 131.207477 110.803435 
L 132.481311 104.338999 
L 134.887731 98.203759 
L 138.335037 92.598795 
L 142.6942 87.706995 
L 147.803551 83.686703 
L 153.474639 80.66621 
L 159.499037 78.73928 
L 165.655846 77.961862 
L 171.719635 78.350112 
L 177.468525 79.879779 
L 177.468525 79.879779 
" style="fill:none;stroke:#ff7f0e;stroke-linecap:square;stroke-width:1.5;"/>
   </g>
   <g id="patch_3">
    <path d="M 54 215.129951 
L 54 71.430049 
" style="fill:none;stroke:#000000;stroke-linecap:square;stroke-linejoin:miter;stroke-width:0.8;"/>
   </g>
   <g id="patch_4">
    <path d="M 206.181818 215.129951 
L 206.181818 71.430049 
" style="fill:none;stroke:#000000;stroke-linecap:square;stroke-linejoin:miter;stroke-width:0.8;"/>
   </g>
   <g id="patch_5">
    <path d="M 54 215.129951 
L 206.181818 215.129951 
" style="fill:none;stroke:#000000;stroke-linecap:square;stroke-linejoin:miter;stroke-width:0.8;"/>
   </g>
   <g id="patch_6">
    <path d="M 54 71.430049 
L 206.181818 71.430049 
" style="fill:none;stroke:#000000;stroke-linecap:square;stroke-linejoin:miter;stroke-width:0.8;"/>
   </g>
  </g>
  <g id="axes_2">
   <g id="patch_7">
    <path d="M 253.812172 252 
L 371.60601 252 
L 371.60601 34.56 
L 253.812172 34.56 
z
" style="fill:#ffffff;"/>
   </g>
   <g id="matplotlib.axis_3">
    <g id="xtick_4">
     <g id="line2d_12">
      <g>
       <use style="stroke:#000000;stroke-width:0.8;" x="277.789213" xlink:href="#m7138a83f50" y="252"/>
      </g>
     </g>
     <g id="text_10">
      <!-- −0.5 -->
      <g transform="translate(265.647807 266.598437)scale(0.1 -0.1)">
       <use xlink:href="#DejaVuSans-8722"/>
       <use x="83.789062" xlink:href="#DejaVuSans-48"/>
       <use x="147.412109" xlink:href="#DejaVuSans-46"/>
       <use x="179.199219" xlink:href="#DejaVuSans-53"/>
      </g>
     </g>
    </g>
    <g id="xtick_5">
     <g id="line2d_13">
      <g>
       <use style="stroke:#000000;stroke-width:0.8;" x="310.886599" xlink:href="#m7138a83f50" y="252"/>
      </g>
     </g>
     <g id="text_11">
      <!-- 0.0 -->
      <g transform="translate(302.935036 266.598437)scale(0.1 -0.1)">
       <use xlink:href="#DejaVuSans-48"/>
       <use x="63.623047" xlink:href="#DejaVuSans-46"/>
       <use x="95.410156" xlink:href="#DejaVuSans-48"/>
      </g>
     </g>
    </g>
    <g id="xtick_6">
     <g id="line2d_14">
      <g>
       <use style="stroke:#000000;stroke-width:0.8;" x="343.983984" xlink:href="#m7138a83f50" y="252"/>
      </g>
     </g>
     <g id="text_12">
      <!-- 0.5 -->
      <g transform="translate(336.032422 266.598437)scale(0.1 -0.1)">
       <use xlink:href="#DejaVuSans-48"/>
       <use x="63.623047" xlink:href="#DejaVuSans-46"/>
       <use x="95.410156" xlink:href="#DejaVuSans-53"/>
      </g>
     </g>
    </g>
   </g>
   <g id="matplotlib.axis_4">
    <g id="ytick_7">
     <g id="line2d_15">
      <g>
       <use style="stroke:#000000;stroke-width:0.8;" x="253.812172" xlink:href="#m71f7607648" y="229.902253"/>
      </g>
     </g>
     <g id="text_13">
      <!-- −3.5 -->
      <g transform="translate(222.52936 233.701471)scale(0.1 -0.1)">
       <defs>
        <path d="M 40.578125 39.3125 
Q 47.65625 37.796875 51.625 33 
Q 55.609375 28.21875 55.609375 21.1875 
Q 55.609375 10.40625 48.1875 4.484375 
Q 40.765625 -1.421875 27.09375 -1.421875 
Q 22.515625 -1.421875 17.65625 -0.515625 
Q 12.796875 0.390625 7.625 2.203125 
L 7.625 11.71875 
Q 11.71875 9.328125 16.59375 8.109375 
Q 21.484375 6.890625 26.8125 6.890625 
Q 36.078125 6.890625 40.9375 10.546875 
Q 45.796875 14.203125 45.796875 21.1875 
Q 45.796875 27.640625 41.28125 31.265625 
Q 36.765625 34.90625 28.71875 34.90625 
L 20.21875 34.90625 
L 20.21875 43.015625 
L 29.109375 43.015625 
Q 36.375 43.015625 40.234375 45.921875 
Q 44.09375 48.828125 44.09375 54.296875 
Q 44.09375 59.90625 40.109375 62.90625 
Q 36.140625 65.921875 28.71875 65.921875 
Q 24.65625 65.921875 20.015625 65.03125 
Q 15.375 64.15625 9.8125 62.3125 
L 9.8125 71.09375 
Q 15.4375 72.65625 20.34375 73.4375 
Q 25.25 74.21875 29.59375 74.21875 
Q 40.828125 74.21875 47.359375 69.109375 
Q 53.90625 64.015625 53.90625 55.328125 
Q 53.90625 49.265625 50.4375 45.09375 
Q 46.96875 40.921875 40.578125 39.3125 
z
" id="DejaVuSans-51"/>
       </defs>
       <use xlink:href="#DejaVuSans-8722"/>
       <use x="83.789062" xlink:href="#DejaVuSans-51"/>
       <use x="147.412109" xlink:href="#DejaVuSans-46"/>
       <use x="179.199219" xlink:href="#DejaVuSans-53"/>
      </g>
     </g>
    </g>
    <g id="ytick_8">
     <g id="line2d_16">
      <g>
       <use style="stroke:#000000;stroke-width:0.8;" x="253.812172" xlink:href="#m71f7607648" y="196.804867"/>
      </g>
     </g>
     <g id="text_14">
      <!-- −3.0 -->
      <g transform="translate(222.52936 200.604086)scale(0.1 -0.1)">
       <use xlink:href="#DejaVuSans-8722"/>
       <use x="83.789062" xlink:href="#DejaVuSans-51"/>
       <use x="147.412109" xlink:href="#DejaVuSans-46"/>
       <use x="179.199219" xlink:href="#DejaVuSans-48"/>
      </g>
     </g>
    </g>
    <g id="ytick_9">
     <g id="line2d_17">
      <g>
       <use style="stroke:#000000;stroke-width:0.8;" x="253.812172" xlink:href="#m71f7607648" y="163.707481"/>
      </g>
     </g>
     <g id="text_15">
      <!-- −2.5 -->
      <g transform="translate(222.52936 167.5067)scale(0.1 -0.1)">
       <use xlink:href="#DejaVuSans-8722"/>
       <use x="83.789062" xlink:href="#DejaVuSans-50"/>
       <use x="147.412109" xlink:href="#DejaVuSans-46"/>
       <use x="179.199219" xlink:href="#DejaVuSans-53"/>
      </g>
     </g>
    </g>
    <g id="ytick_10">
     <g id="line2d_18">
      <g>
       <use style="stroke:#000000;stroke-width:0.8;" x="253.812172" xlink:href="#m71f7607648" y="130.610096"/>
      </g>
     </g>
     <g id="text_16">
      <!-- −2.0 -->
      <g transform="translate(222.52936 134.409314)scale(0.1 -0.1)">
       <use xlink:href="#DejaVuSans-8722"/>
       <use x="83.789062" xlink:href="#DejaVuSans-50"/>
       <use x="147.412109" xlink:href="#DejaVuSans-46"/>
       <use x="179.199219" xlink:href="#DejaVuSans-48"/>
      </g>
     </g>
    </g>
    <g id="ytick_11">
     <g id="line2d_19">
      <g>
       <use style="stroke:#000000;stroke-width:0.8;" x="253.812172" xlink:href="#m71f7607648" y="97.51271"/>
      </g>
     </g>
     <g id="text_17">
      <!-- −1.5 -->
      <g transform="translate(222.52936 101.311929)scale(0.1 -0.1)">
       <use xlink:href="#DejaVuSans-8722"/>
       <use x="83.789062" xlink:href="#DejaVuSans-49"/>
       <use x="147.412109" xlink:href="#DejaVuSans-46"/>
       <use x="179.199219" xlink:href="#DejaVuSans-53"/>
      </g>
     </g>
    </g>
    <g id="ytick_12">
     <g id="line2d_20">
      <g>
       <use style="stroke:#000000;stroke-width:0.8;" x="253.812172" xlink:href="#m71f7607648" y="64.415324"/>
      </g>
     </g>
     <g id="text_18">
      <!-- −1.0 -->
      <g transform="translate(222.52936 68.214543)scale(0.1 -0.1)">
       <use xlink:href="#DejaVuSans-8722"/>
       <use x="83.789062" xlink:href="#DejaVuSans-49"/>
       <use x="147.412109" xlink:href="#DejaVuSans-46"/>
       <use x="179.199219" xlink:href="#DejaVuSans-48"/>
      </g>
     </g>
    </g>
   </g>
   <g id="line2d_21">
    <path clip-path="url(#p80ecf3d399)" d="M 275.655224 56.034604 
L 277.99837 62.43113 
L 280.555055 68.767199 
L 283.705966 75.944776 
L 287.497506 83.952852 
L 291.953633 92.788067 
L 297.53833 103.335477 
L 316.436847 138.568724 
L 320.847952 147.517075 
L 324.183752 154.748947 
L 327.306963 162.058969 
L 329.835663 168.528848 
L 332.147326 175.07591 
L 333.936808 180.755247 
L 335.532276 186.502338 
L 336.917779 192.322282 
L 338.077369 198.220176 
L 338.995094 204.201121 
L 339.5636 209.252361 
L 339.943839 214.367765 
L 340.126579 219.550286 
L 340.102591 224.802872 
L 339.862643 230.128476 
L 339.397507 235.530047 
L 338.69795 241.010536 
L 338.529096 242.116364 
L 338.529096 242.116364 
" style="fill:none;stroke:#1f77b4;stroke-linecap:square;stroke-width:1.5;"/>
   </g>
   <g id="line2d_22">
    <path clip-path="url(#p80ecf3d399)" d="M 290.366652 44.443636 
L 294.222316 45.253574 
L 297.42575 46.445221 
L 299.877239 48.015695 
L 301.504173 49.94928 
L 302.263516 52.217697 
L 302.143221 54.780812 
L 301.162542 57.587777 
L 299.371244 60.578563 
L 296.847732 63.685852 
L 293.696178 66.837219 
L 290.042751 69.957532 
L 286.031078 72.971505 
L 281.817114 75.806295 
L 277.563588 78.394067 
L 273.434236 80.674426 
L 269.588013 82.596636 
L 266.1735 84.121531 
L 263.323693 85.223059 
L 261.15136 85.889382 
L 259.74513 86.123494 
L 259.166437 85.943331 
L 259.447444 85.381347 
L 260.589993 84.483576 
L 262.565636 83.308199 
L 265.316724 81.923662 
L 268.758526 80.406405 
L 272.782291 78.838275 
L 277.259145 77.303718 
L 282.044689 75.886845 
L 286.984122 74.668467 
L 291.91772 73.723218 
L 296.68647 73.116866 
L 301.137666 72.903905 
L 305.130264 73.125521 
L 308.539814 73.808015 
L 311.262801 74.961739 
L 313.220228 76.580583 
L 314.360344 78.642052 
L 314.660394 81.107925 
L 314.127357 83.925477 
L 312.797631 87.029235 
L 310.735693 90.343201 
L 308.031767 93.783471 
L 304.798601 97.261152 
L 301.167456 100.685488 
L 297.283455 103.967068 
L 293.300447 107.021015 
L 289.375586 109.770027 
L 285.663791 112.14718 
L 282.312303 114.09836 
L 279.455512 115.584264 
L 277.210245 116.581879 
L 275.671681 117.085379 
L 274.910022 117.10642 
L 274.968055 116.673798 
L 275.859667 115.832498 
L 277.569383 114.642157 
L 280.052934 113.174982 
L 283.238834 111.513225 
L 287.030905 109.746267 
L 291.31168 107.96745 
L 295.946534 106.270747 
L 300.78843 104.747395 
L 305.683087 103.482625 
L 310.474413 102.552588 
L 315.009984 102.021609 
L 319.14641 101.939854 
L 322.75437 102.341504 
L 325.723166 103.243509 
L 327.96461 104.644949 
L 329.416136 106.527057 
L 330.043003 108.853869 
L 329.839527 111.573514 
L 328.829289 114.620074 
L 327.064325 117.915954 
L 324.623306 121.37468 
L 321.608784 124.904021 
L 318.143603 128.409323 
L 314.366586 131.796927 
L 310.427663 134.977555 
L 306.482597 137.869539 
L 302.687507 140.401766 
L 299.193362 142.516242 
L 296.140659 144.170176 
L 293.654455 145.337507 
L 291.839936 146.00982 
L 290.778678 146.196619 
L 290.525732 145.92494 
L 291.107639 145.238327 
L 292.521439 144.195211 
L 294.734724 142.866736 
L 297.68672 141.334134 
L 301.29037 139.685731 
L 305.435357 138.013701 
L 309.991935 136.410689 
L 314.815468 134.966422 
L 319.751497 133.76444 
L 324.641163 132.879068 
L 329.326806 132.372728 
L 333.657526 132.293711 
L 337.494528 132.674468 
L 340.71605 133.530497 
L 343.221703 134.859864 
L 344.936075 136.643364 
L 345.811457 138.845328 
L 345.829601 141.415029 
L 345.002446 144.288649 
L 343.371781 147.391715 
L 341.007846 150.641923 
L 338.006935 153.952237 
L 334.48806 157.234151 
L 330.58881 160.40098 
L 326.460537 163.371077 
L 322.263041 166.070828 
L 318.158936 168.437339 
L 314.307901 170.420698 
L 310.861015 171.98574 
L 307.955375 173.113244 
L 305.709194 173.800517 
L 304.217548 174.061361 
L 303.548926 173.92541 
L 303.742713 173.436873 
L 304.807694 172.65274 
L 306.721637 171.640512 
L 309.431972 170.475552 
L 312.857548 169.238153 
L 316.891418 168.01045 
L 321.404534 166.873279 
L 326.250253 165.903113 
L 331.269478 165.169194 
L 336.296257 164.730964 
L 341.163655 164.635897 
L 345.709671 164.917809 
L 349.78301 165.595709 
L 353.248491 166.67324 
L 355.991901 168.13871 
L 357.924127 169.965724 
L 358.984402 172.114385 
L 359.142563 174.533003 
L 358.400217 177.160254 
L 356.790797 179.927694 
L 354.378465 182.762524 
L 351.255935 185.590511 
L 347.541261 188.338923 
L 343.373711 190.939387 
L 338.908882 193.330536 
L 334.313201 195.460365 
L 329.758033 197.288176 
L 325.41359 198.78606 
L 321.442859 199.939854 
L 317.995772 200.749533 
L 315.203825 201.229025 
L 313.17533 201.405473 
L 311.991492 201.317965 
L 311.703433 201.015786 
L 312.330288 200.556279 
L 313.858436 200.002391 
L 316.241898 199.420015 
L 319.403899 198.875236 
L 323.239528 198.431586 
L 327.619414 198.147437 
L 332.394289 198.073624 
L 337.400269 198.251405 
L 342.464672 198.710832 
L 347.412168 199.469605 
L 352.071027 200.532456 
L 356.279262 201.891076 
L 359.890428 203.524601 
L 362.778872 205.400621 
L 364.844258 207.476678 
L 366.015179 209.702175 
L 366.251744 212.02064 
L 365.54704 214.372213 
L 363.927406 216.696287 
L 361.451523 218.934156 
L 358.208335 221.031588 
L 354.313886 222.941195 
L 349.907184 224.624495 
L 345.145234 226.0536 
L 340.197421 227.212432 
L 335.239455 228.097426 
L 330.447078 228.717694 
L 325.989773 229.094623 
L 322.024704 229.260946 
L 318.691089 229.259302 
L 314.356372 228.960585 
L 313.503515 228.779716 
L 313.573352 228.658113 
L 314.559342 228.654034 
L 316.421992 228.820996 
L 319.090323 229.205314 
L 322.464461 229.843944 
L 326.41927 230.762706 
L 330.808883 231.974989 
L 335.47197 233.480982 
L 340.237546 235.267479 
L 344.931123 237.308276 
L 349.380956 239.565134 
L 349.380956 239.565134 
" style="fill:none;stroke:#ff7f0e;stroke-linecap:square;stroke-width:1.5;"/>
   </g>
   <g id="patch_8">
    <path d="M 253.812172 252 
L 253.812172 34.56 
" style="fill:none;stroke:#000000;stroke-linecap:square;stroke-linejoin:miter;stroke-width:0.8;"/>
   </g>
   <g id="patch_9">
    <path d="M 371.60601 252 
L 371.60601 34.56 
" style="fill:none;stroke:#000000;stroke-linecap:square;stroke-linejoin:miter;stroke-width:0.8;"/>
   </g>
   <g id="patch_10">
    <path d="M 253.812172 252 
L 371.60601 252 
" style="fill:none;stroke:#000000;stroke-linecap:square;stroke-linejoin:miter;stroke-width:0.8;"/>
   </g>
   <g id="patch_11">
    <path d="M 253.812172 34.56 
L 371.60601 34.56 
" style="fill:none;stroke:#000000;stroke-linecap:square;stroke-linejoin:miter;stroke-width:0.8;"/>
   </g>
  </g>
 </g>
 <defs>
  <clipPath id="p595f763f1b">
   <rect height="143.699903" width="152.181818" x="54" y="71.430049"/>
  </clipPath>
  <clipPath id="p80ecf3d399">
   <rect height="217.44" width="117.793838" x="253.812172" y="34.56"/>
  </clipPath>
 </defs>
</svg>
