<?xml version="1.0" encoding="utf-8"?>
<!-- Generator: Adobe Illustrator 25.2.3, SVG Export Plug-In . SVG Version: 6.00 Build 0)  -->
<svg version="1.1" id="Layer_1" xmlns="http://www.w3.org/2000/svg" xmlns:xlink="http://www.w3.org/1999/xlink" x="0px" y="0px"
	 viewBox="0 0 381.6 247.8" style="enable-background:new 0 0 381.6 247.8;" xml:space="preserve">
<style type="text/css">
	.st0{font-family:'ArialRoundedMTBold';}
	.st1{font-size:36px;}
	.st2{clip-path:url(#SVGID_2_);}
	.st3{fill:#FFFFFF;}
	.st4{font-family:'ArialMT';}
	.st5{font-size:8.0684px;}
	.st6{fill:none;stroke:#000000;stroke-width:1.3333;stroke-linejoin:round;stroke-miterlimit:10;}
	
		.st7{fill-rule:evenodd;clip-rule:evenodd;fill:#FFFFFF;stroke:#000000;stroke-width:2;stroke-linejoin:round;stroke-miterlimit:10;}
	.st8{fill-rule:evenodd;clip-rule:evenodd;fill:#FFC000;}
	.st9{fill-rule:evenodd;clip-rule:evenodd;fill:#FF0000;}
	.st10{clip-path:url(#SVGID_4_);}
	.st11{clip-path:url(#SVGID_6_);}
</style>
<g>
	
		<image style="overflow:visible;enable-background:new    ;" width="585" height="463" xlink:href="16AC4A72.jpg"  transform="matrix(0.2838 0 0 0.3099 0 58.567)">
	</image>
	<text transform="matrix(1 0 0 1 179.9248 146.9086)" class="st0 st1">&amp;</text>
</g>
<g>
	<defs>
		<rect id="SVGID_1_" x="226.6" y="8.4" width="150.6" height="234"/>
	</defs>
	<clipPath id="SVGID_2_">
		<use xlink:href="#SVGID_1_"  style="overflow:visible;"/>
	</clipPath>
	<g transform="translate(-16 -75)" class="st2">
		<rect x="243.4" y="220.6" class="st3" width="147.2" height="13.8"/>
		<text transform="matrix(1 0 0 1 247.7715 230.5422)" class="st4 st5">Previous Model                 New Model</text>
		<path class="st6" d="M258.9,242.5c22.8,17.5,37.7,43.2,41.6,71.6l-21,2.9c-3.1-22.9-15.2-43.6-33.5-57.7L258.9,242.5z"/>
		<path class="st7" d="M254.9,276.5c0-11.1,9-20.2,20.2-20.2c11.1,0,20.2,9,20.2,20.2c0,11.1-9,20.2-20.2,20.2
			C263.9,296.6,254.9,287.6,254.9,276.5z"/>
		<path class="st8" d="M268.6,276.6c-0.8-1.2,1.2-4.1,4.5-6.4c3.3-2.3,6.7-3.2,7.5-2c0.8,1.2-1.2,4.1-4.5,6.4
			C272.8,276.9,269.4,277.8,268.6,276.6z"/>
		<path class="st9" d="M284.2,275.6c-0.8-1,1.6-4,5.2-6.8c3.6-2.7,7.2-4.1,7.9-3.1c0.8,1-1.6,4-5.2,6.8
			C288.5,275.2,284.9,276.6,284.2,275.6z"/>
		<path class="st6" d="M270.1,232.5c22.8,17.5,37.7,43.2,41.6,71.6l-21,2.9c-3.1-22.9-15.2-43.6-33.5-57.7L270.1,232.5z"/>
		<path d="M287.5,267.1l-12.6-14.9l1.2-1l12.6,14.9L287.5,267.1z M275.6,257.1l-1.1-6.6l6.3,2.2c0.4,0.1,0.6,0.6,0.5,1
			c-0.1,0.4-0.6,0.6-1,0.5l-5-1.8l1-0.9l0.9,5.3c0.1,0.4-0.2,0.8-0.6,0.9C276.1,257.8,275.7,257.5,275.6,257.1z"/>
		<path d="M279,277.4l10.5,17l-1.3,0.8l-10.5-17L279,277.4z M289.5,289.5l0.2,6.7l-5.9-3.1c-0.4-0.2-0.5-0.7-0.3-1
			c0.2-0.4,0.7-0.5,1-0.3l4.7,2.5l-1.1,0.7l-0.1-5.3c0-0.4,0.3-0.8,0.7-0.8C289.1,288.7,289.5,289,289.5,289.5z"/>
		<path class="st6" d="M366,248.8c5.5,20,5.2,41.2-0.9,61l-18.9-5.8c5-16.2,5.3-33.6,0.7-49.9L366,248.8z"/>
		<path class="st7" d="M345.2,271.1c0-11.1,9-20.2,20.2-20.2c11.1,0,20.2,9,20.2,20.2s-9,20.2-20.2,20.2
			C354.2,291.2,345.2,282.2,345.2,271.1z"/>
		<path class="st8" d="M352.9,270.9c0-1.3,2.9-2.3,6.5-2.3c3.6,0,6.5,1,6.5,2.3s-2.9,2.3-6.5,2.3
			C355.8,273.2,352.9,272.2,352.9,270.9z"/>
		<path class="st6" d="M355.3,240.3c17.6,13.2,30.7,31.4,37.7,52.3L374,299c-5.7-17-16.4-31.8-30.7-42.6L355.3,240.3z"/>
		<path class="st9" d="M365.5,276.5c-0.8-1.2,1.2-4.1,4.5-6.4c3.3-2.3,6.7-3.2,7.5-2c0.8,1.2-1.2,4.1-4.5,6.4
			C369.7,276.8,366.4,277.7,365.5,276.5z"/>
		<path d="M367,268.3l-12.6-14.9l1.2-1l12.6,14.9L367,268.3z M355.2,258.2l-1.1-6.6l6.3,2.2c0.4,0.1,0.6,0.6,0.5,1
			c-0.1,0.4-0.6,0.6-1,0.5l-5-1.8l1-0.9l0.9,5.3c0.1,0.4-0.2,0.8-0.6,0.9C355.6,258.9,355.2,258.6,355.2,258.2z"/>
		<path d="M358.6,277.4l-0.7,17.4l1.5,0.1l0.7-17.4L358.6,277.4z M355.5,290.5l3.1,5.9l3.6-5.6c0.2-0.4,0.1-0.8-0.2-1.1
			c-0.4-0.2-0.8-0.1-1.1,0.2l-2.9,4.5l1.3,0.1l-2.5-4.7c-0.2-0.4-0.7-0.5-1-0.3C355.4,289.6,355.3,290.1,355.5,290.5z"/>
		<g>
			<defs>
				<rect id="SVGID_3_" x="246" y="83.4" width="140.2" height="138.7"/>
			</defs>
			<clipPath id="SVGID_4_">
				<use xlink:href="#SVGID_3_"  style="overflow:visible;"/>
			</clipPath>
			<g transform="matrix(0.000104987 0 0 0.000104987 25 75)" class="st10">
				<g>
					<defs>
						<rect id="SVGID_5_" x="246" y="83.4" width="140.2" height="138.7"/>
					</defs>
					<clipPath id="SVGID_6_">
						<use xlink:href="#SVGID_5_"  style="overflow:visible;"/>
					</clipPath>
					<g transform="matrix(1.00044 0 -0 1 -0.015625 -0.0625)" class="st11">
						<g transform="scale(6096.68 6096.68)">
							
								<image style="overflow:visible;enable-background:new    ;" width="367" height="363" id="img2" xlink:href="16AC4A71.jpg"  transform="matrix(0.3819 0 0 0.3821 245.9508 83.4529)">
							</image>
						</g>
					</g>
				</g>
			</g>
		</g>
	</g>
</g>
</svg>
