<svg width="277" height="189" xmlns="http://www.w3.org/2000/svg" xmlns:xlink="http://www.w3.org/1999/xlink" overflow="hidden"><defs><clipPath id="clip0"><rect x="404" y="240" width="277" height="189"/></clipPath></defs><g clip-path="url(#clip0)" transform="translate(-404 -240)"><path d="M429.5 312.5C429.5 285.99 438.007 264.5 448.5 264.5 458.993 264.5 467.5 285.99 467.5 312.5 467.5 339.01 458.993 360.5 448.5 360.5 438.007 360.5 429.5 339.01 429.5 312.5Z" stroke="#000000" stroke-width="1.33333" stroke-miterlimit="8" fill="none" fill-rule="evenodd"/><path d="M575.737 245.165C540.672 257.609 495.477 264.485 448.655 264.5" stroke="#000000" stroke-width="1.33333" stroke-miterlimit="8" fill="none" fill-rule="evenodd"/><path d="M605.802 327.651C569.906 348.22 511.258 360.48 448.655 360.5" stroke="#000000" stroke-width="1.33333" stroke-miterlimit="8" fill="none" fill-rule="evenodd"/><path d="M572.282 245.733C584.465 241.547 601.474 256.558 610.272 279.262 618.87 301.45 616.469 322.882 604.845 327.685" stroke="#000000" stroke-width="1.33333" stroke-miterlimit="8" fill="none" fill-rule="evenodd"/><text font-family="Times New Roman,Times New Roman_MSFontService,sans-serif" font-style="italic" font-weight="400" font-size="27" transform="translate(429.792 374)">x<tspan font-style="normal" font-size="18" x="11.8333" y="6">0</tspan><tspan font-style="normal" font-size="27" x="20.6667" y="0">, </tspan><tspan font-size="27" x="34" y="0">q</tspan><tspan font-style="normal" font-size="18" x="47.3333" y="6">0</tspan><tspan font-style="normal" font-size="27" x="-9.58667" y="32">(3), (3)</tspan></text><path d="M443 312C443 309.239 445.239 307 448 307 450.761 307 453 309.239 453 312 453 314.761 450.761 317 448 317 445.239 317 443 314.761 443 312Z" fill-rule="evenodd"/><path d="M588 285.5C588 283.015 590.239 281 593 281 595.761 281 598 283.015 598 285.5 598 287.985 595.761 290 593 290 590.239 290 588 287.985 588 285.5Z" fill-rule="evenodd"/><text font-family="Times New Roman,Times New Roman_MSFontService,sans-serif" font-style="italic" font-weight="400" font-size="27" transform="translate(598.417 345)">x<tspan font-style="normal" font-size="18" x="11.8334" y="6">1</tspan><tspan font-style="normal" font-size="27" x="20.6667" y="0">, </tspan><tspan font-size="27" x="34" y="0">q</tspan><tspan font-style="normal" font-size="18" x="47.3334" y="6">1</tspan><tspan font-style="normal" font-size="27" x="-9.58667" y="32">(3), (3)</tspan></text></g></svg>