<svg width="424" height="190" xmlns="http://www.w3.org/2000/svg" xmlns:xlink="http://www.w3.org/1999/xlink" overflow="hidden"><defs><clipPath id="clip0"><rect x="774" y="280" width="424" height="190"/></clipPath></defs><g clip-path="url(#clip0)" transform="translate(-774 -280)"><path d="M1052.71 379.442C1056.31 384.175 1058.99 389.536 1060.64 395.251L1014.5 408.5Z" fill="#00B0F0" fill-rule="evenodd"/><path d="M1052.71 379.442C1056.31 384.175 1058.99 389.536 1060.64 395.251" stroke="#000000" stroke-width="1.33333" stroke-miterlimit="8" fill="none" fill-rule="evenodd"/><path d="M892.962 444.445C893.983 448.382 894.5 452.433 894.5 456.5L846.5 456.5Z" fill="#FF0000" fill-rule="evenodd"/><path d="M892.962 444.445C893.983 448.382 894.5 452.433 894.5 456.5" stroke="#000000" stroke-width="1.33333" stroke-miterlimit="8" fill="none" fill-rule="evenodd"/><path d="M0 0 124.8 95.4686" stroke="#00B0F0" stroke-width="1.33333" stroke-miterlimit="8" stroke-dasharray="5.33333 4" fill="none" fill-rule="evenodd" transform="matrix(1 0 0 -1 1014.5 407.969)"/><path d="M0 0 326.4 96" stroke="#FF0000" stroke-width="1.33333" stroke-miterlimit="8" stroke-dasharray="5.33333 4" fill="none" fill-rule="evenodd" transform="matrix(1 0 0 -1 851.5 456.5)"/><path d="M901.625 391.137C894.531 365.594 897.063 342.587 907.281 339.75 917.498 336.912 931.531 355.318 938.625 380.861 945.719 406.404 943.187 429.411 932.97 432.249 922.753 435.086 908.719 416.68 901.625 391.137Z" stroke="#000000" stroke-width="1.33333" stroke-miterlimit="8" fill="none" fill-rule="evenodd"/><path d="M1024.56 287.233C994.102 308.529 952.458 327.187 907.429 339.708" stroke="#000000" stroke-width="1.33333" stroke-miterlimit="8" fill="none" fill-rule="evenodd"/><path d="M1075.66 358.696C1046.54 388.031 993.354 415.458 933.119 432.207" stroke="#000000" stroke-width="1.33333" stroke-miterlimit="8" fill="none" fill-rule="evenodd"/><path d="M1022.14 288.892C1032.76 281.598 1053.17 291.51 1067.72 311.032 1081.94 330.11 1085.36 351.402 1075.45 359.141" stroke="#000000" stroke-width="1.33333" stroke-miterlimit="8" fill="none" fill-rule="evenodd"/><path d="M0 0 422.4 0.353806" stroke="#000000" stroke-width="1.33333" stroke-miterlimit="8" stroke-dasharray="5.33333 4" fill="none" fill-rule="evenodd" transform="matrix(1 0 0 -1 774.5 456.854)"/><text font-family="Calibri,Calibri_MSFontService,sans-serif" font-weight="400" font-size="24" transform="translate(932.626 448)">non-<tspan font-size="24" x="45.3333" y="0">linear</tspan><tspan font-size="24" x="144.538" y="-67">linear</tspan></text></g></svg>