<svg width="2604" height="1990" xmlns="http://www.w3.org/2000/svg" xmlns:xlink="http://www.w3.org/1999/xlink" overflow="hidden"><defs><clipPath id="clip0"><rect x="540" y="242" width="2604" height="1990"/></clipPath></defs><g clip-path="url(#clip0)" transform="translate(-540 -242)"><path d="M0 0 306.312 389.814" stroke="#FFC000" stroke-width="4.58333" stroke-linecap="butt" stroke-linejoin="round" stroke-miterlimit="10" stroke-dasharray="36.6667 13.75" stroke-opacity="1" fill="none" fill-rule="evenodd" transform="matrix(-1 0 0 1 2801.81 393.5)"/><rect x="2550" y="798" width="238" height="144" fill="#FFFFFF" fill-opacity="0.8"/><text fill="#000000" fill-opacity="1" font-family="Times New Roman,Times New Roman_MSFontService,sans-serif" font-style="italic" font-variant="normal" font-weight="400" font-stretch="normal" font-size="92" text-anchor="start" direction="ltr" writing-mode="lr-tb" unicode-bidi="normal" text-decoration="none" transform="matrix(1 0 0 1 2582.58 903)">v<tspan fill="#000000" fill-opacity="1" font-family="Times New Roman,Times New Roman_MSFontService,sans-serif" font-style="normal" font-variant="normal" font-weight="400" font-stretch="normal" font-size="92" text-anchor="start" direction="ltr" writing-mode="lr-tb" unicode-bidi="normal" text-decoration="none" x="63.5938" y="0">(1)</tspan></text><path d="M2673.63 555.649 2795.05 859.216 2790.8 860.918 2669.37 557.351ZM2803.99 850.705 2801.44 881.345 2778.46 860.918Z" fill="#00B050" fill-rule="nonzero" fill-opacity="1"/><path d="M2853.96 264.419 2807.41 629.49 2483.67 851.388 2530.22 486.317Z" stroke="#0000FF" stroke-width="4.58333" stroke-linecap="butt" stroke-linejoin="round" stroke-miterlimit="10" stroke-opacity="1" fill="none" fill-rule="evenodd"/><path d="M546.5 1238.5C546.5 691.738 768.119 248.5 1041.5 248.5 1314.88 248.5 1536.5 691.738 1536.5 1238.5 1536.5 1239.68 1536.5 1240.87 1536.5 1242.05" stroke="#FF0000" stroke-width="4.58333" stroke-linecap="butt" stroke-linejoin="round" stroke-miterlimit="10" stroke-opacity="1" fill="none" fill-rule="evenodd"/><path d="M1536.5 1238.5C1536.5 1785.26 1462.63 2228.5 1371.5 2228.5 1280.37 2228.5 1206.5 1785.26 1206.5 1238.5 1206.5 1238.11 1206.5 1237.71 1206.5 1237.32" stroke="#FF0000" stroke-width="4.58333" stroke-linecap="butt" stroke-linejoin="round" stroke-miterlimit="10" stroke-opacity="1" fill="none" fill-rule="evenodd"/><path d="M1206.5 1238.5C1206.5 691.738 1428.12 248.5 1701.5 248.5 1974.88 248.5 2196.5 691.738 2196.5 1238.5 2196.5 1239.68 2196.5 1240.87 2196.5 1242.05" stroke="#FF0000" stroke-width="4.58333" stroke-linecap="butt" stroke-linejoin="round" stroke-miterlimit="10" stroke-opacity="1" fill="none" fill-rule="evenodd"/><path d="M2195.5 1238.5C2195.5 1785.26 2121.63 2228.5 2030.5 2228.5 1939.37 2228.5 1865.5 1785.26 1865.5 1238.5 1865.5 1238.11 1865.5 1237.71 1865.5 1237.32" stroke="#FF0000" stroke-width="4.58333" stroke-linecap="butt" stroke-linejoin="round" stroke-miterlimit="10" stroke-opacity="1" fill="none" fill-rule="evenodd"/><path d="M1865.5 1238.5C1865.5 691.738 2087.12 248.5 2360.5 248.5 2633.88 248.5 2855.5 691.738 2855.5 1238.5 2855.5 1239.68 2855.5 1240.87 2855.5 1242.05" stroke="#FF0000" stroke-width="4.58333" stroke-linecap="butt" stroke-linejoin="round" stroke-miterlimit="10" stroke-opacity="1" fill="none" fill-rule="evenodd"/><path d="M2504.5 558.5C2504.5 467.373 2578.37 393.5 2669.5 393.5 2760.63 393.5 2834.5 467.373 2834.5 558.5 2834.5 649.627 2760.63 723.5 2669.5 723.5 2578.37 723.5 2504.5 649.627 2504.5 558.5Z" stroke="#000000" stroke-width="4.58333" stroke-linecap="butt" stroke-linejoin="round" stroke-miterlimit="10" stroke-opacity="1" fill="none" fill-rule="evenodd"/><path d="M2653 557.5C2653 548.387 2660.39 541 2669.5 541 2678.61 541 2686 548.387 2686 557.5 2686 566.613 2678.61 574 2669.5 574 2660.39 574 2653 566.613 2653 557.5Z" fill="#0000FF" fill-rule="evenodd" fill-opacity="1"/><rect x="2380" y="397" width="239" height="144" fill="#FFFFFF" fill-opacity="0.8"/><text fill="#000000" fill-opacity="1" font-family="Times New Roman,Times New Roman_MSFontService,sans-serif" font-style="italic" font-variant="normal" font-weight="400" font-stretch="normal" font-size="92" text-anchor="start" direction="ltr" writing-mode="lr-tb" unicode-bidi="normal" text-decoration="none" transform="matrix(1 0 0 1 2413.09 503)">x<tspan fill="#000000" fill-opacity="1" font-family="Times New Roman,Times New Roman_MSFontService,sans-serif" font-style="normal" font-variant="normal" font-weight="400" font-stretch="normal" font-size="92" text-anchor="start" direction="ltr" writing-mode="lr-tb" unicode-bidi="normal" text-decoration="none" x="63.5938" y="0">(2)</tspan></text><rect x="2813" y="430" width="263" height="144" fill="#FFFFFF" fill-opacity="0.8"/><text fill="#000000" fill-opacity="1" font-family="Times New Roman,Times New Roman_MSFontService,sans-serif" font-style="italic" font-variant="normal" font-weight="400" font-stretch="normal" font-size="92" text-anchor="start" direction="ltr" writing-mode="lr-tb" unicode-bidi="normal" text-decoration="none" transform="matrix(1 0 0 1 2846.03 536)">ω<tspan fill="#000000" fill-opacity="1" font-family="Times New Roman,Times New Roman_MSFontService,sans-serif" font-style="normal" font-variant="normal" font-weight="400" font-stretch="normal" font-size="92" text-anchor="start" direction="ltr" writing-mode="lr-tb" unicode-bidi="normal" text-decoration="none" x="87.6563" y="0">(3)</tspan></text><path d="M2742.28 382.034 2734.87 372.15 2730.82 365.701 2727.47 359.596 2724.79 353.806 2722.79 348.359 2721.49 343.278 2720.91 338.58C2720.89 338.453 2720.89 338.324 2720.89 338.196L2721.09 334.281C2721.1 334.115 2721.12 333.951 2721.17 333.791L2722.09 330.403C2722.14 330.206 2722.22 330.017 2722.33 329.841L2723.99 327.019C2724.11 326.824 2724.25 326.648 2724.42 326.495L2726.84 324.276C2727 324.13 2727.18 324.007 2727.37 323.911L2730.55 322.332C2730.72 322.252 2730.89 322.191 2731.06 322.151L2735.03 321.249C2735.16 321.218 2735.3 321.199 2735.44 321.194L2740.08 321.009 2745.57 321.544 2751.46 322.784 2757.71 324.68 2764.29 327.19 2771.16 330.281 2778.26 333.918 2785.56 338.07 2792.99 342.703 2800.52 347.788 2815.6 359.159 2830.44 371.976 2844.58 385.964 2851.13 393.178 2857.04 400.218 2862.33 407.076 2866.99 413.717 2870.99 420.106 2874.34 426.211 2877.03 432.001 2879.03 437.448 2880.33 442.529 2880.91 447.227C2880.92 447.354 2880.93 447.483 2880.92 447.611L2880.73 451.526C2880.72 451.692 2880.69 451.856 2880.65 452.016L2879.73 455.404C2879.67 455.601 2879.59 455.79 2879.49 455.966L2877.82 458.788C2877.71 458.983 2877.56 459.159 2877.4 459.312L2874.98 461.531C2874.82 461.677 2874.64 461.8 2874.45 461.896L2871.26 463.475C2871.1 463.555 2870.93 463.616 2870.75 463.656L2866.79 464.558C2866.64 464.591 2866.5 464.609 2866.35 464.614L2861.19 464.77C2861.07 464.774 2860.96 464.769 2860.84 464.754L2854.97 464.034 2848.2 462.416 2840.93 459.964 2833.19 456.712 2825.05 452.69 2816.57 447.925 2807.81 442.443 2810.25 438.558 2818.82 443.93 2827.09 448.582 2834.97 452.488 2842.4 455.622 2849.28 457.961 2855.53 459.485 2861.4 460.205 2861.05 460.189 2866.21 460.033 2865.77 460.089 2869.74 459.187 2869.23 459.369 2872.41 457.789 2871.88 458.154 2874.3 455.934 2873.88 456.458 2875.54 453.636 2875.3 454.198 2876.23 450.81 2876.15 451.3 2876.34 447.385 2876.36 447.77 2875.89 443.656 2874.72 439.022 2872.87 433.924 2870.33 428.414 2867.11 422.54 2863.23 416.346 2858.7 409.874 2853.53 403.164 2847.74 396.258 2841.36 389.222 2827.44 375.444 2812.84 362.818 2797.95 351.585 2790.57 346.593 2783.29 342.052 2776.17 337.997 2769.27 334.459 2762.65 331.471 2756.38 329.064 2750.5 327.267 2745.11 326.104 2740.26 325.589 2735.63 325.774 2736.04 325.718 2732.08 326.62 2732.59 326.438 2729.4 328.018 2729.94 327.653 2727.52 329.873 2727.94 329.349 2726.27 332.171 2726.51 331.609 2725.59 334.997 2725.67 334.507 2725.47 338.422 2725.46 338.038 2725.93 342.151 2727.09 346.785 2728.95 351.883 2731.49 357.393 2734.71 363.267 2738.54 369.401 2745.95 379.285ZM2751.7 368.31 2758.85 398.214 2730.64 385.988Z" fill="#FFC000" fill-rule="nonzero" fill-opacity="1"/><path d="M3.00753-6.18227 205.608 92.3782 199.593 104.743-3.00753 6.18227ZM205.441 77.0061 233.512 113.598 187.396 114.1Z" fill="#7030A0" fill-rule="nonzero" fill-opacity="1" transform="matrix(-1 0 0 1 2783.51 1007)"/><text fill="#202122" fill-opacity="1" font-family="Arial,Arial_MSFontService,sans-serif" font-style="normal" font-variant="normal" font-weight="400" font-stretch="normal" font-size="83" text-anchor="start" direction="ltr" writing-mode="lr-tb" unicode-bidi="normal" text-decoration="none" transform="matrix(1 0 0 1 2331.51 1295)">Centripetal <tspan fill="#202122" fill-opacity="1" font-family="Arial,Arial_MSFontService,sans-serif" font-style="normal" font-variant="normal" font-weight="400" font-stretch="normal" font-size="83" text-anchor="start" direction="ltr" writing-mode="lr-tb" unicode-bidi="normal" text-decoration="none" x="421.667" y="0">Force</tspan><tspan fill="#202122" fill-opacity="1" font-family="Arial,Arial_MSFontService,sans-serif" font-style="normal" font-variant="normal" font-weight="400" font-stretch="normal" font-size="83" text-anchor="start" direction="ltr" writing-mode="lr-tb" unicode-bidi="normal" text-decoration="none" x="247.5" y="99">and</tspan><tspan fill="#000000" fill-opacity="1" font-family="Calibri,Calibri_MSFontService,sans-serif" font-style="normal" font-variant="normal" font-weight="400" font-stretch="normal" font-size="83" text-anchor="start" direction="ltr" writing-mode="lr-tb" unicode-bidi="normal" text-decoration="none" x="-127.394" y="195">Initial Angular Momentum</tspan></text></g></svg>