<svg width="2255" height="1801" xmlns="http://www.w3.org/2000/svg" xmlns:xlink="http://www.w3.org/1999/xlink" overflow="hidden"><defs><clipPath id="clip0"><rect x="151" y="110" width="2255" height="1801"/></clipPath></defs><g clip-path="url(#clip0)" transform="translate(-151 -110)"><path d="M156.5 688.5C156.5 597.373 451.992 523.5 816.5 523.5 1181.01 523.5 1476.5 597.373 1476.5 688.5 1476.5 779.627 1181.01 853.5 816.5 853.5 451.992 853.5 156.5 779.627 156.5 688.5Z" stroke="#000000" stroke-width="4.58333" stroke-linecap="butt" stroke-linejoin="round" stroke-miterlimit="10" stroke-opacity="1" fill="none" fill-rule="evenodd"/><path d="M156.5 1208.5C156.5 1117.37 451.992 1043.5 816.5 1043.5 1181.01 1043.5 1476.5 1117.37 1476.5 1208.5 1476.5 1299.63 1181.01 1373.5 816.5 1373.5 451.992 1373.5 156.5 1299.63 156.5 1208.5Z" stroke="#000000" stroke-width="4.58333" stroke-linecap="butt" stroke-linejoin="round" stroke-miterlimit="10" stroke-opacity="1" fill="none" fill-rule="evenodd"/><path d="M486.5 1208C486.5 1162.44 634.246 1125.5 816.5 1125.5 998.754 1125.5 1146.5 1162.44 1146.5 1208 1146.5 1253.56 998.754 1290.5 816.5 1290.5 634.246 1290.5 486.5 1253.56 486.5 1208Z" stroke="#000000" stroke-width="4.58333" stroke-linecap="butt" stroke-linejoin="round" stroke-miterlimit="10" stroke-opacity="1" fill="none" fill-rule="evenodd"/><path d="M156.5 1208.5 1476.5 1208.5" stroke="#000000" stroke-width="4.58333" stroke-linecap="butt" stroke-linejoin="round" stroke-miterlimit="10" stroke-opacity="1" fill="none" fill-rule="evenodd"/><path d="M816.5 1043.5 816.5 1373.5" stroke="#000000" stroke-width="4.58333" stroke-linecap="butt" stroke-linejoin="round" stroke-miterlimit="10" stroke-opacity="1" fill="none" fill-rule="evenodd"/><path d="M349.5 1091.5 1282.88 1324.84" stroke="#000000" stroke-width="4.58333" stroke-linecap="butt" stroke-linejoin="round" stroke-miterlimit="10" stroke-opacity="1" fill="none" fill-rule="evenodd"/><path d="M0 0 933.381 233.345" stroke="#000000" stroke-width="4.58333" stroke-linecap="butt" stroke-linejoin="round" stroke-miterlimit="10" stroke-opacity="1" fill="none" fill-rule="evenodd" transform="matrix(1 0 0 -1 349.5 1324.84)"/><path d="M63.0254-114.102 58.0391-114.102C57.9492-115.749 57.5898-116.999 56.9609-117.853 56.332-118.706 55.179-119.133 53.5019-119.133 49.3092-119.133 46.2546-114.416 44.3379-104.982 42.4212-95.5488 40.6992-69.5091 39.1719-26.8633 37.6445 11.5 34.6722 37.7194 30.2549 51.7949 25.8376 65.8704 19.8704 72.9082 12.3535 72.9082 10.8262 72.9082 9.41862 72.7884 8.13086 72.5488 6.8431 72.3092 5.70508 71.9199 4.7168 71.3809L5.57031 61.543 10.1074 61.543C10.5566 63.5195 11.1406 64.9046 11.8594 65.6982 12.5781 66.4919 13.6712 66.8887 15.1387 66.8887 17.834 66.8887 20.4245 62.2318 22.9102 52.918 25.3958 43.6042 27.3424 19.2415 28.75-20.1699 30.487-62.9355 33.2796-91.0941 37.1279-104.646 40.9762-118.197 47.3476-124.973 56.2422-124.973 57.8294-124.973 59.2744-124.83 60.5771-124.546 61.8799-124.261 62.9805-123.91 63.8789-123.49ZM99.5918-114.102 94.6055-114.102C94.5156-115.749 94.1562-116.999 93.5273-117.853 92.8984-118.706 91.7454-119.133 90.0684-119.133 85.8756-119.133 82.821-114.416 80.9043-104.982 78.9876-95.5488 77.2656-69.5091 75.7383-26.8633 74.2109 11.5 71.2386 37.7194 66.8213 51.7949 62.404 65.8704 56.4368 72.9082 48.9199 72.9082 47.3926 72.9082 45.985 72.7884 44.6973 72.5488 43.4095 72.3092 42.2715 71.9199 41.2832 71.3809L42.1367 61.543 46.6738 61.543C47.123 63.5195 47.707 64.9046 48.4258 65.6982 49.1445 66.4919 50.2376 66.8887 51.7051 66.8887 54.4004 66.8887 56.9909 62.2318 59.4766 52.918 61.9622 43.6042 63.9088 19.2415 65.3164-20.1699 67.0534-62.9355 69.846-91.0941 73.6943-104.646 77.5426-118.197 83.914-124.973 92.8086-124.973 94.3958-124.973 95.8408-124.83 97.1435-124.546 98.4463-124.261 99.5469-123.91 100.445-123.49Z" fill="#000000" fill-rule="nonzero" fill-opacity="1" transform="matrix(1 0 0 1 1699.13 733)"/><text fill="#000000" fill-opacity="1" font-family="Cambria Math,Cambria Math_MSFontService,sans-serif" font-style="normal" font-variant="normal" font-weight="400" font-stretch="normal" font-size="92" text-anchor="start" direction="ltr" writing-mode="lr-tb" unicode-bidi="normal" text-decoration="none" transform="translate(1824.78 733)">ğ‘“</text><path d="M2052.83 664.304C2061.58 666.61 2068.29 671.589 2072.98 679.24 2077.67 686.892 2080.01 696.123 2080.01 706.935 2080.01 717.776 2077.67 727.007 2073 734.629 2068.33 742.251 2061.61 747.215 2052.83 749.521L2051.75 746.062C2058.67 743.756 2063.82 739.203 2067.18 732.405 2070.55 725.607 2072.24 716.967 2072.24 706.485 2072.24 696.363 2070.56 687.955 2067.21 681.262 2063.85 674.568 2058.66 670.069 2051.62 667.763ZM1913.14 664.304 1914.35 667.763C1907.35 670.069 1902.16 674.568 1898.79 681.262 1895.42 687.955 1893.73 696.363 1893.73 706.485 1893.73 716.967 1895.42 725.607 1898.79 732.405 1902.16 739.203 1907.3 743.756 1914.22 746.062L1913.14 749.521C1904.37 747.215 1897.64 742.251 1892.97 734.629 1888.3 727.007 1885.96 717.776 1885.96 706.935 1885.96 696.123 1888.31 686.892 1892.99 679.24 1897.68 671.589 1904.4 666.61 1913.14 664.304Z" fill="#000000" fill-rule="evenodd" fill-opacity="1"/><text fill="#000000" fill-opacity="1" font-family="Cambria Math,Cambria Math_MSFontService,sans-serif" font-style="normal" font-variant="normal" font-weight="400" font-stretch="normal" font-size="92" text-anchor="start" direction="ltr" writing-mode="lr-tb" unicode-bidi="normal" text-decoration="none" transform="translate(1915.92 733)">ğ‘Ÿ<tspan fill="#000000" fill-opacity="1" font-family="Cambria Math,Cambria Math_MSFontService,sans-serif" font-style="normal" font-variant="normal" font-weight="400" font-stretch="normal" font-size="92" text-anchor="start" direction="ltr" writing-mode="lr-tb" unicode-bidi="normal" text-decoration="none" x="45.5583" y="0">,</tspan><tspan fill="#000000" fill-opacity="1" font-family="Cambria Math,Cambria Math_MSFontService,sans-serif" font-style="normal" font-variant="normal" font-weight="400" font-stretch="normal" font-size="92" text-anchor="start" direction="ltr" writing-mode="lr-tb" unicode-bidi="normal" text-decoration="none" x="79.75" y="0">ğœƒ</tspan><tspan fill="#000000" fill-opacity="1" font-family="Cambria Math,Cambria Math_MSFontService,sans-serif" font-style="normal" font-variant="normal" font-weight="400" font-stretch="normal" font-size="92" text-anchor="start" direction="ltr" writing-mode="lr-tb" unicode-bidi="normal" text-decoration="none" x="172.036" y="0">d</tspan><tspan fill="#000000" fill-opacity="1" font-family="Cambria Math,Cambria Math_MSFontService,sans-serif" font-style="normal" font-variant="normal" font-weight="400" font-stretch="normal" font-size="92" text-anchor="start" direction="ltr" writing-mode="lr-tb" unicode-bidi="normal" text-decoration="none" x="223.025" y="0">ğ‘†</tspan></text><path d="M20.9785-108.217 74.5703-35.4434 74.5703-30.0078 16.7109 48.5156 94.6504 48.5156C98.0944 48.5156 100.73 47.3027 102.557 44.8769 104.383 42.4512 105.956 37.0306 107.273 28.6152L113.922 28.6152 111.631 61.543 1.16797 61.543 1.16797 57.0957 64.1035-28.2109 3.00977-109.834 3.00977-114.102 111.496-114.102 111.496-87.5078 105.566-87.5078C104.878-93.8867 103.485-98.9329 101.389-102.646 99.2923-106.36 96.1178-108.217 91.8652-108.217Z" fill="#000000" fill-rule="nonzero" fill-opacity="1" transform="matrix(1 0 0 1 1548.11 1230)"/><path d="M20.9785-108.217 74.5703-35.4434 74.5703-30.0078 16.7109 48.5156 94.6504 48.5156C98.0944 48.5156 100.73 47.3027 102.557 44.8769 104.383 42.4512 105.956 37.0306 107.273 28.6152L113.922 28.6152 111.631 61.543 1.16797 61.543 1.16797 57.0957 64.1035-28.2109 3.00977-109.834 3.00977-114.102 111.496-114.102 111.496-87.5078 105.566-87.5078C104.878-93.8867 103.485-98.9329 101.389-102.646 99.2923-106.36 96.1178-108.217 91.8652-108.217Z" fill="#000000" fill-rule="nonzero" fill-opacity="1" transform="matrix(1 0 0 1 1684.92 1230)"/><text fill="#000000" fill-opacity="1" font-family="Cambria Math,Cambria Math_MSFontService,sans-serif" font-style="normal" font-variant="normal" font-weight="400" font-stretch="normal" font-size="92" text-anchor="start" direction="ltr" writing-mode="lr-tb" unicode-bidi="normal" text-decoration="none" transform="translate(1821.73 1230)">ğ‘“</text><path d="M2095.09 1148.35C2104.43 1150.8 2111.64 1157.17 2116.7 1167.44 2121.76 1177.71 2124.29 1189.87 2124.29 1203.92 2124.29 1217.96 2121.76 1230.12 2116.7 1240.39 2111.64 1250.66 2104.43 1257.03 2095.09 1259.48L2093.97 1255.8C2101.22 1253.08 2106.7 1247.14 2110.43 1237.99 2114.16 1228.84 2116.02 1217.5 2116.02 1203.96 2116.02 1190.39 2114.16 1179.03 2110.43 1169.86 2106.7 1160.7 2101.22 1154.76 2093.97 1152.03ZM1912.11 1148.35 1913.24 1152.03C1905.99 1154.76 1900.5 1160.7 1896.77 1169.86 1893.04 1179.03 1891.18 1190.39 1891.18 1203.96 1891.18 1217.5 1893.04 1228.84 1896.77 1237.99 1900.5 1247.14 1905.99 1253.08 1913.24 1255.8L1912.11 1259.48C1902.77 1257.03 1895.57 1250.66 1890.51 1240.39 1885.45 1230.12 1882.91 1217.96 1882.91 1203.92 1882.91 1189.87 1885.45 1177.71 1890.51 1167.44 1895.57 1157.17 1902.77 1150.8 1912.11 1148.35Z" fill="#000000" fill-rule="evenodd" fill-opacity="1"/><text fill="#000000" fill-opacity="1" font-family="Cambria Math,Cambria Math_MSFontService,sans-serif" font-style="normal" font-variant="normal" font-weight="400" font-stretch="normal" font-size="92" text-anchor="start" direction="ltr" writing-mode="lr-tb" unicode-bidi="normal" text-decoration="none" transform="translate(1916.01 1230)">ğ‘Ÿ<tspan fill="#000000" fill-opacity="1" font-family="Cambria Math,Cambria Math_MSFontService,sans-serif" font-style="normal" font-variant="normal" font-weight="400" font-stretch="normal" font-size="67" text-anchor="start" direction="ltr" writing-mode="lr-tb" unicode-bidi="normal" text-decoration="none" x="33.4812" y="19">ğ‘–</tspan><tspan fill="#000000" fill-opacity="1" font-family="Cambria Math,Cambria Math_MSFontService,sans-serif" font-style="normal" font-variant="normal" font-weight="400" font-stretch="normal" font-size="92" text-anchor="start" direction="ltr" writing-mode="lr-tb" unicode-bidi="normal" text-decoration="none" x="63.0667" y="0">,</tspan><tspan fill="#000000" fill-opacity="1" font-family="Cambria Math,Cambria Math_MSFontService,sans-serif" font-style="normal" font-variant="normal" font-weight="400" font-stretch="normal" font-size="92" text-anchor="start" direction="ltr" writing-mode="lr-tb" unicode-bidi="normal" text-decoration="none" x="97.2583" y="0">ğœƒ</tspan><tspan fill="#000000" fill-opacity="1" font-family="Cambria Math,Cambria Math_MSFontService,sans-serif" font-style="normal" font-variant="normal" font-weight="400" font-stretch="normal" font-size="67" text-anchor="start" direction="ltr" writing-mode="lr-tb" unicode-bidi="normal" text-decoration="none" x="137.431" y="19">ğ‘—</tspan><tspan fill="#000000" fill-opacity="1" font-family="Cambria Math,Cambria Math_MSFontService,sans-serif" font-style="normal" font-variant="normal" font-weight="400" font-stretch="normal" font-size="92" text-anchor="start" direction="ltr" writing-mode="lr-tb" unicode-bidi="normal" text-decoration="none" x="236.592" y="0">âˆ™</tspan><tspan fill="#000000" fill-opacity="1" font-family="Cambria Math,Cambria Math_MSFontService,sans-serif" font-style="normal" font-variant="normal" font-weight="400" font-stretch="normal" font-size="92" text-anchor="start" direction="ltr" writing-mode="lr-tb" unicode-bidi="normal" text-decoration="none" x="282.746" y="0">ğ‘¤</tspan><tspan fill="#000000" fill-opacity="1" font-family="Cambria Math,Cambria Math_MSFontService,sans-serif" font-style="normal" font-variant="normal" font-weight="400" font-stretch="normal" font-size="67" text-anchor="start" direction="ltr" writing-mode="lr-tb" unicode-bidi="normal" text-decoration="none" x="347.302" y="19">ğ‘–</tspan><tspan fill="#000000" fill-opacity="1" font-family="Cambria Math,Cambria Math_MSFontService,sans-serif" font-style="normal" font-variant="normal" font-weight="400" font-stretch="normal" font-size="67" text-anchor="start" direction="ltr" writing-mode="lr-tb" unicode-bidi="normal" text-decoration="none" x="373.083" y="19">,</tspan><tspan fill="#000000" fill-opacity="1" font-family="Cambria Math,Cambria Math_MSFontService,sans-serif" font-style="normal" font-variant="normal" font-weight="400" font-stretch="normal" font-size="67" text-anchor="start" direction="ltr" writing-mode="lr-tb" unicode-bidi="normal" text-decoration="none" x="386.833" y="19">ğ‘—</tspan><tspan fill="#000000" fill-opacity="1" font-family="Cambria Math,Cambria Math_MSFontService,sans-serif" font-style="normal" font-variant="normal" font-weight="400" font-stretch="normal" font-size="67" text-anchor="start" direction="ltr" writing-mode="lr-tb" unicode-bidi="normal" text-decoration="none" x="-187.229" y="117">ğ‘—</tspan><tspan fill="#000000" fill-opacity="1" font-family="Cambria Math,Cambria Math_MSFontService,sans-serif" font-style="normal" font-variant="normal" font-weight="400" font-stretch="normal" font-size="67" text-anchor="start" direction="ltr" writing-mode="lr-tb" unicode-bidi="normal" text-decoration="none" x="-320.031" y="117">ğ‘–</tspan></text><path d="M1266 1159.5C1266 1150.39 1273.39 1143 1282.5 1143 1291.61 1143 1299 1150.39 1299 1159.5 1299 1168.61 1291.61 1176 1282.5 1176 1273.39 1176 1266 1168.61 1266 1159.5Z" fill="#000000" fill-rule="evenodd" fill-opacity="1"/><path d="M651.5 948.5 734 948.5 734 915.5 899 915.5 899 948.5 981.5 948.5 816.5 981.5Z" stroke="#000000" stroke-width="4.58333" stroke-linecap="butt" stroke-linejoin="miter" stroke-miterlimit="8" stroke-opacity="1" fill="none" fill-rule="evenodd"/><text fill="#000000" fill-opacity="1" font-family="Arial,Arial_MSFontService,sans-serif" font-style="normal" font-variant="normal" font-weight="400" font-stretch="normal" font-size="55" text-anchor="start" direction="ltr" writing-mode="lr-tb" unicode-bidi="normal" text-decoration="none" transform="matrix(1 0 0 1 268.78 384)">I <tspan fill="#000000" fill-opacity="1" font-family="Arial,Arial_MSFontService,sans-serif" font-style="normal" font-variant="normal" font-weight="400" font-stretch="normal" font-size="55" text-anchor="start" direction="ltr" writing-mode="lr-tb" unicode-bidi="normal" text-decoration="none" x="30.9375" y="0">use a classical numerical integration where an </tspan><tspan fill="#000000" fill-opacity="1" font-family="Arial,Arial_MSFontService,sans-serif" font-style="normal" font-variant="normal" font-weight="400" font-stretch="normal" font-size="55" text-anchor="start" direction="ltr" writing-mode="lr-tb" unicode-bidi="normal" text-decoration="none" x="0" y="66">integral is replaced by a weighted sum</tspan></text></g></svg>