<svg width="1861" height="889" xmlns="http://www.w3.org/2000/svg" xmlns:xlink="http://www.w3.org/1999/xlink" overflow="hidden"><defs><clipPath id="clip0"><rect x="183" y="1301" width="1861" height="889"/></clipPath></defs><g clip-path="url(#clip0)" transform="translate(-183 -1301)"><path d="M1.964-1.18087 55.1242 87.2339 51.1962 89.5957-1.964 1.18087ZM62.5825 77.4016 64.9689 108.055 39.0145 91.5721Z" fill="#FF0000" fill-rule="nonzero" fill-opacity="1" transform="matrix(-1 0 0 1 523.469 1855.5)"/><path d="M1.964-1.18087 55.1242 87.2339 51.1962 89.5957-1.964 1.18087ZM62.5825 77.4016 64.9689 108.055 39.0145 91.5721Z" fill="#FF0000" fill-rule="nonzero" fill-opacity="1" transform="matrix(-1 0 0 1 665.469 1881.5)"/><path d="M330.5 1980.5 495.5 2079.5" stroke="#000000" stroke-width="4.58333" stroke-linecap="butt" stroke-linejoin="round" stroke-miterlimit="10" stroke-opacity="1" fill="none" fill-rule="evenodd"/><path d="M0 0 165 99" stroke="#000000" stroke-width="4.58333" stroke-linecap="butt" stroke-linejoin="round" stroke-miterlimit="10" stroke-opacity="1" fill="none" fill-rule="evenodd" transform="matrix(-1 0 0 1 661.5 1980.5)"/><path d="M0 0 359.907 584.72" stroke="#000000" stroke-width="4.58333" stroke-linecap="butt" stroke-linejoin="round" stroke-miterlimit="10" stroke-opacity="1" fill="none" fill-rule="evenodd" transform="matrix(-1 0 0 1 855.407 1495.5)"/><path d="M0 0 359.907 584.72" stroke="#000000" stroke-width="4.58333" stroke-linecap="butt" stroke-linejoin="round" stroke-miterlimit="10" stroke-opacity="1" fill="none" fill-rule="evenodd" transform="matrix(-1 0 0 1 1020.41 1395.5)"/><path d="M0 0 359.907 584.72" stroke="#000000" stroke-width="4.58333" stroke-linecap="butt" stroke-linejoin="round" stroke-miterlimit="10" stroke-opacity="1" fill="none" fill-rule="evenodd" transform="matrix(-1 0 0 1 690.407 1395.5)"/><path d="M689.5 1395.5 854.5 1494.5" stroke="#000000" stroke-width="4.58333" stroke-linecap="butt" stroke-linejoin="round" stroke-miterlimit="10" stroke-opacity="1" fill="none" fill-rule="evenodd"/><path d="M0 0 165 99" stroke="#000000" stroke-width="4.58333" stroke-linecap="butt" stroke-linejoin="round" stroke-miterlimit="10" stroke-opacity="1" fill="none" fill-rule="evenodd" transform="matrix(-1 0 0 1 1019.5 1395.5)"/><path d="M481.5 1679.5C481.5 1588.37 555.373 1514.5 646.5 1514.5 737.627 1514.5 811.5 1588.37 811.5 1679.5 811.5 1770.63 737.627 1844.5 646.5 1844.5 555.373 1844.5 481.5 1770.63 481.5 1679.5Z" stroke="#000000" stroke-width="4.58333" stroke-linecap="butt" stroke-linejoin="round" stroke-miterlimit="10" stroke-opacity="1" fill="#FFFFFF" fill-rule="evenodd" fill-opacity="1"/><path d="M0 676 215.289 0 338 0 122.711 676Z" stroke="#000000" stroke-width="4.58333" stroke-linecap="butt" stroke-linejoin="round" stroke-miterlimit="10" stroke-opacity="1" fill="none" fill-rule="evenodd" transform="matrix(1 0 0 -1 491.5 1983.5)"/><rect x="209" y="2007" width="272" height="144" fill="#FFFFFF" fill-opacity="0.8"/><text fill="#FF0000" fill-opacity="1" font-family="Times New Roman,Times New Roman_MSFontService,sans-serif" font-style="normal" font-variant="normal" font-weight="400" font-stretch="normal" font-size="92" text-anchor="start" direction="ltr" writing-mode="lr-tb" unicode-bidi="normal" text-decoration="none" transform="matrix(1 0 0 1 241.543 2112)">guide</text><path d="M602.964 1463.39 566.295 1334.13 570.705 1332.87 607.373 1462.14ZM617.146 1454.6 611.423 1484.81 590.69 1462.11Z" fill="#0000FF" fill-rule="nonzero" fill-opacity="1"/><rect x="290" y="1350" width="246" height="144" fill="#FFFFFF" fill-opacity="0.8"/><text fill="#0000FF" fill-opacity="1" font-family="Times New Roman,Times New Roman_MSFontService,sans-serif" font-style="normal" font-variant="normal" font-weight="400" font-stretch="normal" font-size="92" text-anchor="start" direction="ltr" writing-mode="lr-tb" unicode-bidi="normal" text-decoration="none" transform="matrix(1 0 0 1 322.901 1455)">wear<tspan fill="#000000" fill-opacity="1" font-family="Arial,Arial_MSFontService,sans-serif" font-style="normal" font-variant="normal" font-weight="400" font-stretch="normal" font-size="64" text-anchor="start" direction="ltr" writing-mode="lr-tb" unicode-bidi="normal" text-decoration="none" x="666.383" y="303">The running direction of the balls is </tspan><tspan fill="#000000" fill-opacity="1" font-family="Arial,Arial_MSFontService,sans-serif" font-style="normal" font-variant="normal" font-weight="400" font-stretch="normal" font-size="64" text-anchor="start" direction="ltr" writing-mode="lr-tb" unicode-bidi="normal" text-decoration="none" x="666.383" y="380">guided by the bottom </tspan><tspan fill="#000000" fill-opacity="1" font-family="Arial,Arial_MSFontService,sans-serif" font-style="normal" font-variant="normal" font-weight="400" font-stretch="normal" font-size="64" text-anchor="start" direction="ltr" writing-mode="lr-tb" unicode-bidi="normal" text-decoration="none" x="1281.12" y="380">groove</tspan></text></g></svg>